<?xml version="1.0" encoding="utf-8"?>
<svg xmlns="http://www.w3.org/2000/svg" xmlns:xlink="http://www.w3.org/1999/xlink" width="850" height="550" viewBox="0 0 3400 2200">
<defs>
  <clipPath id="clip070">
    <rect x="0" y="0" width="3400" height="2200"/>
  </clipPath>
</defs>
<path clip-path="url(#clip070)" d="M0 2200 L3400 2200 L3400 0 L0 0  Z" fill="#ffffff" fill-rule="evenodd" fill-opacity="1"/>
<defs>
  <clipPath id="clip071">
    <rect x="680" y="0" width="2381" height="2200"/>
  </clipPath>
</defs>
<path clip-path="url(#clip070)" d="M306.885 1988.1 L3352.76 1988.1 L3352.76 121.693 L306.885 121.693  Z" fill="#ffffff" fill-rule="evenodd" fill-opacity="1"/>
<defs>
  <clipPath id="clip072">
    <rect x="306" y="121" width="3047" height="1867"/>
  </clipPath>
</defs>
<polyline clip-path="url(#clip072)" style="stroke:#000000; stroke-linecap:round; stroke-linejoin:round; stroke-width:2; stroke-opacity:0.1; fill:none" points="393.089,1988.1 393.089,121.693 "/>
<polyline clip-path="url(#clip072)" style="stroke:#000000; stroke-linecap:round; stroke-linejoin:round; stroke-width:2; stroke-opacity:0.1; fill:none" points="1111.45,1988.1 1111.45,121.693 "/>
<polyline clip-path="url(#clip072)" style="stroke:#000000; stroke-linecap:round; stroke-linejoin:round; stroke-width:2; stroke-opacity:0.1; fill:none" points="1531.67,1988.1 1531.67,121.693 "/>
<polyline clip-path="url(#clip072)" style="stroke:#000000; stroke-linecap:round; stroke-linejoin:round; stroke-width:2; stroke-opacity:0.1; fill:none" points="1829.82,1988.1 1829.82,121.693 "/>
<polyline clip-path="url(#clip072)" style="stroke:#000000; stroke-linecap:round; stroke-linejoin:round; stroke-width:2; stroke-opacity:0.1; fill:none" points="2250.04,1988.1 2250.04,121.693 "/>
<polyline clip-path="url(#clip072)" style="stroke:#000000; stroke-linecap:round; stroke-linejoin:round; stroke-width:2; stroke-opacity:0.1; fill:none" points="2548.19,1988.1 2548.19,121.693 "/>
<polyline clip-path="url(#clip072)" style="stroke:#000000; stroke-linecap:round; stroke-linejoin:round; stroke-width:2; stroke-opacity:0.1; fill:none" points="2968.4,1988.1 2968.4,121.693 "/>
<polyline clip-path="url(#clip072)" style="stroke:#000000; stroke-linecap:round; stroke-linejoin:round; stroke-width:2; stroke-opacity:0.1; fill:none" points="3266.55,1988.1 3266.55,121.693 "/>
<polyline clip-path="url(#clip072)" style="stroke:#000000; stroke-linecap:round; stroke-linejoin:round; stroke-width:2; stroke-opacity:0.1; fill:none" points="306.885,1758.67 3352.76,1758.67 "/>
<polyline clip-path="url(#clip072)" style="stroke:#000000; stroke-linecap:round; stroke-linejoin:round; stroke-width:2; stroke-opacity:0.1; fill:none" points="306.885,1419.21 3352.76,1419.21 "/>
<polyline clip-path="url(#clip072)" style="stroke:#000000; stroke-linecap:round; stroke-linejoin:round; stroke-width:2; stroke-opacity:0.1; fill:none" points="306.885,1079.75 3352.76,1079.75 "/>
<polyline clip-path="url(#clip072)" style="stroke:#000000; stroke-linecap:round; stroke-linejoin:round; stroke-width:2; stroke-opacity:0.1; fill:none" points="306.885,740.285 3352.76,740.285 "/>
<polyline clip-path="url(#clip072)" style="stroke:#000000; stroke-linecap:round; stroke-linejoin:round; stroke-width:2; stroke-opacity:0.1; fill:none" points="306.885,400.824 3352.76,400.824 "/>
<polyline clip-path="url(#clip070)" style="stroke:#000000; stroke-linecap:round; stroke-linejoin:round; stroke-width:4; stroke-opacity:1; fill:none" points="306.885,1988.1 3352.76,1988.1 "/>
<polyline clip-path="url(#clip070)" style="stroke:#000000; stroke-linecap:round; stroke-linejoin:round; stroke-width:4; stroke-opacity:1; fill:none" points="393.089,1988.1 393.089,1969.2 "/>
<polyline clip-path="url(#clip070)" style="stroke:#000000; stroke-linecap:round; stroke-linejoin:round; stroke-width:4; stroke-opacity:1; fill:none" points="1111.45,1988.1 1111.45,1969.2 "/>
<polyline clip-path="url(#clip070)" style="stroke:#000000; stroke-linecap:round; stroke-linejoin:round; stroke-width:4; stroke-opacity:1; fill:none" points="1531.67,1988.1 1531.67,1969.2 "/>
<polyline clip-path="url(#clip070)" style="stroke:#000000; stroke-linecap:round; stroke-linejoin:round; stroke-width:4; stroke-opacity:1; fill:none" points="1829.82,1988.1 1829.82,1969.2 "/>
<polyline clip-path="url(#clip070)" style="stroke:#000000; stroke-linecap:round; stroke-linejoin:round; stroke-width:4; stroke-opacity:1; fill:none" points="2250.04,1988.1 2250.04,1969.2 "/>
<polyline clip-path="url(#clip070)" style="stroke:#000000; stroke-linecap:round; stroke-linejoin:round; stroke-width:4; stroke-opacity:1; fill:none" points="2548.19,1988.1 2548.19,1969.2 "/>
<polyline clip-path="url(#clip070)" style="stroke:#000000; stroke-linecap:round; stroke-linejoin:round; stroke-width:4; stroke-opacity:1; fill:none" points="2968.4,1988.1 2968.4,1969.2 "/>
<polyline clip-path="url(#clip070)" style="stroke:#000000; stroke-linecap:round; stroke-linejoin:round; stroke-width:4; stroke-opacity:1; fill:none" points="3266.55,1988.1 3266.55,1969.2 "/>
<path clip-path="url(#clip070)" d="M383.471 2054.56 L391.109 2054.56 L391.109 2028.2 L382.799 2029.86 L382.799 2025.6 L391.063 2023.94 L395.739 2023.94 L395.739 2054.56 L403.378 2054.56 L403.378 2058.5 L383.471 2058.5 L383.471 2054.56 Z" fill="#000000" fill-rule="nonzero" fill-opacity="1" /><path clip-path="url(#clip070)" d="M1106.11 2054.56 L1122.43 2054.56 L1122.43 2058.5 L1100.48 2058.5 L1100.48 2054.56 Q1103.14 2051.81 1107.73 2047.18 Q1112.33 2042.53 1113.51 2041.18 Q1115.76 2038.66 1116.64 2036.92 Q1117.54 2035.16 1117.54 2033.47 Q1117.54 2030.72 1115.6 2028.98 Q1113.68 2027.25 1110.57 2027.25 Q1108.38 2027.25 1105.92 2028.01 Q1103.49 2028.78 1100.71 2030.33 L1100.71 2025.6 Q1103.54 2024.47 1105.99 2023.89 Q1108.45 2023.31 1110.48 2023.31 Q1115.85 2023.31 1119.05 2026 Q1122.24 2028.68 1122.24 2033.17 Q1122.24 2035.3 1121.43 2037.22 Q1120.64 2039.12 1118.54 2041.72 Q1117.96 2042.39 1114.86 2045.6 Q1111.76 2048.8 1106.11 2054.56 Z" fill="#000000" fill-rule="nonzero" fill-opacity="1" /><path clip-path="url(#clip070)" d="M1535.92 2039.86 Q1539.28 2040.58 1541.15 2042.85 Q1543.05 2045.12 1543.05 2048.45 Q1543.05 2053.57 1539.53 2056.37 Q1536.01 2059.17 1529.53 2059.17 Q1527.35 2059.17 1525.04 2058.73 Q1522.75 2058.31 1520.29 2057.46 L1520.29 2052.94 Q1522.24 2054.08 1524.55 2054.66 Q1526.87 2055.23 1529.39 2055.23 Q1533.79 2055.23 1536.08 2053.5 Q1538.4 2051.76 1538.4 2048.45 Q1538.4 2045.4 1536.24 2043.68 Q1534.11 2041.95 1530.29 2041.95 L1526.27 2041.95 L1526.27 2038.1 L1530.48 2038.1 Q1533.93 2038.1 1535.76 2036.74 Q1537.59 2035.35 1537.59 2032.76 Q1537.59 2030.1 1535.69 2028.68 Q1533.81 2027.25 1530.29 2027.25 Q1528.37 2027.25 1526.17 2027.66 Q1523.97 2028.08 1521.34 2028.96 L1521.34 2024.79 Q1524 2024.05 1526.31 2023.68 Q1528.65 2023.31 1530.71 2023.31 Q1536.03 2023.31 1539.14 2025.74 Q1542.24 2028.15 1542.24 2032.27 Q1542.24 2035.14 1540.6 2037.13 Q1538.95 2039.1 1535.92 2039.86 Z" fill="#000000" fill-rule="nonzero" fill-opacity="1" /><path clip-path="url(#clip070)" d="M1832.83 2028.01 L1821.02 2046.46 L1832.83 2046.46 L1832.83 2028.01 M1831.6 2023.94 L1837.48 2023.94 L1837.48 2046.46 L1842.41 2046.46 L1842.41 2050.35 L1837.48 2050.35 L1837.48 2058.5 L1832.83 2058.5 L1832.83 2050.35 L1817.23 2050.35 L1817.23 2045.84 L1831.6 2023.94 Z" fill="#000000" fill-rule="nonzero" fill-opacity="1" /><path clip-path="url(#clip070)" d="M2250.44 2039.35 Q2247.29 2039.35 2245.44 2041.51 Q2243.61 2043.66 2243.61 2047.41 Q2243.61 2051.14 2245.44 2053.31 Q2247.29 2055.47 2250.44 2055.47 Q2253.59 2055.47 2255.42 2053.31 Q2257.27 2051.14 2257.27 2047.41 Q2257.27 2043.66 2255.42 2041.51 Q2253.59 2039.35 2250.44 2039.35 M2259.72 2024.7 L2259.72 2028.96 Q2257.97 2028.13 2256.16 2027.69 Q2254.38 2027.25 2252.62 2027.25 Q2247.99 2027.25 2245.54 2030.37 Q2243.1 2033.5 2242.76 2039.82 Q2244.12 2037.8 2246.18 2036.74 Q2248.24 2035.65 2250.72 2035.65 Q2255.93 2035.65 2258.94 2038.82 Q2261.97 2041.97 2261.97 2047.41 Q2261.97 2052.73 2258.82 2055.95 Q2255.67 2059.17 2250.44 2059.17 Q2244.45 2059.17 2241.28 2054.59 Q2238.1 2049.98 2238.1 2041.25 Q2238.1 2033.06 2241.99 2028.2 Q2245.88 2023.31 2252.43 2023.31 Q2254.19 2023.31 2255.97 2023.66 Q2257.78 2024.01 2259.72 2024.7 Z" fill="#000000" fill-rule="nonzero" fill-opacity="1" /><path clip-path="url(#clip070)" d="M2548.19 2042.09 Q2544.85 2042.09 2542.93 2043.87 Q2541.03 2045.65 2541.03 2048.78 Q2541.03 2051.9 2542.93 2053.68 Q2544.85 2055.47 2548.19 2055.47 Q2551.52 2055.47 2553.44 2053.68 Q2555.36 2051.88 2555.36 2048.78 Q2555.36 2045.65 2553.44 2043.87 Q2551.54 2042.09 2548.19 2042.09 M2543.51 2040.1 Q2540.5 2039.35 2538.81 2037.29 Q2537.14 2035.23 2537.14 2032.27 Q2537.14 2028.13 2540.08 2025.72 Q2543.05 2023.31 2548.19 2023.31 Q2553.35 2023.31 2556.29 2025.72 Q2559.23 2028.13 2559.23 2032.27 Q2559.23 2035.23 2557.54 2037.29 Q2555.87 2039.35 2552.89 2040.1 Q2556.26 2040.88 2558.14 2043.17 Q2560.04 2045.47 2560.04 2048.78 Q2560.04 2053.8 2556.96 2056.48 Q2553.9 2059.17 2548.19 2059.17 Q2542.47 2059.17 2539.39 2056.48 Q2536.33 2053.8 2536.33 2048.78 Q2536.33 2045.47 2538.23 2043.17 Q2540.13 2040.88 2543.51 2040.1 M2541.8 2032.71 Q2541.8 2035.4 2543.46 2036.9 Q2545.15 2038.41 2548.19 2038.41 Q2551.2 2038.41 2552.89 2036.9 Q2554.6 2035.4 2554.6 2032.71 Q2554.6 2030.03 2552.89 2028.52 Q2551.2 2027.02 2548.19 2027.02 Q2545.15 2027.02 2543.46 2028.52 Q2541.8 2030.03 2541.8 2032.71 Z" fill="#000000" fill-rule="nonzero" fill-opacity="1" /><path clip-path="url(#clip070)" d="M2943.89 2054.56 L2951.53 2054.56 L2951.53 2028.2 L2943.22 2029.86 L2943.22 2025.6 L2951.48 2023.94 L2956.16 2023.94 L2956.16 2054.56 L2963.8 2054.56 L2963.8 2058.5 L2943.89 2058.5 L2943.89 2054.56 Z" fill="#000000" fill-rule="nonzero" fill-opacity="1" /><path clip-path="url(#clip070)" d="M2977.27 2054.56 L2993.59 2054.56 L2993.59 2058.5 L2971.64 2058.5 L2971.64 2054.56 Q2974.31 2051.81 2978.89 2047.18 Q2983.5 2042.53 2984.68 2041.18 Q2986.92 2038.66 2987.8 2036.92 Q2988.7 2035.16 2988.7 2033.47 Q2988.7 2030.72 2986.76 2028.98 Q2984.84 2027.25 2981.74 2027.25 Q2979.54 2027.25 2977.08 2028.01 Q2974.65 2028.78 2971.88 2030.33 L2971.88 2025.6 Q2974.7 2024.47 2977.15 2023.89 Q2979.61 2023.31 2981.64 2023.31 Q2987.01 2023.31 2990.21 2026 Q2993.4 2028.68 2993.4 2033.17 Q2993.4 2035.3 2992.59 2037.22 Q2991.81 2039.12 2989.7 2041.72 Q2989.12 2042.39 2986.02 2045.6 Q2982.92 2048.8 2977.27 2054.56 Z" fill="#000000" fill-rule="nonzero" fill-opacity="1" /><path clip-path="url(#clip070)" d="M3241.16 2054.56 L3248.8 2054.56 L3248.8 2028.2 L3240.49 2029.86 L3240.49 2025.6 L3248.75 2023.94 L3253.43 2023.94 L3253.43 2054.56 L3261.07 2054.56 L3261.07 2058.5 L3241.16 2058.5 L3241.16 2054.56 Z" fill="#000000" fill-rule="nonzero" fill-opacity="1" /><path clip-path="url(#clip070)" d="M3281.09 2039.35 Q3277.94 2039.35 3276.09 2041.51 Q3274.26 2043.66 3274.26 2047.41 Q3274.26 2051.14 3276.09 2053.31 Q3277.94 2055.47 3281.09 2055.47 Q3284.24 2055.47 3286.07 2053.31 Q3287.92 2051.14 3287.92 2047.41 Q3287.92 2043.66 3286.07 2041.51 Q3284.24 2039.35 3281.09 2039.35 M3290.37 2024.7 L3290.37 2028.96 Q3288.61 2028.13 3286.81 2027.69 Q3285.02 2027.25 3283.26 2027.25 Q3278.64 2027.25 3276.18 2030.37 Q3273.75 2033.5 3273.4 2039.82 Q3274.77 2037.8 3276.83 2036.74 Q3278.89 2035.65 3281.37 2035.65 Q3286.58 2035.65 3289.58 2038.82 Q3292.62 2041.97 3292.62 2047.41 Q3292.62 2052.73 3289.47 2055.95 Q3286.32 2059.17 3281.09 2059.17 Q3275.09 2059.17 3271.92 2054.59 Q3268.75 2049.98 3268.75 2041.25 Q3268.75 2033.06 3272.64 2028.2 Q3276.53 2023.31 3283.08 2023.31 Q3284.84 2023.31 3286.62 2023.66 Q3288.43 2024.01 3290.37 2024.7 Z" fill="#000000" fill-rule="nonzero" fill-opacity="1" /><path clip-path="url(#clip070)" d="M1641.41 2100.44 L1681.61 2100.44 L1681.61 2105.85 L1664.74 2105.85 L1664.74 2147.96 L1658.28 2147.96 L1658.28 2105.85 L1641.41 2105.85 L1641.41 2100.44 Z" fill="#000000" fill-rule="nonzero" fill-opacity="1" /><path clip-path="url(#clip070)" d="M1717.2 2126.45 L1717.2 2147.96 L1711.34 2147.96 L1711.34 2126.64 Q1711.34 2121.58 1709.37 2119.06 Q1707.39 2116.55 1703.45 2116.55 Q1698.7 2116.55 1695.97 2119.57 Q1693.23 2122.59 1693.23 2127.81 L1693.23 2147.96 L1687.34 2147.96 L1687.34 2098.44 L1693.23 2098.44 L1693.23 2117.85 Q1695.33 2114.64 1698.16 2113.05 Q1701.03 2111.45 1704.75 2111.45 Q1710.89 2111.45 1714.04 2115.27 Q1717.2 2119.06 1717.2 2126.45 Z" fill="#000000" fill-rule="nonzero" fill-opacity="1" /><path clip-path="url(#clip070)" d="M1749.53 2117.79 Q1748.55 2117.22 1747.37 2116.96 Q1746.22 2116.67 1744.82 2116.67 Q1739.86 2116.67 1737.18 2119.92 Q1734.54 2123.14 1734.54 2129.18 L1734.54 2147.96 L1728.65 2147.96 L1728.65 2112.31 L1734.54 2112.31 L1734.54 2117.85 Q1736.39 2114.61 1739.35 2113.05 Q1742.31 2111.45 1746.54 2111.45 Q1747.15 2111.45 1747.88 2111.55 Q1748.61 2111.61 1749.5 2111.77 L1749.53 2117.79 Z" fill="#000000" fill-rule="nonzero" fill-opacity="1" /><path clip-path="url(#clip070)" d="M1784.74 2128.67 L1784.74 2131.54 L1757.81 2131.54 Q1758.19 2137.59 1761.44 2140.77 Q1764.72 2143.92 1770.54 2143.92 Q1773.91 2143.92 1777.06 2143.09 Q1780.25 2142.26 1783.37 2140.61 L1783.37 2146.15 Q1780.22 2147.48 1776.91 2148.18 Q1773.6 2148.88 1770.19 2148.88 Q1761.66 2148.88 1756.66 2143.92 Q1751.7 2138.95 1751.7 2130.49 Q1751.7 2121.74 1756.41 2116.61 Q1761.15 2111.45 1769.17 2111.45 Q1776.36 2111.45 1780.53 2116.1 Q1784.74 2120.72 1784.74 2128.67 M1778.88 2126.96 Q1778.82 2122.15 1776.17 2119.28 Q1773.56 2116.42 1769.23 2116.42 Q1764.33 2116.42 1761.37 2119.19 Q1758.44 2121.96 1758 2126.99 L1778.88 2126.96 Z" fill="#000000" fill-rule="nonzero" fill-opacity="1" /><path clip-path="url(#clip070)" d="M1810.55 2130.04 Q1803.45 2130.04 1800.71 2131.67 Q1797.98 2133.29 1797.98 2137.2 Q1797.98 2140.32 1800.01 2142.17 Q1802.08 2143.98 1805.61 2143.98 Q1810.48 2143.98 1813.41 2140.55 Q1816.37 2137.08 1816.37 2131.35 L1816.37 2130.04 L1810.55 2130.04 M1822.23 2127.62 L1822.23 2147.96 L1816.37 2147.96 L1816.37 2142.55 Q1814.37 2145.8 1811.38 2147.36 Q1808.38 2148.88 1804.06 2148.88 Q1798.58 2148.88 1795.33 2145.83 Q1792.12 2142.74 1792.12 2137.59 Q1792.12 2131.57 1796.13 2128.51 Q1800.17 2125.46 1808.16 2125.46 L1816.37 2125.46 L1816.37 2124.89 Q1816.37 2120.84 1813.7 2118.65 Q1811.06 2116.42 1806.25 2116.42 Q1803.2 2116.42 1800.3 2117.15 Q1797.4 2117.88 1794.73 2119.35 L1794.73 2113.94 Q1797.94 2112.7 1800.97 2112.09 Q1803.99 2111.45 1806.86 2111.45 Q1814.59 2111.45 1818.41 2115.46 Q1822.23 2119.48 1822.23 2127.62 Z" fill="#000000" fill-rule="nonzero" fill-opacity="1" /><path clip-path="url(#clip070)" d="M1857.75 2117.72 L1857.75 2098.44 L1863.61 2098.44 L1863.61 2147.96 L1857.75 2147.96 L1857.75 2142.61 Q1855.9 2145.8 1853.07 2147.36 Q1850.27 2148.88 1846.32 2148.88 Q1839.86 2148.88 1835.79 2143.73 Q1831.75 2138.57 1831.75 2130.17 Q1831.75 2121.77 1835.79 2116.61 Q1839.86 2111.45 1846.32 2111.45 Q1850.27 2111.45 1853.07 2113.01 Q1855.9 2114.54 1857.75 2117.72 M1837.79 2130.17 Q1837.79 2136.63 1840.44 2140.32 Q1843.11 2143.98 1847.76 2143.98 Q1852.4 2143.98 1855.08 2140.32 Q1857.75 2136.63 1857.75 2130.17 Q1857.75 2123.71 1855.08 2120.05 Q1852.4 2116.36 1847.76 2116.36 Q1843.11 2116.36 1840.44 2120.05 Q1837.79 2123.71 1837.79 2130.17 Z" fill="#000000" fill-rule="nonzero" fill-opacity="1" /><path clip-path="url(#clip070)" d="M1898.39 2113.36 L1898.39 2118.9 Q1895.91 2117.63 1893.24 2116.99 Q1890.57 2116.36 1887.7 2116.36 Q1883.34 2116.36 1881.14 2117.69 Q1878.98 2119.03 1878.98 2121.7 Q1878.98 2123.74 1880.54 2124.92 Q1882.1 2126.06 1886.81 2127.11 L1888.81 2127.56 Q1895.05 2128.9 1897.66 2131.35 Q1900.3 2133.77 1900.3 2138.13 Q1900.3 2143.09 1896.36 2145.99 Q1892.44 2148.88 1885.57 2148.88 Q1882.7 2148.88 1879.58 2148.31 Q1876.5 2147.77 1873.06 2146.66 L1873.06 2140.61 Q1876.31 2142.3 1879.46 2143.16 Q1882.61 2143.98 1885.7 2143.98 Q1889.83 2143.98 1892.06 2142.58 Q1894.29 2141.15 1894.29 2138.57 Q1894.29 2136.19 1892.67 2134.91 Q1891.07 2133.64 1885.63 2132.46 L1883.59 2131.98 Q1878.15 2130.84 1875.73 2128.48 Q1873.31 2126.1 1873.31 2121.96 Q1873.31 2116.93 1876.88 2114.19 Q1880.44 2111.45 1887 2111.45 Q1890.25 2111.45 1893.11 2111.93 Q1895.98 2112.41 1898.39 2113.36 Z" fill="#000000" fill-rule="nonzero" fill-opacity="1" /><path clip-path="url(#clip070)" d="M1944.42 2098.5 Q1940.15 2105.82 1938.09 2112.98 Q1936.02 2120.14 1936.02 2127.5 Q1936.02 2134.85 1938.09 2142.07 Q1940.19 2149.27 1944.42 2156.56 L1939.33 2156.56 Q1934.55 2149.08 1932.16 2141.85 Q1929.81 2134.63 1929.81 2127.5 Q1929.81 2120.4 1932.16 2113.21 Q1934.52 2106.01 1939.33 2098.5 L1944.42 2098.5 Z" fill="#000000" fill-rule="nonzero" fill-opacity="1" /><path clip-path="url(#clip070)" d="M1956.04 2100.44 L1964.69 2100.44 L1985.76 2140.2 L1985.76 2100.44 L1992 2100.44 L1992 2147.96 L1983.35 2147.96 L1962.27 2108.21 L1962.27 2147.96 L1956.04 2147.96 L1956.04 2100.44 Z" fill="#000000" fill-rule="nonzero" fill-opacity="1" /><path clip-path="url(#clip070)" d="M2003.62 2098.5 L2008.71 2098.5 Q2013.49 2106.01 2015.84 2113.21 Q2018.23 2120.4 2018.23 2127.5 Q2018.23 2134.63 2015.84 2141.85 Q2013.49 2149.08 2008.71 2156.56 L2003.62 2156.56 Q2007.85 2149.27 2009.92 2142.07 Q2012.02 2134.85 2012.02 2127.5 Q2012.02 2120.14 2009.92 2112.98 Q2007.85 2105.82 2003.62 2098.5 Z" fill="#000000" fill-rule="nonzero" fill-opacity="1" /><polyline clip-path="url(#clip070)" style="stroke:#000000; stroke-linecap:round; stroke-linejoin:round; stroke-width:4; stroke-opacity:1; fill:none" points="306.885,1988.1 306.885,121.693 "/>
<polyline clip-path="url(#clip070)" style="stroke:#000000; stroke-linecap:round; stroke-linejoin:round; stroke-width:4; stroke-opacity:1; fill:none" points="306.885,1758.67 325.782,1758.67 "/>
<polyline clip-path="url(#clip070)" style="stroke:#000000; stroke-linecap:round; stroke-linejoin:round; stroke-width:4; stroke-opacity:1; fill:none" points="306.885,1419.21 325.782,1419.21 "/>
<polyline clip-path="url(#clip070)" style="stroke:#000000; stroke-linecap:round; stroke-linejoin:round; stroke-width:4; stroke-opacity:1; fill:none" points="306.885,1079.75 325.782,1079.75 "/>
<polyline clip-path="url(#clip070)" style="stroke:#000000; stroke-linecap:round; stroke-linejoin:round; stroke-width:4; stroke-opacity:1; fill:none" points="306.885,740.285 325.782,740.285 "/>
<polyline clip-path="url(#clip070)" style="stroke:#000000; stroke-linecap:round; stroke-linejoin:round; stroke-width:4; stroke-opacity:1; fill:none" points="306.885,400.824 325.782,400.824 "/>
<path clip-path="url(#clip070)" d="M198.547 1744.47 Q194.936 1744.47 193.107 1748.03 Q191.302 1751.58 191.302 1758.71 Q191.302 1765.81 193.107 1769.38 Q194.936 1772.92 198.547 1772.92 Q202.181 1772.92 203.987 1769.38 Q205.816 1765.81 205.816 1758.71 Q205.816 1751.58 203.987 1748.03 Q202.181 1744.47 198.547 1744.47 M198.547 1740.77 Q204.357 1740.77 207.413 1745.37 Q210.491 1749.96 210.491 1758.71 Q210.491 1767.43 207.413 1772.04 Q204.357 1776.62 198.547 1776.62 Q192.737 1776.62 189.658 1772.04 Q186.603 1767.43 186.603 1758.71 Q186.603 1749.96 189.658 1745.37 Q192.737 1740.77 198.547 1740.77 Z" fill="#000000" fill-rule="nonzero" fill-opacity="1" /><path clip-path="url(#clip070)" d="M218.709 1770.07 L223.593 1770.07 L223.593 1775.95 L218.709 1775.95 L218.709 1770.07 Z" fill="#000000" fill-rule="nonzero" fill-opacity="1" /><path clip-path="url(#clip070)" d="M244.357 1756.81 Q241.209 1756.81 239.357 1758.96 Q237.528 1761.11 237.528 1764.86 Q237.528 1768.59 239.357 1770.77 Q241.209 1772.92 244.357 1772.92 Q247.505 1772.92 249.334 1770.77 Q251.186 1768.59 251.186 1764.86 Q251.186 1761.11 249.334 1758.96 Q247.505 1756.81 244.357 1756.81 M253.639 1742.15 L253.639 1746.41 Q251.88 1745.58 250.075 1745.14 Q248.292 1744.7 246.533 1744.7 Q241.903 1744.7 239.45 1747.83 Q237.019 1750.95 236.672 1757.27 Q238.038 1755.26 240.098 1754.19 Q242.158 1753.1 244.635 1753.1 Q249.843 1753.1 252.852 1756.27 Q255.885 1759.42 255.885 1764.86 Q255.885 1770.19 252.737 1773.4 Q249.588 1776.62 244.357 1776.62 Q238.362 1776.62 235.19 1772.04 Q232.019 1767.43 232.019 1758.71 Q232.019 1750.51 235.908 1745.65 Q239.797 1740.77 246.348 1740.77 Q248.107 1740.77 249.889 1741.11 Q251.695 1741.46 253.639 1742.15 Z" fill="#000000" fill-rule="nonzero" fill-opacity="1" /><path clip-path="url(#clip070)" d="M198.894 1405.01 Q195.283 1405.01 193.454 1408.57 Q191.649 1412.11 191.649 1419.24 Q191.649 1426.35 193.454 1429.91 Q195.283 1433.46 198.894 1433.46 Q202.529 1433.46 204.334 1429.91 Q206.163 1426.35 206.163 1419.24 Q206.163 1412.11 204.334 1408.57 Q202.529 1405.01 198.894 1405.01 M198.894 1401.3 Q204.704 1401.3 207.76 1405.91 Q210.839 1410.49 210.839 1419.24 Q210.839 1427.97 207.76 1432.58 Q204.704 1437.16 198.894 1437.16 Q193.084 1437.16 190.005 1432.58 Q186.95 1427.97 186.95 1419.24 Q186.95 1410.49 190.005 1405.91 Q193.084 1401.3 198.894 1401.3 Z" fill="#000000" fill-rule="nonzero" fill-opacity="1" /><path clip-path="url(#clip070)" d="M219.056 1430.61 L223.94 1430.61 L223.94 1436.49 L219.056 1436.49 L219.056 1430.61 Z" fill="#000000" fill-rule="nonzero" fill-opacity="1" /><path clip-path="url(#clip070)" d="M234.264 1435.77 L234.264 1431.51 Q236.024 1432.35 237.829 1432.78 Q239.635 1433.22 241.371 1433.22 Q246 1433.22 248.431 1430.12 Q250.885 1427 251.232 1420.66 Q249.889 1422.65 247.829 1423.71 Q245.769 1424.78 243.269 1424.78 Q238.084 1424.78 235.051 1421.65 Q232.042 1418.5 232.042 1413.06 Q232.042 1407.74 235.19 1404.52 Q238.339 1401.3 243.57 1401.3 Q249.565 1401.3 252.713 1405.91 Q255.885 1410.49 255.885 1419.24 Q255.885 1427.41 251.996 1432.3 Q248.13 1437.16 241.579 1437.16 Q239.82 1437.16 238.014 1436.81 Q236.209 1436.47 234.264 1435.77 M243.57 1421.12 Q246.718 1421.12 248.547 1418.97 Q250.399 1416.81 250.399 1413.06 Q250.399 1409.34 248.547 1407.18 Q246.718 1405.01 243.57 1405.01 Q240.422 1405.01 238.57 1407.18 Q236.741 1409.34 236.741 1413.06 Q236.741 1416.81 238.57 1418.97 Q240.422 1421.12 243.57 1421.12 Z" fill="#000000" fill-rule="nonzero" fill-opacity="1" /><path clip-path="url(#clip070)" d="M191.117 1093.09 L198.755 1093.09 L198.755 1066.73 L190.445 1068.39 L190.445 1064.13 L198.709 1062.47 L203.385 1062.47 L203.385 1093.09 L211.024 1093.09 L211.024 1097.03 L191.117 1097.03 L191.117 1093.09 Z" fill="#000000" fill-rule="nonzero" fill-opacity="1" /><path clip-path="url(#clip070)" d="M220.468 1091.15 L225.352 1091.15 L225.352 1097.03 L220.468 1097.03 L220.468 1091.15 Z" fill="#000000" fill-rule="nonzero" fill-opacity="1" /><path clip-path="url(#clip070)" d="M239.565 1093.09 L255.885 1093.09 L255.885 1097.03 L233.94 1097.03 L233.94 1093.09 Q236.602 1090.34 241.186 1085.71 Q245.792 1081.05 246.973 1079.71 Q249.218 1077.19 250.098 1075.45 Q251 1073.69 251 1072 Q251 1069.25 249.056 1067.51 Q247.135 1065.78 244.033 1065.78 Q241.834 1065.78 239.38 1066.54 Q236.95 1067.3 234.172 1068.86 L234.172 1064.13 Q236.996 1063 239.45 1062.42 Q241.903 1061.84 243.94 1061.84 Q249.311 1061.84 252.505 1064.53 Q255.7 1067.21 255.7 1071.7 Q255.7 1073.83 254.889 1075.75 Q254.102 1077.65 251.996 1080.24 Q251.417 1080.92 248.315 1084.13 Q245.213 1087.33 239.565 1093.09 Z" fill="#000000" fill-rule="nonzero" fill-opacity="1" /><path clip-path="url(#clip070)" d="M190.515 753.63 L198.154 753.63 L198.154 727.265 L189.843 728.931 L189.843 724.672 L198.107 723.005 L202.783 723.005 L202.783 753.63 L210.422 753.63 L210.422 757.565 L190.515 757.565 L190.515 753.63 Z" fill="#000000" fill-rule="nonzero" fill-opacity="1" /><path clip-path="url(#clip070)" d="M219.866 751.686 L224.751 751.686 L224.751 757.565 L219.866 757.565 L219.866 751.686 Z" fill="#000000" fill-rule="nonzero" fill-opacity="1" /><path clip-path="url(#clip070)" d="M234.982 723.005 L253.338 723.005 L253.338 726.941 L239.264 726.941 L239.264 735.413 Q240.283 735.066 241.301 734.904 Q242.32 734.718 243.338 734.718 Q249.125 734.718 252.505 737.89 Q255.885 741.061 255.885 746.478 Q255.885 752.056 252.413 755.158 Q248.94 758.237 242.621 758.237 Q240.445 758.237 238.176 757.866 Q235.931 757.496 233.524 756.755 L233.524 752.056 Q235.607 753.19 237.829 753.746 Q240.051 754.302 242.528 754.302 Q246.533 754.302 248.871 752.195 Q251.209 750.089 251.209 746.478 Q251.209 742.866 248.871 740.76 Q246.533 738.654 242.528 738.654 Q240.653 738.654 238.778 739.07 Q236.926 739.487 234.982 740.366 L234.982 723.005 Z" fill="#000000" fill-rule="nonzero" fill-opacity="1" /><path clip-path="url(#clip070)" d="M189.612 414.169 L197.251 414.169 L197.251 387.803 L188.941 389.47 L188.941 385.21 L197.204 383.544 L201.88 383.544 L201.88 414.169 L209.519 414.169 L209.519 418.104 L189.612 418.104 L189.612 414.169 Z" fill="#000000" fill-rule="nonzero" fill-opacity="1" /><path clip-path="url(#clip070)" d="M218.964 412.224 L223.848 412.224 L223.848 418.104 L218.964 418.104 L218.964 412.224 Z" fill="#000000" fill-rule="nonzero" fill-opacity="1" /><path clip-path="url(#clip070)" d="M244.033 401.692 Q240.7 401.692 238.778 403.474 Q236.88 405.257 236.88 408.382 Q236.88 411.507 238.778 413.289 Q240.7 415.071 244.033 415.071 Q247.366 415.071 249.288 413.289 Q251.209 411.483 251.209 408.382 Q251.209 405.257 249.288 403.474 Q247.389 401.692 244.033 401.692 M239.357 399.701 Q236.348 398.96 234.658 396.9 Q232.991 394.84 232.991 391.877 Q232.991 387.734 235.931 385.326 Q238.894 382.919 244.033 382.919 Q249.195 382.919 252.135 385.326 Q255.075 387.734 255.075 391.877 Q255.075 394.84 253.385 396.9 Q251.718 398.96 248.732 399.701 Q252.112 400.488 253.987 402.78 Q255.885 405.071 255.885 408.382 Q255.885 413.405 252.806 416.09 Q249.75 418.775 244.033 418.775 Q238.315 418.775 235.237 416.09 Q232.181 413.405 232.181 408.382 Q232.181 405.071 234.079 402.78 Q235.977 400.488 239.357 399.701 M237.644 392.317 Q237.644 395.002 239.311 396.507 Q241.001 398.011 244.033 398.011 Q247.042 398.011 248.732 396.507 Q250.445 395.002 250.445 392.317 Q250.445 389.632 248.732 388.127 Q247.042 386.623 244.033 386.623 Q241.001 386.623 239.311 388.127 Q237.644 389.632 237.644 392.317 Z" fill="#000000" fill-rule="nonzero" fill-opacity="1" /><path clip-path="url(#clip070)" d="M73.8267 1589.5 L73.8267 1559.46 L79.2375 1559.46 L79.2375 1583.07 L93.3057 1583.07 L93.3057 1560.44 L98.7166 1560.44 L98.7166 1583.07 L115.936 1583.07 L115.936 1558.88 L121.347 1558.88 L121.347 1589.5 L73.8267 1589.5 Z" fill="#000000" fill-rule="nonzero" fill-opacity="1" /><path clip-path="url(#clip070)" d="M71.8215 1530.53 L76.6912 1530.53 L76.6912 1536.13 Q76.6912 1539.28 77.9644 1540.52 Q79.2375 1541.73 82.5477 1541.73 L85.6987 1541.73 L85.6987 1532.08 L90.2502 1532.08 L90.2502 1541.73 L121.347 1541.73 L121.347 1547.62 L90.2502 1547.62 L90.2502 1553.22 L85.6987 1553.22 L85.6987 1547.62 L83.2161 1547.62 Q77.2641 1547.62 74.5587 1544.85 Q71.8215 1542.08 71.8215 1536.06 L71.8215 1530.53 Z" fill="#000000" fill-rule="nonzero" fill-opacity="1" /><path clip-path="url(#clip070)" d="M71.8215 1507.58 L76.6912 1507.58 L76.6912 1513.18 Q76.6912 1516.33 77.9644 1517.57 Q79.2375 1518.78 82.5477 1518.78 L85.6987 1518.78 L85.6987 1509.14 L90.2502 1509.14 L90.2502 1518.78 L121.347 1518.78 L121.347 1524.67 L90.2502 1524.67 L90.2502 1530.27 L85.6987 1530.27 L85.6987 1524.67 L83.2161 1524.67 Q77.2641 1524.67 74.5587 1521.9 Q71.8215 1519.13 71.8215 1513.12 L71.8215 1507.58 Z" fill="#000000" fill-rule="nonzero" fill-opacity="1" /><path clip-path="url(#clip070)" d="M85.6987 1502.68 L85.6987 1496.82 L121.347 1496.82 L121.347 1502.68 L85.6987 1502.68 M71.8215 1502.68 L71.8215 1496.82 L79.2375 1496.82 L79.2375 1502.68 L71.8215 1502.68 Z" fill="#000000" fill-rule="nonzero" fill-opacity="1" /><path clip-path="url(#clip070)" d="M87.0673 1458.91 L92.5418 1458.91 Q91.1732 1461.39 90.5048 1463.91 Q89.8046 1466.39 89.8046 1468.94 Q89.8046 1474.63 93.433 1477.79 Q97.0297 1480.94 103.555 1480.94 Q110.079 1480.94 113.708 1477.79 Q117.304 1474.63 117.304 1468.94 Q117.304 1466.39 116.636 1463.91 Q115.936 1461.39 114.567 1458.91 L119.978 1458.91 Q121.124 1461.36 121.697 1464 Q122.27 1466.61 122.27 1469.57 Q122.27 1477.63 117.209 1482.37 Q112.148 1487.11 103.555 1487.11 Q94.8335 1487.11 89.8364 1482.34 Q84.8393 1477.53 84.8393 1469.19 Q84.8393 1466.49 85.4123 1463.91 Q85.9533 1461.33 87.0673 1458.91 Z" fill="#000000" fill-rule="nonzero" fill-opacity="1" /><path clip-path="url(#clip070)" d="M85.6987 1448.73 L85.6987 1442.87 L121.347 1442.87 L121.347 1448.73 L85.6987 1448.73 M71.8215 1448.73 L71.8215 1442.87 L79.2375 1442.87 L79.2375 1448.73 L71.8215 1448.73 Z" fill="#000000" fill-rule="nonzero" fill-opacity="1" /><path clip-path="url(#clip070)" d="M102.059 1400.12 L104.923 1400.12 L104.923 1427.05 Q110.971 1426.67 114.153 1423.42 Q117.304 1420.14 117.304 1414.32 Q117.304 1410.95 116.477 1407.79 Q115.649 1404.61 113.994 1401.49 L119.532 1401.49 Q120.869 1404.64 121.569 1407.95 Q122.27 1411.26 122.27 1414.67 Q122.27 1423.2 117.304 1428.2 Q112.339 1433.16 103.873 1433.16 Q95.12 1433.16 89.9956 1428.45 Q84.8393 1423.71 84.8393 1415.69 Q84.8393 1408.49 89.4863 1404.33 Q94.1014 1400.12 102.059 1400.12 M100.34 1405.98 Q95.5337 1406.04 92.6692 1408.69 Q89.8046 1411.3 89.8046 1415.62 Q89.8046 1420.53 92.5737 1423.49 Q95.3428 1426.41 100.372 1426.86 L100.34 1405.98 Z" fill="#000000" fill-rule="nonzero" fill-opacity="1" /><path clip-path="url(#clip070)" d="M99.8306 1360.88 L121.347 1360.88 L121.347 1366.74 L100.022 1366.74 Q94.9608 1366.74 92.4464 1368.71 Q89.9319 1370.68 89.9319 1374.63 Q89.9319 1379.37 92.9556 1382.11 Q95.9793 1384.85 101.199 1384.85 L121.347 1384.85 L121.347 1390.73 L85.6987 1390.73 L85.6987 1384.85 L91.2369 1384.85 Q88.0222 1382.75 86.4308 1379.91 Q84.8393 1377.05 84.8393 1373.32 Q84.8393 1367.18 88.6588 1364.03 Q92.4464 1360.88 99.8306 1360.88 Z" fill="#000000" fill-rule="nonzero" fill-opacity="1" /><path clip-path="url(#clip070)" d="M87.0673 1323.54 L92.5418 1323.54 Q91.1732 1326.03 90.5048 1328.54 Q89.8046 1331.02 89.8046 1333.57 Q89.8046 1339.27 93.433 1342.42 Q97.0297 1345.57 103.555 1345.57 Q110.079 1345.57 113.708 1342.42 Q117.304 1339.27 117.304 1333.57 Q117.304 1331.02 116.636 1328.54 Q115.936 1326.03 114.567 1323.54 L119.978 1323.54 Q121.124 1326 121.697 1328.64 Q122.27 1331.25 122.27 1334.21 Q122.27 1342.26 117.209 1347 Q112.148 1351.74 103.555 1351.74 Q94.8335 1351.74 89.8364 1346.97 Q84.8393 1342.16 84.8393 1333.82 Q84.8393 1331.12 85.4123 1328.54 Q85.9533 1325.96 87.0673 1323.54 Z" fill="#000000" fill-rule="nonzero" fill-opacity="1" /><path clip-path="url(#clip070)" d="M124.657 1298.53 Q131.023 1301.01 132.964 1303.37 Q134.906 1305.72 134.906 1309.67 L134.906 1314.35 L130.004 1314.35 L130.004 1310.91 Q130.004 1308.49 128.858 1307.15 Q127.712 1305.82 123.447 1304.19 L120.774 1303.14 L85.6987 1317.56 L85.6987 1311.35 L113.581 1300.21 L85.6987 1289.07 L85.6987 1282.87 L124.657 1298.53 Z" fill="#000000" fill-rule="nonzero" fill-opacity="1" /><path clip-path="url(#clip070)" d="M73.8267 1253.81 L73.8267 1223.76 L79.2375 1223.76 L79.2375 1247.38 L93.3057 1247.38 L93.3057 1224.75 L98.7166 1224.75 L98.7166 1247.38 L115.936 1247.38 L115.936 1223.19 L121.347 1223.19 L121.347 1253.81 L73.8267 1253.81 Z" fill="#000000" fill-rule="nonzero" fill-opacity="1" /><path clip-path="url(#clip070)" d="M71.8851 1198.81 Q79.2057 1203.07 86.3671 1205.14 Q93.5285 1207.21 100.881 1207.21 Q108.233 1207.21 115.458 1205.14 Q122.652 1203.04 129.94 1198.81 L129.94 1203.9 Q122.461 1208.68 115.236 1211.06 Q108.011 1213.42 100.881 1213.42 Q93.7832 1213.42 86.5899 1211.06 Q79.3967 1208.71 71.8851 1203.9 L71.8851 1198.81 Z" fill="#000000" fill-rule="nonzero" fill-opacity="1" /><path clip-path="url(#clip070)" d="M73.8267 1187.19 L73.8267 1178.53 L113.581 1157.46 L73.8267 1157.46 L73.8267 1151.22 L121.347 1151.22 L121.347 1159.88 L81.5928 1180.95 L121.347 1180.95 L121.347 1187.19 L73.8267 1187.19 Z" fill="#000000" fill-rule="nonzero" fill-opacity="1" /><path clip-path="url(#clip070)" d="M71.8851 1139.61 L71.8851 1134.51 Q79.3967 1129.74 86.5899 1127.39 Q93.7832 1125 100.881 1125 Q108.011 1125 115.236 1127.39 Q122.461 1129.74 129.94 1134.51 L129.94 1139.61 Q122.652 1135.37 115.458 1133.31 Q108.233 1131.2 100.881 1131.2 Q93.5285 1131.2 86.3671 1133.31 Q79.2057 1135.37 71.8851 1139.61 Z" fill="#000000" fill-rule="nonzero" fill-opacity="1" /><path clip-path="url(#clip070)" d="M91.7461 1091.77 L91.7461 1050.96 L97.0933 1050.96 L97.0933 1091.77 L91.7461 1091.77 M104.732 1091.77 L104.732 1050.96 L110.143 1050.96 L110.143 1091.77 L104.732 1091.77 Z" fill="#000000" fill-rule="nonzero" fill-opacity="1" /><path clip-path="url(#clip070)" d="M73.8267 1023.53 L73.8267 983.329 L79.2375 983.329 L79.2375 1000.2 L121.347 1000.2 L121.347 1006.66 L79.2375 1006.66 L79.2375 1023.53 L73.8267 1023.53 Z" fill="#000000" fill-rule="nonzero" fill-opacity="1" /><path clip-path="url(#clip070)" d="M71.8851 963.309 Q79.2057 967.574 86.3671 969.643 Q93.5285 971.712 100.881 971.712 Q108.233 971.712 115.458 969.643 Q122.652 967.542 129.94 963.309 L129.94 968.402 Q122.461 973.176 115.236 975.563 Q108.011 977.918 100.881 977.918 Q93.7832 977.918 86.5899 975.563 Q79.3967 973.208 71.8851 968.402 L71.8851 963.309 Z" fill="#000000" fill-rule="nonzero" fill-opacity="1" /><path clip-path="url(#clip070)" d="M73.8267 951.692 L73.8267 943.034 L113.581 921.964 L73.8267 921.964 L73.8267 915.725 L121.347 915.725 L121.347 924.383 L81.5928 945.453 L121.347 945.453 L121.347 951.692 L73.8267 951.692 Z" fill="#000000" fill-rule="nonzero" fill-opacity="1" /><path clip-path="url(#clip070)" d="M71.8851 904.108 L71.8851 899.015 Q79.3967 894.241 86.5899 891.886 Q93.7832 889.499 100.881 889.499 Q108.011 889.499 115.236 891.886 Q122.461 894.241 129.94 899.015 L129.94 904.108 Q122.652 899.875 115.458 897.806 Q108.233 895.705 100.881 895.705 Q93.5285 895.705 86.3671 897.806 Q79.2057 899.875 71.8851 904.108 Z" fill="#000000" fill-rule="nonzero" fill-opacity="1" /><path clip-path="url(#clip070)" d="M73.8267 846.626 L73.8267 841.215 L127.394 857.766 L127.394 863.176 L73.8267 846.626 Z" fill="#000000" fill-rule="nonzero" fill-opacity="1" /><path clip-path="url(#clip070)" d="M71.8851 800.283 Q79.2057 804.548 86.3671 806.617 Q93.5285 808.686 100.881 808.686 Q108.233 808.686 115.458 806.617 Q122.652 804.516 129.94 800.283 L129.94 805.376 Q122.461 810.15 115.236 812.537 Q108.011 814.893 100.881 814.893 Q93.7832 814.893 86.5899 812.537 Q79.3967 810.182 71.8851 805.376 L71.8851 800.283 Z" fill="#000000" fill-rule="nonzero" fill-opacity="1" /><path clip-path="url(#clip070)" d="M73.8267 788.666 L73.8267 780.008 L113.581 758.938 L73.8267 758.938 L73.8267 752.7 L121.347 752.7 L121.347 761.357 L81.5928 782.427 L121.347 782.427 L121.347 788.666 L73.8267 788.666 Z" fill="#000000" fill-rule="nonzero" fill-opacity="1" /><path clip-path="url(#clip070)" d="M81.6565 694.931 L87.8312 706.357 L94.0378 694.931 L97.157 696.777 L90.6958 707.471 L102.695 707.471 L102.695 711.1 L90.6958 711.1 L97.157 721.794 L94.0378 723.64 L87.8312 712.214 L81.6565 723.64 L78.5055 721.794 L84.9667 711.1 L72.9673 711.1 L72.9673 707.471 L84.9667 707.471 L78.5055 696.777 L81.6565 694.931 Z" fill="#000000" fill-rule="nonzero" fill-opacity="1" /><path clip-path="url(#clip070)" d="M73.8267 672.46 L73.8267 632.26 L79.2375 632.26 L79.2375 649.13 L121.347 649.13 L121.347 655.591 L79.2375 655.591 L79.2375 672.46 L73.8267 672.46 Z" fill="#000000" fill-rule="nonzero" fill-opacity="1" /><path clip-path="url(#clip070)" d="M71.8851 612.24 Q79.2057 616.505 86.3671 618.574 Q93.5285 620.643 100.881 620.643 Q108.233 620.643 115.458 618.574 Q122.652 616.473 129.94 612.24 L129.94 617.333 Q122.461 622.107 115.236 624.494 Q108.011 626.85 100.881 626.85 Q93.7832 626.85 86.5899 624.494 Q79.3967 622.139 71.8851 617.333 L71.8851 612.24 Z" fill="#000000" fill-rule="nonzero" fill-opacity="1" /><path clip-path="url(#clip070)" d="M115.936 598.936 L115.936 588.433 L79.6831 588.433 L81.9748 599.859 L76.1183 599.859 L73.8267 588.496 L73.8267 582.067 L115.936 582.067 L115.936 571.563 L121.347 571.563 L121.347 598.936 L115.936 598.936 Z" fill="#000000" fill-rule="nonzero" fill-opacity="1" /><path clip-path="url(#clip070)" d="M71.8851 560.328 L71.8851 555.235 Q79.3967 550.461 86.5899 548.106 Q93.7832 545.719 100.881 545.719 Q108.011 545.719 115.236 548.106 Q122.461 550.461 129.94 555.235 L129.94 560.328 Q122.652 556.095 115.458 554.026 Q108.233 551.925 100.881 551.925 Q93.5285 551.925 86.3671 554.026 Q79.2057 556.095 71.8851 560.328 Z" fill="#000000" fill-rule="nonzero" fill-opacity="1" /><path clip-path="url(#clip070)" d="M71.8851 534.897 L71.8851 529.804 Q79.3967 525.03 86.5899 522.675 Q93.7832 520.288 100.881 520.288 Q108.011 520.288 115.236 522.675 Q122.461 525.03 129.94 529.804 L129.94 534.897 Q122.652 530.664 115.458 528.595 Q108.233 526.494 100.881 526.494 Q93.5285 526.494 86.3671 528.595 Q79.2057 530.664 71.8851 534.897 Z" fill="#000000" fill-rule="nonzero" fill-opacity="1" /><path clip-path="url(#clip070)" d="M1124.36 18.8205 L1124.36 41.5461 L1134.64 41.5461 Q1140.36 41.5461 1143.48 38.5889 Q1146.59 35.6318 1146.59 30.163 Q1146.59 24.7348 1143.48 21.7777 Q1140.36 18.8205 1134.64 18.8205 L1124.36 18.8205 M1116.17 12.096 L1134.64 12.096 Q1144.81 12.096 1150 16.714 Q1155.22 21.2916 1155.22 30.163 Q1155.22 39.1155 1150 43.6931 Q1144.81 48.2706 1134.64 48.2706 L1124.36 48.2706 L1124.36 72.576 L1116.17 72.576 L1116.17 12.096 Z" fill="#000000" fill-rule="nonzero" fill-opacity="1" /><path clip-path="url(#clip070)" d="M1182.77 49.7694 Q1173.74 49.7694 1170.25 51.8354 Q1166.77 53.9013 1166.77 58.8839 Q1166.77 62.8538 1169.36 65.2034 Q1171.99 67.5124 1176.49 67.5124 Q1182.69 67.5124 1186.42 63.1374 Q1190.18 58.7219 1190.18 51.4303 L1190.18 49.7694 L1182.77 49.7694 M1197.64 46.6907 L1197.64 72.576 L1190.18 72.576 L1190.18 65.6895 Q1187.63 69.8214 1183.82 71.8063 Q1180.01 73.7508 1174.51 73.7508 Q1167.54 73.7508 1163.41 69.8619 Q1159.31 65.9325 1159.31 59.3701 Q1159.31 51.7138 1164.42 47.825 Q1169.56 43.9361 1179.73 43.9361 L1190.18 43.9361 L1190.18 43.2069 Q1190.18 38.0623 1186.78 35.2672 Q1183.42 32.4315 1177.3 32.4315 Q1173.41 32.4315 1169.73 33.3632 Q1166.04 34.295 1162.64 36.1584 L1162.64 29.2718 Q1166.73 27.692 1170.58 26.9223 Q1174.42 26.1121 1178.07 26.1121 Q1187.91 26.1121 1192.78 31.2163 Q1197.64 36.3204 1197.64 46.6907 Z" fill="#000000" fill-rule="nonzero" fill-opacity="1" /><path clip-path="url(#clip070)" d="M1239.28 34.1734 Q1238.02 33.4443 1236.52 33.1202 Q1235.07 32.7556 1233.28 32.7556 Q1226.96 32.7556 1223.56 36.8875 Q1220.2 40.9789 1220.2 48.6757 L1220.2 72.576 L1212.71 72.576 L1212.71 27.2059 L1220.2 27.2059 L1220.2 34.2544 Q1222.55 30.1225 1226.32 28.1376 Q1230.08 26.1121 1235.47 26.1121 Q1236.24 26.1121 1237.17 26.2337 Q1238.1 26.3147 1239.24 26.5172 L1239.28 34.1734 Z" fill="#000000" fill-rule="nonzero" fill-opacity="1" /><path clip-path="url(#clip070)" d="M1267.72 49.7694 Q1258.68 49.7694 1255.2 51.8354 Q1251.72 53.9013 1251.72 58.8839 Q1251.72 62.8538 1254.31 65.2034 Q1256.94 67.5124 1261.44 67.5124 Q1267.64 67.5124 1271.36 63.1374 Q1275.13 58.7219 1275.13 51.4303 L1275.13 49.7694 L1267.72 49.7694 M1282.58 46.6907 L1282.58 72.576 L1275.13 72.576 L1275.13 65.6895 Q1272.58 69.8214 1268.77 71.8063 Q1264.96 73.7508 1259.45 73.7508 Q1252.49 73.7508 1248.35 69.8619 Q1244.26 65.9325 1244.26 59.3701 Q1244.26 51.7138 1249.37 47.825 Q1254.51 43.9361 1264.68 43.9361 L1275.13 43.9361 L1275.13 43.2069 Q1275.13 38.0623 1271.73 35.2672 Q1268.36 32.4315 1262.25 32.4315 Q1258.36 32.4315 1254.67 33.3632 Q1250.99 34.295 1247.58 36.1584 L1247.58 29.2718 Q1251.68 27.692 1255.52 26.9223 Q1259.37 26.1121 1263.02 26.1121 Q1272.86 26.1121 1277.72 31.2163 Q1282.58 36.3204 1282.58 46.6907 Z" fill="#000000" fill-rule="nonzero" fill-opacity="1" /><path clip-path="url(#clip070)" d="M1297.94 9.54393 L1305.39 9.54393 L1305.39 72.576 L1297.94 72.576 L1297.94 9.54393 Z" fill="#000000" fill-rule="nonzero" fill-opacity="1" /><path clip-path="url(#clip070)" d="M1320.99 9.54393 L1328.44 9.54393 L1328.44 72.576 L1320.99 72.576 L1320.99 9.54393 Z" fill="#000000" fill-rule="nonzero" fill-opacity="1" /><path clip-path="url(#clip070)" d="M1382.84 48.0275 L1382.84 51.6733 L1348.57 51.6733 Q1349.06 59.3701 1353.19 63.421 Q1357.36 67.4314 1364.78 67.4314 Q1369.07 67.4314 1373.08 66.3781 Q1377.13 65.3249 1381.1 63.2184 L1381.1 70.267 Q1377.09 71.9684 1372.88 72.8596 Q1368.67 73.7508 1364.33 73.7508 Q1353.47 73.7508 1347.11 67.4314 Q1340.8 61.1119 1340.8 50.3365 Q1340.8 39.1965 1346.79 32.6746 Q1352.83 26.1121 1363.03 26.1121 Q1372.19 26.1121 1377.5 32.0264 Q1382.84 37.9003 1382.84 48.0275 M1375.39 45.84 Q1375.31 39.7232 1371.95 36.0774 Q1368.62 32.4315 1363.12 32.4315 Q1356.88 32.4315 1353.11 35.9558 Q1349.38 39.4801 1348.82 45.8805 L1375.39 45.84 Z" fill="#000000" fill-rule="nonzero" fill-opacity="1" /><path clip-path="url(#clip070)" d="M1395.08 9.54393 L1402.53 9.54393 L1402.53 72.576 L1395.08 72.576 L1395.08 9.54393 Z" fill="#000000" fill-rule="nonzero" fill-opacity="1" /><path clip-path="url(#clip070)" d="M1444.82 12.096 L1483.06 12.096 L1483.06 18.9825 L1453.01 18.9825 L1453.01 36.8875 L1481.81 36.8875 L1481.81 43.7741 L1453.01 43.7741 L1453.01 65.6895 L1483.79 65.6895 L1483.79 72.576 L1444.82 72.576 L1444.82 12.096 Z" fill="#000000" fill-rule="nonzero" fill-opacity="1" /><path clip-path="url(#clip070)" d="M1519.89 9.54393 L1519.89 15.7418 L1512.76 15.7418 Q1508.75 15.7418 1507.17 17.3622 Q1505.63 18.9825 1505.63 23.1955 L1505.63 27.2059 L1517.9 27.2059 L1517.9 32.9987 L1505.63 32.9987 L1505.63 72.576 L1498.13 72.576 L1498.13 32.9987 L1491 32.9987 L1491 27.2059 L1498.13 27.2059 L1498.13 24.0462 Q1498.13 16.471 1501.66 13.0277 Q1505.18 9.54393 1512.84 9.54393 L1519.89 9.54393 Z" fill="#000000" fill-rule="nonzero" fill-opacity="1" /><path clip-path="url(#clip070)" d="M1549.09 9.54393 L1549.09 15.7418 L1541.96 15.7418 Q1537.95 15.7418 1536.37 17.3622 Q1534.83 18.9825 1534.83 23.1955 L1534.83 27.2059 L1547.11 27.2059 L1547.11 32.9987 L1534.83 32.9987 L1534.83 72.576 L1527.34 72.576 L1527.34 32.9987 L1520.21 32.9987 L1520.21 27.2059 L1527.34 27.2059 L1527.34 24.0462 Q1527.34 16.471 1530.86 13.0277 Q1534.39 9.54393 1542.04 9.54393 L1549.09 9.54393 Z" fill="#000000" fill-rule="nonzero" fill-opacity="1" /><path clip-path="url(#clip070)" d="M1555.33 27.2059 L1562.78 27.2059 L1562.78 72.576 L1555.33 72.576 L1555.33 27.2059 M1555.33 9.54393 L1562.78 9.54393 L1562.78 18.9825 L1555.33 18.9825 L1555.33 9.54393 Z" fill="#000000" fill-rule="nonzero" fill-opacity="1" /><path clip-path="url(#clip070)" d="M1611.03 28.9478 L1611.03 35.9153 Q1607.87 34.1734 1604.67 33.3227 Q1601.51 32.4315 1598.27 32.4315 Q1591.02 32.4315 1587.01 37.0496 Q1583 41.6271 1583 49.9314 Q1583 58.2358 1587.01 62.8538 Q1591.02 67.4314 1598.27 67.4314 Q1601.51 67.4314 1604.67 66.5807 Q1607.87 65.6895 1611.03 63.9476 L1611.03 70.8341 Q1607.91 72.2924 1604.55 73.0216 Q1601.23 73.7508 1597.46 73.7508 Q1587.21 73.7508 1581.18 67.3098 Q1575.14 60.8689 1575.14 49.9314 Q1575.14 38.832 1581.22 32.472 Q1587.33 26.1121 1597.95 26.1121 Q1601.39 26.1121 1604.67 26.8413 Q1607.95 27.5299 1611.03 28.9478 Z" fill="#000000" fill-rule="nonzero" fill-opacity="1" /><path clip-path="url(#clip070)" d="M1623.99 27.2059 L1631.45 27.2059 L1631.45 72.576 L1623.99 72.576 L1623.99 27.2059 M1623.99 9.54393 L1631.45 9.54393 L1631.45 18.9825 L1623.99 18.9825 L1623.99 9.54393 Z" fill="#000000" fill-rule="nonzero" fill-opacity="1" /><path clip-path="url(#clip070)" d="M1685.85 48.0275 L1685.85 51.6733 L1651.58 51.6733 Q1652.07 59.3701 1656.2 63.421 Q1660.37 67.4314 1667.78 67.4314 Q1672.08 67.4314 1676.09 66.3781 Q1680.14 65.3249 1684.11 63.2184 L1684.11 70.267 Q1680.1 71.9684 1675.89 72.8596 Q1671.67 73.7508 1667.34 73.7508 Q1656.48 73.7508 1650.12 67.4314 Q1643.8 61.1119 1643.8 50.3365 Q1643.8 39.1965 1649.8 32.6746 Q1655.83 26.1121 1666.04 26.1121 Q1675.2 26.1121 1680.5 32.0264 Q1685.85 37.9003 1685.85 48.0275 M1678.4 45.84 Q1678.32 39.7232 1674.95 36.0774 Q1671.63 32.4315 1666.12 32.4315 Q1659.88 32.4315 1656.12 35.9558 Q1652.39 39.4801 1651.82 45.8805 L1678.4 45.84 Z" fill="#000000" fill-rule="nonzero" fill-opacity="1" /><path clip-path="url(#clip070)" d="M1735.8 45.1919 L1735.8 72.576 L1728.35 72.576 L1728.35 45.4349 Q1728.35 38.994 1725.83 35.7938 Q1723.32 32.5936 1718.3 32.5936 Q1712.26 32.5936 1708.78 36.4419 Q1705.3 40.2903 1705.3 46.9338 L1705.3 72.576 L1697.8 72.576 L1697.8 27.2059 L1705.3 27.2059 L1705.3 34.2544 Q1707.97 30.163 1711.57 28.1376 Q1715.22 26.1121 1719.96 26.1121 Q1727.78 26.1121 1731.79 30.9732 Q1735.8 35.7938 1735.8 45.1919 Z" fill="#000000" fill-rule="nonzero" fill-opacity="1" /><path clip-path="url(#clip070)" d="M1783.32 28.9478 L1783.32 35.9153 Q1780.16 34.1734 1776.96 33.3227 Q1773.8 32.4315 1770.56 32.4315 Q1763.3 32.4315 1759.29 37.0496 Q1755.28 41.6271 1755.28 49.9314 Q1755.28 58.2358 1759.29 62.8538 Q1763.3 67.4314 1770.56 67.4314 Q1773.8 67.4314 1776.96 66.5807 Q1780.16 65.6895 1783.32 63.9476 L1783.32 70.8341 Q1780.2 72.2924 1776.83 73.0216 Q1773.51 73.7508 1769.75 73.7508 Q1759.5 73.7508 1753.46 67.3098 Q1747.42 60.8689 1747.42 49.9314 Q1747.42 38.832 1753.5 32.472 Q1759.62 26.1121 1770.23 26.1121 Q1773.67 26.1121 1776.96 26.8413 Q1780.24 27.5299 1783.32 28.9478 Z" fill="#000000" fill-rule="nonzero" fill-opacity="1" /><path clip-path="url(#clip070)" d="M1815.16 76.7889 Q1812 84.8907 1809 87.3618 Q1806 89.8329 1800.98 89.8329 L1795.02 89.8329 L1795.02 83.5945 L1799.4 83.5945 Q1802.48 83.5945 1804.18 82.1361 Q1805.88 80.6778 1807.95 75.2496 L1809.28 71.8468 L1790.93 27.2059 L1798.83 27.2059 L1813.01 62.6918 L1827.19 27.2059 L1835.09 27.2059 L1815.16 76.7889 Z" fill="#000000" fill-rule="nonzero" fill-opacity="1" /><path clip-path="url(#clip070)" d="M1866.4 27.2059 L1874.3 27.2059 L1888.48 65.2844 L1902.66 27.2059 L1910.55 27.2059 L1893.54 72.576 L1883.41 72.576 L1866.4 27.2059 Z" fill="#000000" fill-rule="nonzero" fill-opacity="1" /><path clip-path="url(#clip070)" d="M1949.77 28.5427 L1949.77 35.5912 Q1946.61 33.9709 1943.21 33.1607 Q1939.8 32.3505 1936.16 32.3505 Q1930.61 32.3505 1927.81 34.0519 Q1925.06 35.7533 1925.06 39.156 Q1925.06 41.7486 1927.04 43.2475 Q1929.03 44.7058 1935.02 46.0426 L1937.57 46.6097 Q1945.51 48.3111 1948.84 51.4303 Q1952.2 54.509 1952.2 60.0587 Q1952.2 66.3781 1947.18 70.0644 Q1942.19 73.7508 1933.44 73.7508 Q1929.8 73.7508 1925.83 73.0216 Q1921.9 72.3329 1917.52 70.9151 L1917.52 63.2184 Q1921.65 65.3654 1925.66 66.4591 Q1929.68 67.5124 1933.6 67.5124 Q1938.87 67.5124 1941.71 65.73 Q1944.54 63.9071 1944.54 60.6258 Q1944.54 57.5877 1942.48 55.9673 Q1940.45 54.3469 1933.52 52.8481 L1930.93 52.2405 Q1924 50.7821 1920.93 47.7845 Q1917.85 44.7463 1917.85 39.4801 Q1917.85 33.0797 1922.38 29.5959 Q1926.92 26.1121 1935.27 26.1121 Q1939.4 26.1121 1943.04 26.7198 Q1946.69 27.3274 1949.77 28.5427 Z" fill="#000000" fill-rule="nonzero" fill-opacity="1" /><path clip-path="url(#clip070)" d="M1982.38 12.096 L2033.54 12.096 L2033.54 18.9825 L2012.07 18.9825 L2012.07 72.576 L2003.85 72.576 L2003.85 18.9825 L1982.38 18.9825 L1982.38 12.096 Z" fill="#000000" fill-rule="nonzero" fill-opacity="1" /><path clip-path="url(#clip070)" d="M2078.83 45.1919 L2078.83 72.576 L2071.38 72.576 L2071.38 45.4349 Q2071.38 38.994 2068.86 35.7938 Q2066.35 32.5936 2061.33 32.5936 Q2055.29 32.5936 2051.81 36.4419 Q2048.33 40.2903 2048.33 46.9338 L2048.33 72.576 L2040.83 72.576 L2040.83 9.54393 L2048.33 9.54393 L2048.33 34.2544 Q2051 30.163 2054.6 28.1376 Q2058.25 26.1121 2062.99 26.1121 Q2070.81 26.1121 2074.82 30.9732 Q2078.83 35.7938 2078.83 45.1919 Z" fill="#000000" fill-rule="nonzero" fill-opacity="1" /><path clip-path="url(#clip070)" d="M2119.99 34.1734 Q2118.73 33.4443 2117.23 33.1202 Q2115.77 32.7556 2113.99 32.7556 Q2107.67 32.7556 2104.27 36.8875 Q2100.91 40.9789 2100.91 48.6757 L2100.91 72.576 L2093.41 72.576 L2093.41 27.2059 L2100.91 27.2059 L2100.91 34.2544 Q2103.26 30.1225 2107.02 28.1376 Q2110.79 26.1121 2116.18 26.1121 Q2116.95 26.1121 2117.88 26.2337 Q2118.81 26.3147 2119.95 26.5172 L2119.99 34.1734 Z" fill="#000000" fill-rule="nonzero" fill-opacity="1" /><path clip-path="url(#clip070)" d="M2164.79 48.0275 L2164.79 51.6733 L2130.52 51.6733 Q2131.01 59.3701 2135.14 63.421 Q2139.31 67.4314 2146.72 67.4314 Q2151.02 67.4314 2155.03 66.3781 Q2159.08 65.3249 2163.05 63.2184 L2163.05 70.267 Q2159.04 71.9684 2154.82 72.8596 Q2150.61 73.7508 2146.28 73.7508 Q2135.42 73.7508 2129.06 67.4314 Q2122.74 61.1119 2122.74 50.3365 Q2122.74 39.1965 2128.74 32.6746 Q2134.77 26.1121 2144.98 26.1121 Q2154.14 26.1121 2159.44 32.0264 Q2164.79 37.9003 2164.79 48.0275 M2157.34 45.84 Q2157.25 39.7232 2153.89 36.0774 Q2150.57 32.4315 2145.06 32.4315 Q2138.82 32.4315 2135.06 35.9558 Q2131.33 39.4801 2130.76 45.8805 L2157.34 45.84 Z" fill="#000000" fill-rule="nonzero" fill-opacity="1" /><path clip-path="url(#clip070)" d="M2197.64 49.7694 Q2188.61 49.7694 2185.13 51.8354 Q2181.64 53.9013 2181.64 58.8839 Q2181.64 62.8538 2184.23 65.2034 Q2186.87 67.5124 2191.36 67.5124 Q2197.56 67.5124 2201.29 63.1374 Q2205.06 58.7219 2205.06 51.4303 L2205.06 49.7694 L2197.64 49.7694 M2212.51 46.6907 L2212.51 72.576 L2205.06 72.576 L2205.06 65.6895 Q2202.5 69.8214 2198.7 71.8063 Q2194.89 73.7508 2189.38 73.7508 Q2182.41 73.7508 2178.28 69.8619 Q2174.19 65.9325 2174.19 59.3701 Q2174.19 51.7138 2179.29 47.825 Q2184.44 43.9361 2194.6 43.9361 L2205.06 43.9361 L2205.06 43.2069 Q2205.06 38.0623 2201.65 35.2672 Q2198.29 32.4315 2192.17 32.4315 Q2188.28 32.4315 2184.6 33.3632 Q2180.91 34.295 2177.51 36.1584 L2177.51 29.2718 Q2181.6 27.692 2185.45 26.9223 Q2189.3 26.1121 2192.94 26.1121 Q2202.79 26.1121 2207.65 31.2163 Q2212.51 36.3204 2212.51 46.6907 Z" fill="#000000" fill-rule="nonzero" fill-opacity="1" /><path clip-path="url(#clip070)" d="M2257.72 34.0924 L2257.72 9.54393 L2265.17 9.54393 L2265.17 72.576 L2257.72 72.576 L2257.72 65.7705 Q2255.37 69.8214 2251.76 71.8063 Q2248.2 73.7508 2243.17 73.7508 Q2234.95 73.7508 2229.77 67.1883 Q2224.62 60.6258 2224.62 49.9314 Q2224.62 39.2371 2229.77 32.6746 Q2234.95 26.1121 2243.17 26.1121 Q2248.2 26.1121 2251.76 28.0971 Q2255.37 30.0415 2257.72 34.0924 M2232.32 49.9314 Q2232.32 58.1548 2235.68 62.8538 Q2239.08 67.5124 2245 67.5124 Q2250.91 67.5124 2254.31 62.8538 Q2257.72 58.1548 2257.72 49.9314 Q2257.72 41.7081 2254.31 37.0496 Q2250.91 32.3505 2245 32.3505 Q2239.08 32.3505 2235.68 37.0496 Q2232.32 41.7081 2232.32 49.9314 Z" fill="#000000" fill-rule="nonzero" fill-opacity="1" /><path clip-path="url(#clip070)" d="M2352.51 16.7545 L2352.51 25.383 Q2348.38 21.5346 2343.68 19.6307 Q2339.02 17.7268 2333.75 17.7268 Q2323.38 17.7268 2317.87 24.0867 Q2312.36 30.4061 2312.36 42.3968 Q2312.36 54.3469 2317.87 60.7069 Q2323.38 67.0263 2333.75 67.0263 Q2339.02 67.0263 2343.68 65.1223 Q2348.38 63.2184 2352.51 59.3701 L2352.51 67.9175 Q2348.21 70.8341 2343.39 72.2924 Q2338.61 73.7508 2333.27 73.7508 Q2319.53 73.7508 2311.63 65.3654 Q2303.74 56.9395 2303.74 42.3968 Q2303.74 27.8135 2311.63 19.4281 Q2319.53 11.0023 2333.27 11.0023 Q2338.69 11.0023 2343.47 12.4606 Q2348.3 13.8784 2352.51 16.7545 Z" fill="#000000" fill-rule="nonzero" fill-opacity="1" /><path clip-path="url(#clip070)" d="M2382.4 32.4315 Q2376.41 32.4315 2372.93 37.1306 Q2369.44 41.7891 2369.44 49.9314 Q2369.44 58.0738 2372.88 62.7728 Q2376.37 67.4314 2382.4 67.4314 Q2388.36 67.4314 2391.84 62.7323 Q2395.33 58.0333 2395.33 49.9314 Q2395.33 41.8701 2391.84 37.1711 Q2388.36 32.4315 2382.4 32.4315 M2382.4 26.1121 Q2392.13 26.1121 2397.68 32.4315 Q2403.23 38.7509 2403.23 49.9314 Q2403.23 61.0714 2397.68 67.4314 Q2392.13 73.7508 2382.4 73.7508 Q2372.64 73.7508 2367.09 67.4314 Q2361.58 61.0714 2361.58 49.9314 Q2361.58 38.7509 2367.09 32.4315 Q2372.64 26.1121 2382.4 26.1121 Z" fill="#000000" fill-rule="nonzero" fill-opacity="1" /><path clip-path="url(#clip070)" d="M2414.81 54.671 L2414.81 27.2059 L2422.27 27.2059 L2422.27 54.3874 Q2422.27 60.8284 2424.78 64.0691 Q2427.29 67.2693 2432.31 67.2693 Q2438.35 67.2693 2441.83 63.421 Q2445.36 59.5726 2445.36 52.9291 L2445.36 27.2059 L2452.81 27.2059 L2452.81 72.576 L2445.36 72.576 L2445.36 65.6084 Q2442.64 69.7404 2439.04 71.7658 Q2435.47 73.7508 2430.73 73.7508 Q2422.91 73.7508 2418.86 68.8897 Q2414.81 64.0286 2414.81 54.671 M2433.57 26.1121 L2433.57 26.1121 Z" fill="#000000" fill-rule="nonzero" fill-opacity="1" /><path clip-path="url(#clip070)" d="M2505.88 45.1919 L2505.88 72.576 L2498.42 72.576 L2498.42 45.4349 Q2498.42 38.994 2495.91 35.7938 Q2493.4 32.5936 2488.38 32.5936 Q2482.34 32.5936 2478.86 36.4419 Q2475.37 40.2903 2475.37 46.9338 L2475.37 72.576 L2467.88 72.576 L2467.88 27.2059 L2475.37 27.2059 L2475.37 34.2544 Q2478.05 30.163 2481.65 28.1376 Q2485.3 26.1121 2490.04 26.1121 Q2497.85 26.1121 2501.87 30.9732 Q2505.88 35.7938 2505.88 45.1919 Z" fill="#000000" fill-rule="nonzero" fill-opacity="1" /><path clip-path="url(#clip070)" d="M2528.12 14.324 L2528.12 27.2059 L2543.47 27.2059 L2543.47 32.9987 L2528.12 32.9987 L2528.12 57.6282 Q2528.12 63.1779 2529.61 64.7578 Q2531.15 66.3376 2535.81 66.3376 L2543.47 66.3376 L2543.47 72.576 L2535.81 72.576 Q2527.18 72.576 2523.9 69.3758 Q2520.62 66.1351 2520.62 57.6282 L2520.62 32.9987 L2515.15 32.9987 L2515.15 27.2059 L2520.62 27.2059 L2520.62 14.324 L2528.12 14.324 Z" fill="#000000" fill-rule="nonzero" fill-opacity="1" /><polyline clip-path="url(#clip072)" style="stroke:#8c8c8c; stroke-linecap:round; stroke-linejoin:round; stroke-width:4; stroke-opacity:1; fill:none" stroke-dasharray="16, 10" points="-2738.99,1306.05 6398.63,1306.05 "/>
<polyline clip-path="url(#clip072)" style="stroke:#8c8c8c; stroke-linecap:round; stroke-linejoin:round; stroke-width:8; stroke-opacity:1; fill:none" stroke-dasharray="4, 8" points="2548.19,3854.5 2548.19,-1744.71 "/>
<polyline clip-path="url(#clip072)" style="stroke:#0072b2; stroke-linecap:round; stroke-linejoin:round; stroke-width:8; stroke-opacity:1; fill:none" points="393.089,1306.05 1111.45,1302.29 1531.67,1348.69 1829.82,1367.62 2250.04,1470.23 2548.19,1542.67 2968.4,1764.66 3266.55,1885.87 "/>
<circle clip-path="url(#clip072)" cx="393.089" cy="1306.05" r="14.4" fill="#0072b2" fill-rule="evenodd" fill-opacity="1" stroke="#000000" stroke-opacity="1" stroke-width="4.4"/>
<circle clip-path="url(#clip072)" cx="1111.45" cy="1302.29" r="14.4" fill="#0072b2" fill-rule="evenodd" fill-opacity="1" stroke="#000000" stroke-opacity="1" stroke-width="4.4"/>
<circle clip-path="url(#clip072)" cx="1531.67" cy="1348.69" r="14.4" fill="#0072b2" fill-rule="evenodd" fill-opacity="1" stroke="#000000" stroke-opacity="1" stroke-width="4.4"/>
<circle clip-path="url(#clip072)" cx="1829.82" cy="1367.62" r="14.4" fill="#0072b2" fill-rule="evenodd" fill-opacity="1" stroke="#000000" stroke-opacity="1" stroke-width="4.4"/>
<circle clip-path="url(#clip072)" cx="2250.04" cy="1470.23" r="14.4" fill="#0072b2" fill-rule="evenodd" fill-opacity="1" stroke="#000000" stroke-opacity="1" stroke-width="4.4"/>
<circle clip-path="url(#clip072)" cx="2548.19" cy="1542.67" r="14.4" fill="#0072b2" fill-rule="evenodd" fill-opacity="1" stroke="#000000" stroke-opacity="1" stroke-width="4.4"/>
<circle clip-path="url(#clip072)" cx="2968.4" cy="1764.66" r="14.4" fill="#0072b2" fill-rule="evenodd" fill-opacity="1" stroke="#000000" stroke-opacity="1" stroke-width="4.4"/>
<circle clip-path="url(#clip072)" cx="3266.55" cy="1885.87" r="14.4" fill="#0072b2" fill-rule="evenodd" fill-opacity="1" stroke="#000000" stroke-opacity="1" stroke-width="4.4"/>
<polyline clip-path="url(#clip072)" style="stroke:#d55e00; stroke-linecap:round; stroke-linejoin:round; stroke-width:8; stroke-opacity:1; fill:none" points="393.089,1306.05 1111.45,1363.2 1531.67,1401.91 1829.82,1802 2250.04,1935.28 2548.19,1187.65 2968.4,1064.03 3266.55,1183.96 "/>
<circle clip-path="url(#clip072)" cx="393.089" cy="1306.05" r="14.4" fill="#d55e00" fill-rule="evenodd" fill-opacity="1" stroke="#000000" stroke-opacity="1" stroke-width="4.4"/>
<circle clip-path="url(#clip072)" cx="1111.45" cy="1363.2" r="14.4" fill="#d55e00" fill-rule="evenodd" fill-opacity="1" stroke="#000000" stroke-opacity="1" stroke-width="4.4"/>
<circle clip-path="url(#clip072)" cx="1531.67" cy="1401.91" r="14.4" fill="#d55e00" fill-rule="evenodd" fill-opacity="1" stroke="#000000" stroke-opacity="1" stroke-width="4.4"/>
<circle clip-path="url(#clip072)" cx="1829.82" cy="1802" r="14.4" fill="#d55e00" fill-rule="evenodd" fill-opacity="1" stroke="#000000" stroke-opacity="1" stroke-width="4.4"/>
<circle clip-path="url(#clip072)" cx="2250.04" cy="1935.28" r="14.4" fill="#d55e00" fill-rule="evenodd" fill-opacity="1" stroke="#000000" stroke-opacity="1" stroke-width="4.4"/>
<circle clip-path="url(#clip072)" cx="2548.19" cy="1187.65" r="14.4" fill="#d55e00" fill-rule="evenodd" fill-opacity="1" stroke="#000000" stroke-opacity="1" stroke-width="4.4"/>
<circle clip-path="url(#clip072)" cx="2968.4" cy="1064.03" r="14.4" fill="#d55e00" fill-rule="evenodd" fill-opacity="1" stroke="#000000" stroke-opacity="1" stroke-width="4.4"/>
<circle clip-path="url(#clip072)" cx="3266.55" cy="1183.96" r="14.4" fill="#d55e00" fill-rule="evenodd" fill-opacity="1" stroke="#000000" stroke-opacity="1" stroke-width="4.4"/>
<path clip-path="url(#clip070)" d="M408.414 1925.88 L1445.94 1925.88 L1445.94 1666.68 L408.414 1666.68  Z" fill="#ffffff" fill-rule="evenodd" fill-opacity="1"/>
<polyline clip-path="url(#clip070)" style="stroke:#000000; stroke-linecap:round; stroke-linejoin:round; stroke-width:4; stroke-opacity:1; fill:none" points="408.414,1925.88 1445.94,1925.88 1445.94,1666.68 408.414,1666.68 408.414,1925.88 "/>
<polyline clip-path="url(#clip070)" style="stroke:#8c8c8c; stroke-linecap:round; stroke-linejoin:round; stroke-width:4; stroke-opacity:1; fill:none" stroke-dasharray="16, 10" points="442.257,1718.52 645.315,1718.52 "/>
<path clip-path="url(#clip070)" d="M679.158 1709.88 L683.417 1709.88 L683.417 1735.8 L679.158 1735.8 L679.158 1709.88 M679.158 1699.79 L683.417 1699.79 L683.417 1705.18 L679.158 1705.18 L679.158 1699.79 Z" fill="#000000" fill-rule="nonzero" fill-opacity="1" /><path clip-path="url(#clip070)" d="M709.389 1713.81 L709.389 1699.79 L713.648 1699.79 L713.648 1735.8 L709.389 1735.8 L709.389 1731.92 Q708.047 1734.23 705.986 1735.36 Q703.949 1736.48 701.079 1736.48 Q696.38 1736.48 693.417 1732.73 Q690.477 1728.98 690.477 1722.86 Q690.477 1716.75 693.417 1713 Q696.38 1709.25 701.079 1709.25 Q703.949 1709.25 705.986 1710.39 Q708.047 1711.5 709.389 1713.81 M694.875 1722.86 Q694.875 1727.56 696.797 1730.25 Q698.741 1732.91 702.121 1732.91 Q705.5 1732.91 707.445 1730.25 Q709.389 1727.56 709.389 1722.86 Q709.389 1718.17 707.445 1715.5 Q705.5 1712.82 702.121 1712.82 Q698.741 1712.82 696.797 1715.5 Q694.875 1718.17 694.875 1722.86 Z" fill="#000000" fill-rule="nonzero" fill-opacity="1" /><path clip-path="url(#clip070)" d="M744.597 1721.78 L744.597 1723.86 L725.014 1723.86 Q725.292 1728.26 727.653 1730.57 Q730.037 1732.86 734.273 1732.86 Q736.727 1732.86 739.019 1732.26 Q741.333 1731.66 743.602 1730.46 L743.602 1734.48 Q741.31 1735.46 738.903 1735.97 Q736.496 1736.48 734.019 1736.48 Q727.815 1736.48 724.181 1732.86 Q720.57 1729.25 720.57 1723.1 Q720.57 1716.73 723.996 1713 Q727.445 1709.25 733.278 1709.25 Q738.509 1709.25 741.542 1712.63 Q744.597 1715.99 744.597 1721.78 M740.338 1720.53 Q740.292 1717.03 738.37 1714.95 Q736.472 1712.86 733.324 1712.86 Q729.759 1712.86 727.607 1714.88 Q725.477 1716.89 725.153 1720.55 L740.338 1720.53 Z" fill="#000000" fill-rule="nonzero" fill-opacity="1" /><path clip-path="url(#clip070)" d="M763.37 1722.77 Q758.208 1722.77 756.218 1723.95 Q754.227 1725.13 754.227 1727.98 Q754.227 1730.25 755.708 1731.59 Q757.213 1732.91 759.782 1732.91 Q763.324 1732.91 765.454 1730.41 Q767.606 1727.89 767.606 1723.72 L767.606 1722.77 L763.37 1722.77 M771.866 1721.01 L771.866 1735.8 L767.606 1735.8 L767.606 1731.87 Q766.148 1734.23 763.972 1735.36 Q761.796 1736.48 758.648 1736.48 Q754.667 1736.48 752.306 1734.25 Q749.968 1732.01 749.968 1728.26 Q749.968 1723.88 752.884 1721.66 Q755.824 1719.44 761.634 1719.44 L767.606 1719.44 L767.606 1719.02 Q767.606 1716.08 765.662 1714.49 Q763.741 1712.86 760.245 1712.86 Q758.023 1712.86 755.917 1713.4 Q753.81 1713.93 751.866 1714.99 L751.866 1711.06 Q754.204 1710.16 756.403 1709.72 Q758.602 1709.25 760.685 1709.25 Q766.31 1709.25 769.088 1712.17 Q771.866 1715.09 771.866 1721.01 Z" fill="#000000" fill-rule="nonzero" fill-opacity="1" /><path clip-path="url(#clip070)" d="M780.639 1699.79 L784.898 1699.79 L784.898 1735.8 L780.639 1735.8 L780.639 1699.79 Z" fill="#000000" fill-rule="nonzero" fill-opacity="1" /><path clip-path="url(#clip070)" d="M819.111 1699.83 Q816.009 1705.16 814.504 1710.36 Q813 1715.57 813 1720.92 Q813 1726.27 814.504 1731.52 Q816.032 1736.75 819.111 1742.05 L815.407 1742.05 Q811.935 1736.61 810.199 1731.36 Q808.486 1726.11 808.486 1720.92 Q808.486 1715.76 810.199 1710.53 Q811.912 1705.3 815.407 1699.83 L819.111 1699.83 Z" fill="#000000" fill-rule="nonzero" fill-opacity="1" /><path clip-path="url(#clip070)" d="M827.56 1701.24 L849.412 1701.24 L849.412 1705.18 L832.236 1705.18 L832.236 1715.41 L848.694 1715.41 L848.694 1719.35 L832.236 1719.35 L832.236 1731.87 L849.828 1731.87 L849.828 1735.8 L827.56 1735.8 L827.56 1701.24 Z" fill="#000000" fill-rule="nonzero" fill-opacity="1" /><path clip-path="url(#clip070)" d="M857.884 1714.28 L887.56 1714.28 L887.56 1718.17 L857.884 1718.17 L857.884 1714.28 M857.884 1723.72 L887.56 1723.72 L887.56 1727.66 L857.884 1727.66 L857.884 1723.72 Z" fill="#000000" fill-rule="nonzero" fill-opacity="1" /><path clip-path="url(#clip070)" d="M898.462 1731.87 L906.101 1731.87 L906.101 1705.5 L897.791 1707.17 L897.791 1702.91 L906.055 1701.24 L910.731 1701.24 L910.731 1731.87 L918.37 1731.87 L918.37 1735.8 L898.462 1735.8 L898.462 1731.87 Z" fill="#000000" fill-rule="nonzero" fill-opacity="1" /><path clip-path="url(#clip070)" d="M926.541 1699.83 L930.244 1699.83 Q933.717 1705.3 935.43 1710.53 Q937.166 1715.76 937.166 1720.92 Q937.166 1726.11 935.43 1731.36 Q933.717 1736.61 930.244 1742.05 L926.541 1742.05 Q929.619 1736.75 931.124 1731.52 Q932.652 1726.27 932.652 1720.92 Q932.652 1715.57 931.124 1710.36 Q929.619 1705.16 926.541 1699.83 Z" fill="#000000" fill-rule="nonzero" fill-opacity="1" /><polyline clip-path="url(#clip070)" style="stroke:#8c8c8c; stroke-linecap:round; stroke-linejoin:round; stroke-width:8; stroke-opacity:1; fill:none" stroke-dasharray="4, 8" points="442.257,1770.36 645.315,1770.36 "/>
<path clip-path="url(#clip070)" d="M683.44 1783.76 L683.44 1797.51 L679.158 1797.51 L679.158 1761.72 L683.44 1761.72 L683.44 1765.65 Q684.783 1763.34 686.82 1762.23 Q688.88 1761.09 691.727 1761.09 Q696.449 1761.09 699.389 1764.84 Q702.352 1768.59 702.352 1774.7 Q702.352 1780.82 699.389 1784.57 Q696.449 1788.32 691.727 1788.32 Q688.88 1788.32 686.82 1787.2 Q684.783 1786.07 683.44 1783.76 M697.931 1774.7 Q697.931 1770.01 695.986 1767.34 Q694.065 1764.66 690.686 1764.66 Q687.306 1764.66 685.362 1767.34 Q683.44 1770.01 683.44 1774.7 Q683.44 1779.4 685.362 1782.09 Q687.306 1784.75 690.686 1784.75 Q694.065 1784.75 695.986 1782.09 Q697.931 1779.4 697.931 1774.7 Z" fill="#000000" fill-rule="nonzero" fill-opacity="1" /><path clip-path="url(#clip070)" d="M730.963 1772 L730.963 1787.64 L726.704 1787.64 L726.704 1772.14 Q726.704 1768.45 725.269 1766.63 Q723.834 1764.8 720.963 1764.8 Q717.514 1764.8 715.523 1767 Q713.533 1769.2 713.533 1772.99 L713.533 1787.64 L709.25 1787.64 L709.25 1751.63 L713.533 1751.63 L713.533 1765.75 Q715.06 1763.41 717.121 1762.25 Q719.204 1761.09 721.912 1761.09 Q726.38 1761.09 728.671 1763.87 Q730.963 1766.63 730.963 1772 Z" fill="#000000" fill-rule="nonzero" fill-opacity="1" /><path clip-path="url(#clip070)" d="M750.245 1790.05 Q748.44 1794.68 746.727 1796.09 Q745.014 1797.51 742.144 1797.51 L738.741 1797.51 L738.741 1793.94 L741.241 1793.94 Q743 1793.94 743.972 1793.11 Q744.945 1792.27 746.125 1789.17 L746.889 1787.23 L736.403 1761.72 L740.917 1761.72 L749.019 1782 L757.12 1761.72 L761.634 1761.72 L750.245 1790.05 Z" fill="#000000" fill-rule="nonzero" fill-opacity="1" /><path clip-path="url(#clip070)" d="M784.042 1762.48 L784.042 1766.51 Q782.236 1765.58 780.292 1765.12 Q778.347 1764.66 776.264 1764.66 Q773.093 1764.66 771.495 1765.63 Q769.921 1766.6 769.921 1768.55 Q769.921 1770.03 771.056 1770.89 Q772.19 1771.72 775.616 1772.48 L777.074 1772.81 Q781.611 1773.78 783.509 1775.56 Q785.43 1777.32 785.43 1780.49 Q785.43 1784.1 782.56 1786.21 Q779.713 1788.32 774.713 1788.32 Q772.63 1788.32 770.361 1787.9 Q768.116 1787.51 765.616 1786.7 L765.616 1782.3 Q767.977 1783.52 770.268 1784.15 Q772.56 1784.75 774.805 1784.75 Q777.815 1784.75 779.435 1783.73 Q781.055 1782.69 781.055 1780.82 Q781.055 1779.08 779.875 1778.15 Q778.718 1777.23 774.759 1776.37 L773.278 1776.02 Q769.319 1775.19 767.56 1773.48 Q765.801 1771.74 765.801 1768.73 Q765.801 1765.08 768.393 1763.08 Q770.986 1761.09 775.755 1761.09 Q778.116 1761.09 780.199 1761.44 Q782.282 1761.79 784.042 1762.48 Z" fill="#000000" fill-rule="nonzero" fill-opacity="1" /><path clip-path="url(#clip070)" d="M792.213 1761.72 L796.472 1761.72 L796.472 1787.64 L792.213 1787.64 L792.213 1761.72 M792.213 1751.63 L796.472 1751.63 L796.472 1757.02 L792.213 1757.02 L792.213 1751.63 Z" fill="#000000" fill-rule="nonzero" fill-opacity="1" /><path clip-path="url(#clip070)" d="M824.041 1762.71 L824.041 1766.7 Q822.236 1765.7 820.407 1765.21 Q818.602 1764.7 816.75 1764.7 Q812.606 1764.7 810.315 1767.34 Q808.023 1769.96 808.023 1774.7 Q808.023 1779.45 810.315 1782.09 Q812.606 1784.7 816.75 1784.7 Q818.602 1784.7 820.407 1784.22 Q822.236 1783.71 824.041 1782.71 L824.041 1786.65 Q822.259 1787.48 820.338 1787.9 Q818.44 1788.32 816.287 1788.32 Q810.43 1788.32 806.981 1784.64 Q803.532 1780.95 803.532 1774.7 Q803.532 1768.36 807.004 1764.73 Q810.5 1761.09 816.565 1761.09 Q818.532 1761.09 820.407 1761.51 Q822.282 1761.9 824.041 1762.71 Z" fill="#000000" fill-rule="nonzero" fill-opacity="1" /><path clip-path="url(#clip070)" d="M843.231 1774.61 Q838.069 1774.61 836.078 1775.79 Q834.088 1776.97 834.088 1779.82 Q834.088 1782.09 835.569 1783.43 Q837.074 1784.75 839.643 1784.75 Q843.185 1784.75 845.314 1782.25 Q847.467 1779.73 847.467 1775.56 L847.467 1774.61 L843.231 1774.61 M851.726 1772.85 L851.726 1787.64 L847.467 1787.64 L847.467 1783.71 Q846.009 1786.07 843.833 1787.2 Q841.657 1788.32 838.509 1788.32 Q834.527 1788.32 832.166 1786.09 Q829.828 1783.85 829.828 1780.1 Q829.828 1775.72 832.745 1773.5 Q835.685 1771.28 841.495 1771.28 L847.467 1771.28 L847.467 1770.86 Q847.467 1767.92 845.523 1766.33 Q843.601 1764.7 840.106 1764.7 Q837.884 1764.7 835.777 1765.24 Q833.671 1765.77 831.726 1766.83 L831.726 1762.9 Q834.064 1762 836.263 1761.56 Q838.463 1761.09 840.546 1761.09 Q846.171 1761.09 848.949 1764.01 Q851.726 1766.93 851.726 1772.85 Z" fill="#000000" fill-rule="nonzero" fill-opacity="1" /><path clip-path="url(#clip070)" d="M860.499 1751.63 L864.759 1751.63 L864.759 1787.64 L860.499 1787.64 L860.499 1751.63 Z" fill="#000000" fill-rule="nonzero" fill-opacity="1" /><path clip-path="url(#clip070)" d="M907.397 1762.71 L907.397 1766.7 Q905.592 1765.7 903.763 1765.21 Q901.958 1764.7 900.106 1764.7 Q895.962 1764.7 893.671 1767.34 Q891.379 1769.96 891.379 1774.7 Q891.379 1779.45 893.671 1782.09 Q895.962 1784.7 900.106 1784.7 Q901.958 1784.7 903.763 1784.22 Q905.592 1783.71 907.397 1782.71 L907.397 1786.65 Q905.615 1787.48 903.694 1787.9 Q901.796 1788.32 899.643 1788.32 Q893.786 1788.32 890.337 1784.64 Q886.888 1780.95 886.888 1774.7 Q886.888 1768.36 890.36 1764.73 Q893.856 1761.09 899.921 1761.09 Q901.888 1761.09 903.763 1761.51 Q905.638 1761.9 907.397 1762.71 Z" fill="#000000" fill-rule="nonzero" fill-opacity="1" /><path clip-path="url(#clip070)" d="M924.851 1764.7 Q921.425 1764.7 919.434 1767.39 Q917.444 1770.05 917.444 1774.7 Q917.444 1779.36 919.411 1782.04 Q921.402 1784.7 924.851 1784.7 Q928.254 1784.7 930.244 1782.02 Q932.235 1779.33 932.235 1774.7 Q932.235 1770.1 930.244 1767.41 Q928.254 1764.7 924.851 1764.7 M924.851 1761.09 Q930.407 1761.09 933.578 1764.7 Q936.749 1768.32 936.749 1774.7 Q936.749 1781.07 933.578 1784.7 Q930.407 1788.32 924.851 1788.32 Q919.272 1788.32 916.101 1784.7 Q912.953 1781.07 912.953 1774.7 Q912.953 1768.32 916.101 1764.7 Q919.272 1761.09 924.851 1761.09 Z" fill="#000000" fill-rule="nonzero" fill-opacity="1" /><path clip-path="url(#clip070)" d="M958.832 1765.7 Q958.115 1765.28 957.258 1765.1 Q956.425 1764.89 955.406 1764.89 Q951.795 1764.89 949.851 1767.25 Q947.93 1769.59 947.93 1773.99 L947.93 1787.64 L943.647 1787.64 L943.647 1761.72 L947.93 1761.72 L947.93 1765.75 Q949.272 1763.39 951.425 1762.25 Q953.578 1761.09 956.656 1761.09 Q957.096 1761.09 957.629 1761.16 Q958.161 1761.21 958.809 1761.33 L958.832 1765.7 Z" fill="#000000" fill-rule="nonzero" fill-opacity="1" /><path clip-path="url(#clip070)" d="M984.434 1773.62 L984.434 1775.7 L964.851 1775.7 Q965.129 1780.1 967.49 1782.41 Q969.874 1784.7 974.11 1784.7 Q976.564 1784.7 978.855 1784.1 Q981.17 1783.5 983.439 1782.3 L983.439 1786.32 Q981.147 1787.3 978.74 1787.81 Q976.332 1788.32 973.855 1788.32 Q967.652 1788.32 964.017 1784.7 Q960.406 1781.09 960.406 1774.94 Q960.406 1768.57 963.832 1764.84 Q967.281 1761.09 973.115 1761.09 Q978.346 1761.09 981.378 1764.47 Q984.434 1767.83 984.434 1773.62 M980.175 1772.37 Q980.128 1768.87 978.207 1766.79 Q976.309 1764.7 973.161 1764.7 Q969.596 1764.7 967.443 1766.72 Q965.314 1768.73 964.99 1772.39 L980.175 1772.37 Z" fill="#000000" fill-rule="nonzero" fill-opacity="1" /><path clip-path="url(#clip070)" d="M1007.95 1762.48 L1007.95 1766.51 Q1006.15 1765.58 1004.2 1765.12 Q1002.26 1764.66 1000.17 1764.66 Q997.003 1764.66 995.406 1765.63 Q993.832 1766.6 993.832 1768.55 Q993.832 1770.03 994.966 1770.89 Q996.101 1771.72 999.527 1772.48 L1000.98 1772.81 Q1005.52 1773.78 1007.42 1775.56 Q1009.34 1777.32 1009.34 1780.49 Q1009.34 1784.1 1006.47 1786.21 Q1003.62 1788.32 998.624 1788.32 Q996.54 1788.32 994.272 1787.9 Q992.027 1787.51 989.527 1786.7 L989.527 1782.3 Q991.888 1783.52 994.179 1784.15 Q996.471 1784.75 998.716 1784.75 Q1001.73 1784.75 1003.35 1783.73 Q1004.97 1782.69 1004.97 1780.82 Q1004.97 1779.08 1003.79 1778.15 Q1002.63 1777.23 998.67 1776.37 L997.189 1776.02 Q993.23 1775.19 991.471 1773.48 Q989.712 1771.74 989.712 1768.73 Q989.712 1765.08 992.304 1763.08 Q994.897 1761.09 999.665 1761.09 Q1002.03 1761.09 1004.11 1761.44 Q1006.19 1761.79 1007.95 1762.48 Z" fill="#000000" fill-rule="nonzero" fill-opacity="1" /><path clip-path="url(#clip070)" d="M1041.42 1751.67 Q1038.32 1757 1036.82 1762.2 Q1035.31 1767.41 1035.31 1772.76 Q1035.31 1778.11 1036.82 1783.36 Q1038.35 1788.59 1041.42 1793.89 L1037.72 1793.89 Q1034.25 1788.45 1032.51 1783.2 Q1030.8 1777.95 1030.8 1772.76 Q1030.8 1767.6 1032.51 1762.37 Q1034.23 1757.14 1037.72 1751.67 L1041.42 1751.67 Z" fill="#000000" fill-rule="nonzero" fill-opacity="1" /><path clip-path="url(#clip070)" d="M1060.29 1771.23 Q1056.96 1771.23 1055.04 1773.01 Q1053.14 1774.8 1053.14 1777.92 Q1053.14 1781.05 1055.04 1782.83 Q1056.96 1784.61 1060.29 1784.61 Q1063.62 1784.61 1065.54 1782.83 Q1067.47 1781.02 1067.47 1777.92 Q1067.47 1774.8 1065.54 1773.01 Q1063.65 1771.23 1060.29 1771.23 M1055.61 1769.24 Q1052.6 1768.5 1050.92 1766.44 Q1049.25 1764.38 1049.25 1761.42 Q1049.25 1757.27 1052.19 1754.87 Q1055.15 1752.46 1060.29 1752.46 Q1065.45 1752.46 1068.39 1754.87 Q1071.33 1757.27 1071.33 1761.42 Q1071.33 1764.38 1069.64 1766.44 Q1067.98 1768.5 1064.99 1769.24 Q1068.37 1770.03 1070.24 1772.32 Q1072.14 1774.61 1072.14 1777.92 Q1072.14 1782.95 1069.06 1785.63 Q1066.01 1788.32 1060.29 1788.32 Q1054.57 1788.32 1051.49 1785.63 Q1048.44 1782.95 1048.44 1777.92 Q1048.44 1774.61 1050.34 1772.32 Q1052.23 1770.03 1055.61 1769.24 M1053.9 1761.86 Q1053.9 1764.54 1055.57 1766.05 Q1057.26 1767.55 1060.29 1767.55 Q1063.3 1767.55 1064.99 1766.05 Q1066.7 1764.54 1066.7 1761.86 Q1066.7 1759.17 1064.99 1757.67 Q1063.3 1756.16 1060.29 1756.16 Q1057.26 1756.16 1055.57 1757.67 Q1053.9 1759.17 1053.9 1761.86 Z" fill="#000000" fill-rule="nonzero" fill-opacity="1" /><path clip-path="url(#clip070)" d="M1079.18 1751.67 L1082.88 1751.67 Q1086.35 1757.14 1088.07 1762.37 Q1089.8 1767.6 1089.8 1772.76 Q1089.8 1777.95 1088.07 1783.2 Q1086.35 1788.45 1082.88 1793.89 L1079.18 1793.89 Q1082.26 1788.59 1083.76 1783.36 Q1085.29 1778.11 1085.29 1772.76 Q1085.29 1767.41 1083.76 1762.2 Q1082.26 1757 1079.18 1751.67 Z" fill="#000000" fill-rule="nonzero" fill-opacity="1" /><path clip-path="url(#clip070)" d="M1099.43 1763.13 L1104.32 1763.13 L1104.32 1769.01 L1099.43 1769.01 L1099.43 1763.13 M1099.43 1781.76 L1104.32 1781.76 L1104.32 1785.75 L1100.52 1793.15 L1097.54 1793.15 L1099.43 1785.75 L1099.43 1781.76 Z" fill="#000000" fill-rule="nonzero" fill-opacity="1" /><path clip-path="url(#clip070)" d="M1150.29 1754.22 L1150.29 1758.78 Q1147.63 1757.51 1145.27 1756.88 Q1142.91 1756.26 1140.71 1756.26 Q1136.89 1756.26 1134.8 1757.74 Q1132.74 1759.22 1132.74 1761.95 Q1132.74 1764.24 1134.11 1765.42 Q1135.5 1766.58 1139.34 1767.3 L1142.16 1767.88 Q1147.4 1768.87 1149.87 1771.39 Q1152.37 1773.89 1152.37 1778.11 Q1152.37 1783.13 1148.99 1785.72 Q1145.64 1788.32 1139.13 1788.32 Q1136.68 1788.32 1133.9 1787.76 Q1131.15 1787.2 1128.18 1786.12 L1128.18 1781.3 Q1131.03 1782.9 1133.76 1783.71 Q1136.49 1784.52 1139.13 1784.52 Q1143.14 1784.52 1145.31 1782.95 Q1147.49 1781.37 1147.49 1778.45 Q1147.49 1775.91 1145.91 1774.47 Q1144.36 1773.04 1140.8 1772.32 L1137.95 1771.76 Q1132.72 1770.72 1130.38 1768.5 Q1128.04 1766.28 1128.04 1762.32 Q1128.04 1757.74 1131.26 1755.1 Q1134.5 1752.46 1140.17 1752.46 Q1142.6 1752.46 1145.13 1752.9 Q1147.65 1753.34 1150.29 1754.22 Z" fill="#000000" fill-rule="nonzero" fill-opacity="1" /><path clip-path="url(#clip070)" d="M1159.66 1753.08 L1166.63 1753.08 L1175.45 1776.6 L1184.32 1753.08 L1191.28 1753.08 L1191.28 1787.64 L1186.72 1787.64 L1186.72 1757.3 L1177.81 1781 L1173.11 1781 L1164.2 1757.3 L1164.2 1787.64 L1159.66 1787.64 L1159.66 1753.08 Z" fill="#000000" fill-rule="nonzero" fill-opacity="1" /><path clip-path="url(#clip070)" d="M1195.78 1753.08 L1225.01 1753.08 L1225.01 1757.02 L1212.74 1757.02 L1212.74 1787.64 L1208.04 1787.64 L1208.04 1757.02 L1195.78 1757.02 L1195.78 1753.08 Z" fill="#000000" fill-rule="nonzero" fill-opacity="1" /><path clip-path="url(#clip070)" d="M1263.02 1774.7 Q1263.02 1770.01 1261.08 1767.34 Q1259.15 1764.66 1255.78 1764.66 Q1252.4 1764.66 1250.45 1767.34 Q1248.53 1770.01 1248.53 1774.7 Q1248.53 1779.4 1250.45 1782.09 Q1252.4 1784.75 1255.78 1784.75 Q1259.15 1784.75 1261.08 1782.09 Q1263.02 1779.4 1263.02 1774.7 M1248.53 1765.65 Q1249.87 1763.34 1251.91 1762.23 Q1253.97 1761.09 1256.82 1761.09 Q1261.54 1761.09 1264.48 1764.84 Q1267.44 1768.59 1267.44 1774.7 Q1267.44 1780.82 1264.48 1784.57 Q1261.54 1788.32 1256.82 1788.32 Q1253.97 1788.32 1251.91 1787.2 Q1249.87 1786.07 1248.53 1783.76 L1248.53 1787.64 L1244.25 1787.64 L1244.25 1751.63 L1248.53 1751.63 L1248.53 1765.65 Z" fill="#000000" fill-rule="nonzero" fill-opacity="1" /><path clip-path="url(#clip070)" d="M1296.68 1773.62 L1296.68 1775.7 L1277.09 1775.7 Q1277.37 1780.1 1279.73 1782.41 Q1282.12 1784.7 1286.35 1784.7 Q1288.81 1784.7 1291.1 1784.1 Q1293.41 1783.5 1295.68 1782.3 L1295.68 1786.32 Q1293.39 1787.3 1290.98 1787.81 Q1288.58 1788.32 1286.1 1788.32 Q1279.9 1788.32 1276.26 1784.7 Q1272.65 1781.09 1272.65 1774.94 Q1272.65 1768.57 1276.08 1764.84 Q1279.53 1761.09 1285.36 1761.09 Q1290.59 1761.09 1293.62 1764.47 Q1296.68 1767.83 1296.68 1773.62 M1292.42 1772.37 Q1292.37 1768.87 1290.45 1766.79 Q1288.55 1764.7 1285.4 1764.7 Q1281.84 1764.7 1279.69 1766.72 Q1277.56 1768.73 1277.23 1772.39 L1292.42 1772.37 Z" fill="#000000" fill-rule="nonzero" fill-opacity="1" /><path clip-path="url(#clip070)" d="M1314.46 1790.05 Q1312.65 1794.68 1310.94 1796.09 Q1309.22 1797.51 1306.35 1797.51 L1302.95 1797.51 L1302.95 1793.94 L1305.45 1793.94 Q1307.21 1793.94 1308.18 1793.11 Q1309.15 1792.27 1310.34 1789.17 L1311.1 1787.23 L1300.61 1761.72 L1305.13 1761.72 L1313.23 1782 L1321.33 1761.72 L1325.84 1761.72 L1314.46 1790.05 Z" fill="#000000" fill-rule="nonzero" fill-opacity="1" /><path clip-path="url(#clip070)" d="M1341.77 1764.7 Q1338.34 1764.7 1336.35 1767.39 Q1334.36 1770.05 1334.36 1774.7 Q1334.36 1779.36 1336.33 1782.04 Q1338.32 1784.7 1341.77 1784.7 Q1345.17 1784.7 1347.16 1782.02 Q1349.15 1779.33 1349.15 1774.7 Q1349.15 1770.1 1347.16 1767.41 Q1345.17 1764.7 1341.77 1764.7 M1341.77 1761.09 Q1347.33 1761.09 1350.5 1764.7 Q1353.67 1768.32 1353.67 1774.7 Q1353.67 1781.07 1350.5 1784.7 Q1347.33 1788.32 1341.77 1788.32 Q1336.19 1788.32 1333.02 1784.7 Q1329.87 1781.07 1329.87 1774.7 Q1329.87 1768.32 1333.02 1764.7 Q1336.19 1761.09 1341.77 1761.09 Z" fill="#000000" fill-rule="nonzero" fill-opacity="1" /><path clip-path="url(#clip070)" d="M1382.28 1772 L1382.28 1787.64 L1378.02 1787.64 L1378.02 1772.14 Q1378.02 1768.45 1376.58 1766.63 Q1375.15 1764.8 1372.28 1764.8 Q1368.83 1764.8 1366.84 1767 Q1364.85 1769.2 1364.85 1772.99 L1364.85 1787.64 L1360.57 1787.64 L1360.57 1761.72 L1364.85 1761.72 L1364.85 1765.75 Q1366.38 1763.41 1368.44 1762.25 Q1370.52 1761.09 1373.23 1761.09 Q1377.7 1761.09 1379.99 1763.87 Q1382.28 1766.63 1382.28 1772 Z" fill="#000000" fill-rule="nonzero" fill-opacity="1" /><path clip-path="url(#clip070)" d="M1407.83 1765.65 L1407.83 1751.63 L1412.09 1751.63 L1412.09 1787.64 L1407.83 1787.64 L1407.83 1783.76 Q1406.49 1786.07 1404.43 1787.2 Q1402.39 1788.32 1399.52 1788.32 Q1394.83 1788.32 1391.86 1784.57 Q1388.92 1780.82 1388.92 1774.7 Q1388.92 1768.59 1391.86 1764.84 Q1394.83 1761.09 1399.52 1761.09 Q1402.39 1761.09 1404.43 1762.23 Q1406.49 1763.34 1407.83 1765.65 M1393.32 1774.7 Q1393.32 1779.4 1395.24 1782.09 Q1397.19 1784.75 1400.57 1784.75 Q1403.95 1784.75 1405.89 1782.09 Q1407.83 1779.4 1407.83 1774.7 Q1407.83 1770.01 1405.89 1767.34 Q1403.95 1764.66 1400.57 1764.66 Q1397.19 1764.66 1395.24 1767.34 Q1393.32 1770.01 1393.32 1774.7 Z" fill="#000000" fill-rule="nonzero" fill-opacity="1" /><polyline clip-path="url(#clip070)" style="stroke:#0072b2; stroke-linecap:round; stroke-linejoin:round; stroke-width:8; stroke-opacity:1; fill:none" points="442.257,1822.2 645.315,1822.2 "/>
<circle clip-path="url(#clip070)" cx="543.786" cy="1822.2" r="20.48" fill="#0072b2" fill-rule="evenodd" fill-opacity="1" stroke="#000000" stroke-opacity="1" stroke-width="6.25778"/>
<path clip-path="url(#clip070)" d="M700.871 1823.84 L700.871 1839.48 L696.611 1839.48 L696.611 1823.98 Q696.611 1820.29 695.176 1818.47 Q693.741 1816.64 690.871 1816.64 Q687.422 1816.64 685.431 1818.84 Q683.44 1821.04 683.44 1824.83 L683.44 1839.48 L679.158 1839.48 L679.158 1803.47 L683.44 1803.47 L683.44 1817.59 Q684.968 1815.25 687.028 1814.09 Q689.112 1812.93 691.82 1812.93 Q696.287 1812.93 698.579 1815.71 Q700.871 1818.47 700.871 1823.84 Z" fill="#000000" fill-rule="nonzero" fill-opacity="1" /><path clip-path="url(#clip070)" d="M713.579 1806.2 L713.579 1813.56 L722.352 1813.56 L722.352 1816.87 L713.579 1816.87 L713.579 1830.94 Q713.579 1834.11 714.435 1835.02 Q715.315 1835.92 717.977 1835.92 L722.352 1835.92 L722.352 1839.48 L717.977 1839.48 Q713.047 1839.48 711.172 1837.66 Q709.297 1835.8 709.297 1830.94 L709.297 1816.87 L706.172 1816.87 L706.172 1813.56 L709.297 1813.56 L709.297 1806.2 L713.579 1806.2 Z" fill="#000000" fill-rule="nonzero" fill-opacity="1" /><path clip-path="url(#clip070)" d="M732.167 1806.2 L732.167 1813.56 L740.94 1813.56 L740.94 1816.87 L732.167 1816.87 L732.167 1830.94 Q732.167 1834.11 733.023 1835.02 Q733.903 1835.92 736.565 1835.92 L740.94 1835.92 L740.94 1839.48 L736.565 1839.48 Q731.634 1839.48 729.759 1837.66 Q727.884 1835.8 727.884 1830.94 L727.884 1816.87 L724.759 1816.87 L724.759 1813.56 L727.884 1813.56 L727.884 1806.2 L732.167 1806.2 Z" fill="#000000" fill-rule="nonzero" fill-opacity="1" /><path clip-path="url(#clip070)" d="M750.662 1835.6 L750.662 1849.35 L746.38 1849.35 L746.38 1813.56 L750.662 1813.56 L750.662 1817.49 Q752.005 1815.18 754.042 1814.07 Q756.102 1812.93 758.949 1812.93 Q763.671 1812.93 766.611 1816.68 Q769.574 1820.43 769.574 1826.54 Q769.574 1832.66 766.611 1836.41 Q763.671 1840.16 758.949 1840.16 Q756.102 1840.16 754.042 1839.04 Q752.005 1837.91 750.662 1835.6 M765.153 1826.54 Q765.153 1821.85 763.208 1819.18 Q761.287 1816.5 757.907 1816.5 Q754.528 1816.5 752.583 1819.18 Q750.662 1821.85 750.662 1826.54 Q750.662 1831.24 752.583 1833.93 Q754.528 1836.59 757.907 1836.59 Q761.287 1836.59 763.208 1833.93 Q765.153 1831.24 765.153 1826.54 Z" fill="#000000" fill-rule="nonzero" fill-opacity="1" /><path clip-path="url(#clip070)" d="M793.162 1814.32 L793.162 1818.35 Q791.356 1817.42 789.412 1816.96 Q787.467 1816.5 785.384 1816.5 Q782.213 1816.5 780.616 1817.47 Q779.042 1818.44 779.042 1820.39 Q779.042 1821.87 780.176 1822.73 Q781.31 1823.56 784.736 1824.32 L786.194 1824.65 Q790.731 1825.62 792.629 1827.4 Q794.551 1829.16 794.551 1832.33 Q794.551 1835.94 791.68 1838.05 Q788.833 1840.16 783.833 1840.16 Q781.75 1840.16 779.481 1839.74 Q777.236 1839.35 774.736 1838.54 L774.736 1834.14 Q777.097 1835.36 779.389 1835.99 Q781.68 1836.59 783.926 1836.59 Q786.935 1836.59 788.555 1835.57 Q790.176 1834.53 790.176 1832.66 Q790.176 1830.92 788.995 1829.99 Q787.838 1829.07 783.88 1828.21 L782.398 1827.86 Q778.44 1827.03 776.68 1825.32 Q774.921 1823.58 774.921 1820.57 Q774.921 1816.92 777.514 1814.92 Q780.106 1812.93 784.875 1812.93 Q787.236 1812.93 789.319 1813.28 Q791.403 1813.63 793.162 1814.32 Z" fill="#000000" fill-rule="nonzero" fill-opacity="1" /><path clip-path="url(#clip070)" d="M823.509 1825.46 L823.509 1827.54 L803.926 1827.54 Q804.203 1831.94 806.565 1834.25 Q808.949 1836.54 813.185 1836.54 Q815.639 1836.54 817.93 1835.94 Q820.245 1835.34 822.514 1834.14 L822.514 1838.16 Q820.222 1839.14 817.815 1839.65 Q815.407 1840.16 812.93 1840.16 Q806.727 1840.16 803.092 1836.54 Q799.481 1832.93 799.481 1826.78 Q799.481 1820.41 802.907 1816.68 Q806.356 1812.93 812.19 1812.93 Q817.421 1812.93 820.453 1816.31 Q823.509 1819.67 823.509 1825.46 M819.25 1824.21 Q819.203 1820.71 817.282 1818.63 Q815.384 1816.54 812.236 1816.54 Q808.671 1816.54 806.518 1818.56 Q804.389 1820.57 804.065 1824.23 L819.25 1824.21 Z" fill="#000000" fill-rule="nonzero" fill-opacity="1" /><path clip-path="url(#clip070)" d="M845.523 1817.54 Q844.805 1817.12 843.949 1816.94 Q843.115 1816.73 842.097 1816.73 Q838.486 1816.73 836.541 1819.09 Q834.62 1821.43 834.62 1825.83 L834.62 1839.48 L830.338 1839.48 L830.338 1813.56 L834.62 1813.56 L834.62 1817.59 Q835.963 1815.23 838.115 1814.09 Q840.268 1812.93 843.347 1812.93 Q843.787 1812.93 844.319 1813 Q844.851 1813.05 845.5 1813.17 L845.523 1817.54 Z" fill="#000000" fill-rule="nonzero" fill-opacity="1" /><path clip-path="url(#clip070)" d="M846.935 1813.56 L851.449 1813.56 L859.55 1835.32 L867.652 1813.56 L872.166 1813.56 L862.444 1839.48 L856.657 1839.48 L846.935 1813.56 Z" fill="#000000" fill-rule="nonzero" fill-opacity="1" /><path clip-path="url(#clip070)" d="M900.221 1825.46 L900.221 1827.54 L880.638 1827.54 Q880.916 1831.94 883.277 1834.25 Q885.661 1836.54 889.897 1836.54 Q892.351 1836.54 894.643 1835.94 Q896.958 1835.34 899.226 1834.14 L899.226 1838.16 Q896.934 1839.14 894.527 1839.65 Q892.12 1840.16 889.643 1840.16 Q883.439 1840.16 879.805 1836.54 Q876.194 1832.93 876.194 1826.78 Q876.194 1820.41 879.62 1816.68 Q883.069 1812.93 888.902 1812.93 Q894.134 1812.93 897.166 1816.31 Q900.221 1819.67 900.221 1825.46 M895.962 1824.21 Q895.916 1820.71 893.995 1818.63 Q892.097 1816.54 888.948 1816.54 Q885.384 1816.54 883.231 1818.56 Q881.101 1820.57 880.777 1824.23 L895.962 1824.21 Z" fill="#000000" fill-rule="nonzero" fill-opacity="1" /><path clip-path="url(#clip070)" d="M922.235 1817.54 Q921.518 1817.12 920.661 1816.94 Q919.828 1816.73 918.809 1816.73 Q915.198 1816.73 913.254 1819.09 Q911.333 1821.43 911.333 1825.83 L911.333 1839.48 L907.05 1839.48 L907.05 1813.56 L911.333 1813.56 L911.333 1817.59 Q912.675 1815.23 914.828 1814.09 Q916.981 1812.93 920.059 1812.93 Q920.499 1812.93 921.032 1813 Q921.564 1813.05 922.212 1813.17 L922.235 1817.54 Z" fill="#000000" fill-rule="nonzero" fill-opacity="1" /><polyline clip-path="url(#clip070)" style="stroke:#d55e00; stroke-linecap:round; stroke-linejoin:round; stroke-width:8; stroke-opacity:1; fill:none" points="442.257,1874.04 645.315,1874.04 "/>
<circle clip-path="url(#clip070)" cx="543.786" cy="1874.04" r="20.48" fill="#d55e00" fill-rule="evenodd" fill-opacity="1" stroke="#000000" stroke-opacity="1" stroke-width="6.25778"/>
<path clip-path="url(#clip070)" d="M700.871 1875.68 L700.871 1891.32 L696.611 1891.32 L696.611 1875.82 Q696.611 1872.13 695.176 1870.31 Q693.741 1868.48 690.871 1868.48 Q687.422 1868.48 685.431 1870.68 Q683.44 1872.88 683.44 1876.67 L683.44 1891.32 L679.158 1891.32 L679.158 1865.4 L683.44 1865.4 L683.44 1869.43 Q684.968 1867.09 687.028 1865.93 Q689.112 1864.77 691.82 1864.77 Q696.287 1864.77 698.579 1867.55 Q700.871 1870.31 700.871 1875.68 Z" fill="#000000" fill-rule="nonzero" fill-opacity="1" /><path clip-path="url(#clip070)" d="M726.426 1878.06 Q726.426 1873.43 724.505 1870.88 Q722.607 1868.34 719.158 1868.34 Q715.732 1868.34 713.81 1870.88 Q711.912 1873.43 711.912 1878.06 Q711.912 1882.67 713.81 1885.21 Q715.732 1887.76 719.158 1887.76 Q722.607 1887.76 724.505 1885.21 Q726.426 1882.67 726.426 1878.06 M730.685 1888.11 Q730.685 1894.73 727.746 1897.94 Q724.806 1901.19 718.741 1901.19 Q716.496 1901.19 714.505 1900.84 Q712.514 1900.51 710.639 1899.82 L710.639 1895.68 Q712.514 1896.69 714.343 1897.18 Q716.172 1897.67 718.07 1897.67 Q722.259 1897.67 724.343 1895.47 Q726.426 1893.29 726.426 1888.87 L726.426 1886.76 Q725.107 1889.06 723.047 1890.19 Q720.986 1891.32 718.116 1891.32 Q713.347 1891.32 710.431 1887.69 Q707.514 1884.06 707.514 1878.06 Q707.514 1872.04 710.431 1868.41 Q713.347 1864.77 718.116 1864.77 Q720.986 1864.77 723.047 1865.91 Q725.107 1867.04 726.426 1869.33 L726.426 1865.4 L730.685 1865.4 L730.685 1888.11 Z" fill="#000000" fill-rule="nonzero" fill-opacity="1" /><path clip-path="url(#clip070)" d="M739.458 1865.4 L743.718 1865.4 L743.718 1891.32 L739.458 1891.32 L739.458 1865.4 M739.458 1855.31 L743.718 1855.31 L743.718 1860.7 L739.458 1860.7 L739.458 1855.31 Z" fill="#000000" fill-rule="nonzero" fill-opacity="1" /><path clip-path="url(#clip070)" d="M774.18 1875.68 L774.18 1891.32 L769.921 1891.32 L769.921 1875.82 Q769.921 1872.13 768.486 1870.31 Q767.051 1868.48 764.181 1868.48 Q760.731 1868.48 758.741 1870.68 Q756.75 1872.88 756.75 1876.67 L756.75 1891.32 L752.468 1891.32 L752.468 1865.4 L756.75 1865.4 L756.75 1869.43 Q758.278 1867.09 760.338 1865.93 Q762.421 1864.77 765.13 1864.77 Q769.597 1864.77 771.889 1867.55 Q774.18 1870.31 774.18 1875.68 Z" fill="#000000" fill-rule="nonzero" fill-opacity="1" /><path clip-path="url(#clip070)" d="M804.227 1865.4 L794.852 1878.01 L804.713 1891.32 L799.69 1891.32 L792.143 1881.14 L784.597 1891.32 L779.574 1891.32 L789.643 1877.76 L780.43 1865.4 L785.454 1865.4 L792.329 1874.63 L799.204 1865.4 L804.227 1865.4 Z" fill="#000000" fill-rule="nonzero" fill-opacity="1" /></svg>
