<?xml version="1.0" encoding="utf-8"?>
<svg xmlns="http://www.w3.org/2000/svg" xmlns:xlink="http://www.w3.org/1999/xlink" width="850" height="550" viewBox="0 0 3400 2200">
<defs>
  <clipPath id="clip040">
    <rect x="0" y="0" width="3400" height="2200"/>
  </clipPath>
</defs>
<path clip-path="url(#clip040)" d="M0 2200 L3400 2200 L3400 0 L0 0  Z" fill="#ffffff" fill-rule="evenodd" fill-opacity="1"/>
<defs>
  <clipPath id="clip041">
    <rect x="680" y="0" width="2381" height="2200"/>
  </clipPath>
</defs>
<path clip-path="url(#clip040)" d="M456.861 1988.1 L3352.76 1988.1 L3352.76 121.693 L456.861 121.693  Z" fill="#ffffff" fill-rule="evenodd" fill-opacity="1"/>
<defs>
  <clipPath id="clip042">
    <rect x="456" y="121" width="2897" height="1867"/>
  </clipPath>
</defs>
<polyline clip-path="url(#clip042)" style="stroke:#000000; stroke-linecap:round; stroke-linejoin:round; stroke-width:2; stroke-opacity:0.1; fill:none" points="538.82,1988.1 538.82,121.693 "/>
<polyline clip-path="url(#clip042)" style="stroke:#000000; stroke-linecap:round; stroke-linejoin:round; stroke-width:2; stroke-opacity:0.1; fill:none" points="1221.81,1988.1 1221.81,121.693 "/>
<polyline clip-path="url(#clip042)" style="stroke:#000000; stroke-linecap:round; stroke-linejoin:round; stroke-width:2; stroke-opacity:0.1; fill:none" points="1621.34,1988.1 1621.34,121.693 "/>
<polyline clip-path="url(#clip042)" style="stroke:#000000; stroke-linecap:round; stroke-linejoin:round; stroke-width:2; stroke-opacity:0.1; fill:none" points="1904.81,1988.1 1904.81,121.693 "/>
<polyline clip-path="url(#clip042)" style="stroke:#000000; stroke-linecap:round; stroke-linejoin:round; stroke-width:2; stroke-opacity:0.1; fill:none" points="2304.33,1988.1 2304.33,121.693 "/>
<polyline clip-path="url(#clip042)" style="stroke:#000000; stroke-linecap:round; stroke-linejoin:round; stroke-width:2; stroke-opacity:0.1; fill:none" points="2587.8,1988.1 2587.8,121.693 "/>
<polyline clip-path="url(#clip042)" style="stroke:#000000; stroke-linecap:round; stroke-linejoin:round; stroke-width:2; stroke-opacity:0.1; fill:none" points="2987.33,1988.1 2987.33,121.693 "/>
<polyline clip-path="url(#clip042)" style="stroke:#000000; stroke-linecap:round; stroke-linejoin:round; stroke-width:2; stroke-opacity:0.1; fill:none" points="3270.8,1988.1 3270.8,121.693 "/>
<polyline clip-path="url(#clip042)" style="stroke:#000000; stroke-linecap:round; stroke-linejoin:round; stroke-width:2; stroke-opacity:0.1; fill:none" points="456.861,1959.41 3352.76,1959.41 "/>
<polyline clip-path="url(#clip042)" style="stroke:#000000; stroke-linecap:round; stroke-linejoin:round; stroke-width:2; stroke-opacity:0.1; fill:none" points="456.861,1423.95 3352.76,1423.95 "/>
<polyline clip-path="url(#clip042)" style="stroke:#000000; stroke-linecap:round; stroke-linejoin:round; stroke-width:2; stroke-opacity:0.1; fill:none" points="456.861,888.484 3352.76,888.484 "/>
<polyline clip-path="url(#clip042)" style="stroke:#000000; stroke-linecap:round; stroke-linejoin:round; stroke-width:2; stroke-opacity:0.1; fill:none" points="456.861,353.019 3352.76,353.019 "/>
<polyline clip-path="url(#clip040)" style="stroke:#000000; stroke-linecap:round; stroke-linejoin:round; stroke-width:4; stroke-opacity:1; fill:none" points="456.861,1988.1 3352.76,1988.1 "/>
<polyline clip-path="url(#clip040)" style="stroke:#000000; stroke-linecap:round; stroke-linejoin:round; stroke-width:4; stroke-opacity:1; fill:none" points="538.82,1988.1 538.82,1969.2 "/>
<polyline clip-path="url(#clip040)" style="stroke:#000000; stroke-linecap:round; stroke-linejoin:round; stroke-width:4; stroke-opacity:1; fill:none" points="1221.81,1988.1 1221.81,1969.2 "/>
<polyline clip-path="url(#clip040)" style="stroke:#000000; stroke-linecap:round; stroke-linejoin:round; stroke-width:4; stroke-opacity:1; fill:none" points="1621.34,1988.1 1621.34,1969.2 "/>
<polyline clip-path="url(#clip040)" style="stroke:#000000; stroke-linecap:round; stroke-linejoin:round; stroke-width:4; stroke-opacity:1; fill:none" points="1904.81,1988.1 1904.81,1969.2 "/>
<polyline clip-path="url(#clip040)" style="stroke:#000000; stroke-linecap:round; stroke-linejoin:round; stroke-width:4; stroke-opacity:1; fill:none" points="2304.33,1988.1 2304.33,1969.2 "/>
<polyline clip-path="url(#clip040)" style="stroke:#000000; stroke-linecap:round; stroke-linejoin:round; stroke-width:4; stroke-opacity:1; fill:none" points="2587.8,1988.1 2587.8,1969.2 "/>
<polyline clip-path="url(#clip040)" style="stroke:#000000; stroke-linecap:round; stroke-linejoin:round; stroke-width:4; stroke-opacity:1; fill:none" points="2987.33,1988.1 2987.33,1969.2 "/>
<polyline clip-path="url(#clip040)" style="stroke:#000000; stroke-linecap:round; stroke-linejoin:round; stroke-width:4; stroke-opacity:1; fill:none" points="3270.8,1988.1 3270.8,1969.2 "/>
<path clip-path="url(#clip040)" d="M529.202 2054.56 L536.841 2054.56 L536.841 2028.2 L528.531 2029.86 L528.531 2025.6 L536.795 2023.94 L541.47 2023.94 L541.47 2054.56 L549.109 2054.56 L549.109 2058.5 L529.202 2058.5 L529.202 2054.56 Z" fill="#000000" fill-rule="nonzero" fill-opacity="1" /><path clip-path="url(#clip040)" d="M1216.47 2054.56 L1232.79 2054.56 L1232.79 2058.5 L1210.84 2058.5 L1210.84 2054.56 Q1213.5 2051.81 1218.09 2047.18 Q1222.69 2042.53 1223.87 2041.18 Q1226.12 2038.66 1227 2036.92 Q1227.9 2035.16 1227.9 2033.47 Q1227.9 2030.72 1225.96 2028.98 Q1224.04 2027.25 1220.93 2027.25 Q1218.74 2027.25 1216.28 2028.01 Q1213.85 2028.78 1211.07 2030.33 L1211.07 2025.6 Q1213.9 2024.47 1216.35 2023.89 Q1218.8 2023.31 1220.84 2023.31 Q1226.21 2023.31 1229.41 2026 Q1232.6 2028.68 1232.6 2033.17 Q1232.6 2035.3 1231.79 2037.22 Q1231 2039.12 1228.9 2041.72 Q1228.32 2042.39 1225.22 2045.6 Q1222.12 2048.8 1216.47 2054.56 Z" fill="#000000" fill-rule="nonzero" fill-opacity="1" /><path clip-path="url(#clip040)" d="M1625.59 2039.86 Q1628.94 2040.58 1630.82 2042.85 Q1632.72 2045.12 1632.72 2048.45 Q1632.72 2053.57 1629.2 2056.37 Q1625.68 2059.17 1619.2 2059.17 Q1617.02 2059.17 1614.71 2058.73 Q1612.42 2058.31 1609.96 2057.46 L1609.96 2052.94 Q1611.91 2054.08 1614.22 2054.66 Q1616.54 2055.23 1619.06 2055.23 Q1623.46 2055.23 1625.75 2053.5 Q1628.06 2051.76 1628.06 2048.45 Q1628.06 2045.4 1625.91 2043.68 Q1623.78 2041.95 1619.96 2041.95 L1615.94 2041.95 L1615.94 2038.1 L1620.15 2038.1 Q1623.6 2038.1 1625.43 2036.74 Q1627.25 2035.35 1627.25 2032.76 Q1627.25 2030.1 1625.36 2028.68 Q1623.48 2027.25 1619.96 2027.25 Q1618.04 2027.25 1615.84 2027.66 Q1613.64 2028.08 1611 2028.96 L1611 2024.79 Q1613.67 2024.05 1615.98 2023.68 Q1618.32 2023.31 1620.38 2023.31 Q1625.7 2023.31 1628.81 2025.74 Q1631.91 2028.15 1631.91 2032.27 Q1631.91 2035.14 1630.26 2037.13 Q1628.62 2039.1 1625.59 2039.86 Z" fill="#000000" fill-rule="nonzero" fill-opacity="1" /><path clip-path="url(#clip040)" d="M1907.82 2028.01 L1896.01 2046.46 L1907.82 2046.46 L1907.82 2028.01 M1906.59 2023.94 L1912.47 2023.94 L1912.47 2046.46 L1917.4 2046.46 L1917.4 2050.35 L1912.47 2050.35 L1912.47 2058.5 L1907.82 2058.5 L1907.82 2050.35 L1892.22 2050.35 L1892.22 2045.84 L1906.59 2023.94 Z" fill="#000000" fill-rule="nonzero" fill-opacity="1" /><path clip-path="url(#clip040)" d="M2304.74 2039.35 Q2301.59 2039.35 2299.74 2041.51 Q2297.91 2043.66 2297.91 2047.41 Q2297.91 2051.14 2299.74 2053.31 Q2301.59 2055.47 2304.74 2055.47 Q2307.89 2055.47 2309.72 2053.31 Q2311.57 2051.14 2311.57 2047.41 Q2311.57 2043.66 2309.72 2041.51 Q2307.89 2039.35 2304.74 2039.35 M2314.02 2024.7 L2314.02 2028.96 Q2312.26 2028.13 2310.46 2027.69 Q2308.67 2027.25 2306.92 2027.25 Q2302.29 2027.25 2299.83 2030.37 Q2297.4 2033.5 2297.05 2039.82 Q2298.42 2037.8 2300.48 2036.74 Q2302.54 2035.65 2305.02 2035.65 Q2310.23 2035.65 2313.23 2038.82 Q2316.27 2041.97 2316.27 2047.41 Q2316.27 2052.73 2313.12 2055.95 Q2309.97 2059.17 2304.74 2059.17 Q2298.74 2059.17 2295.57 2054.59 Q2292.4 2049.98 2292.4 2041.25 Q2292.4 2033.06 2296.29 2028.2 Q2300.18 2023.31 2306.73 2023.31 Q2308.49 2023.31 2310.27 2023.66 Q2312.08 2024.01 2314.02 2024.7 Z" fill="#000000" fill-rule="nonzero" fill-opacity="1" /><path clip-path="url(#clip040)" d="M2587.8 2042.09 Q2584.47 2042.09 2582.55 2043.87 Q2580.65 2045.65 2580.65 2048.78 Q2580.65 2051.9 2582.55 2053.68 Q2584.47 2055.47 2587.8 2055.47 Q2591.14 2055.47 2593.06 2053.68 Q2594.98 2051.88 2594.98 2048.78 Q2594.98 2045.65 2593.06 2043.87 Q2591.16 2042.09 2587.8 2042.09 M2583.13 2040.1 Q2580.12 2039.35 2578.43 2037.29 Q2576.76 2035.23 2576.76 2032.27 Q2576.76 2028.13 2579.7 2025.72 Q2582.66 2023.31 2587.8 2023.31 Q2592.96 2023.31 2595.9 2025.72 Q2598.84 2028.13 2598.84 2032.27 Q2598.84 2035.23 2597.15 2037.29 Q2595.49 2039.35 2592.5 2040.1 Q2595.88 2040.88 2597.76 2043.17 Q2599.65 2045.47 2599.65 2048.78 Q2599.65 2053.8 2596.58 2056.48 Q2593.52 2059.17 2587.8 2059.17 Q2582.08 2059.17 2579.01 2056.48 Q2575.95 2053.8 2575.95 2048.78 Q2575.95 2045.47 2577.85 2043.17 Q2579.75 2040.88 2583.13 2040.1 M2581.41 2032.71 Q2581.41 2035.4 2583.08 2036.9 Q2584.77 2038.41 2587.8 2038.41 Q2590.81 2038.41 2592.5 2036.9 Q2594.21 2035.4 2594.21 2032.71 Q2594.21 2030.03 2592.5 2028.52 Q2590.81 2027.02 2587.8 2027.02 Q2584.77 2027.02 2583.08 2028.52 Q2581.41 2030.03 2581.41 2032.71 Z" fill="#000000" fill-rule="nonzero" fill-opacity="1" /><path clip-path="url(#clip040)" d="M2962.81 2054.56 L2970.45 2054.56 L2970.45 2028.2 L2962.14 2029.86 L2962.14 2025.6 L2970.41 2023.94 L2975.08 2023.94 L2975.08 2054.56 L2982.72 2054.56 L2982.72 2058.5 L2962.81 2058.5 L2962.81 2054.56 Z" fill="#000000" fill-rule="nonzero" fill-opacity="1" /><path clip-path="url(#clip040)" d="M2996.19 2054.56 L3012.51 2054.56 L3012.51 2058.5 L2990.57 2058.5 L2990.57 2054.56 Q2993.23 2051.81 2997.81 2047.18 Q3002.42 2042.53 3003.6 2041.18 Q3005.85 2038.66 3006.73 2036.92 Q3007.63 2035.16 3007.63 2033.47 Q3007.63 2030.72 3005.68 2028.98 Q3003.76 2027.25 3000.66 2027.25 Q2998.46 2027.25 2996.01 2028.01 Q2993.58 2028.78 2990.8 2030.33 L2990.8 2025.6 Q2993.62 2024.47 2996.08 2023.89 Q2998.53 2023.31 3000.57 2023.31 Q3005.94 2023.31 3009.13 2026 Q3012.33 2028.68 3012.33 2033.17 Q3012.33 2035.3 3011.52 2037.22 Q3010.73 2039.12 3008.62 2041.72 Q3008.05 2042.39 3004.94 2045.6 Q3001.84 2048.8 2996.19 2054.56 Z" fill="#000000" fill-rule="nonzero" fill-opacity="1" /><path clip-path="url(#clip040)" d="M3245.4 2054.56 L3253.04 2054.56 L3253.04 2028.2 L3244.73 2029.86 L3244.73 2025.6 L3253 2023.94 L3257.67 2023.94 L3257.67 2054.56 L3265.31 2054.56 L3265.31 2058.5 L3245.4 2058.5 L3245.4 2054.56 Z" fill="#000000" fill-rule="nonzero" fill-opacity="1" /><path clip-path="url(#clip040)" d="M3285.33 2039.35 Q3282.19 2039.35 3280.33 2041.51 Q3278.5 2043.66 3278.5 2047.41 Q3278.5 2051.14 3280.33 2053.31 Q3282.19 2055.47 3285.33 2055.47 Q3288.48 2055.47 3290.31 2053.31 Q3292.16 2051.14 3292.16 2047.41 Q3292.16 2043.66 3290.31 2041.51 Q3288.48 2039.35 3285.33 2039.35 M3294.62 2024.7 L3294.62 2028.96 Q3292.86 2028.13 3291.05 2027.69 Q3289.27 2027.25 3287.51 2027.25 Q3282.88 2027.25 3280.43 2030.37 Q3278 2033.5 3277.65 2039.82 Q3279.01 2037.8 3281.07 2036.74 Q3283.13 2035.65 3285.61 2035.65 Q3290.82 2035.65 3293.83 2038.82 Q3296.86 2041.97 3296.86 2047.41 Q3296.86 2052.73 3293.71 2055.95 Q3290.57 2059.17 3285.33 2059.17 Q3279.34 2059.17 3276.17 2054.59 Q3273 2049.98 3273 2041.25 Q3273 2033.06 3276.88 2028.2 Q3280.77 2023.31 3287.32 2023.31 Q3289.08 2023.31 3290.87 2023.66 Q3292.67 2024.01 3294.62 2024.7 Z" fill="#000000" fill-rule="nonzero" fill-opacity="1" /><path clip-path="url(#clip040)" d="M1716.4 2100.44 L1756.6 2100.44 L1756.6 2105.85 L1739.73 2105.85 L1739.73 2147.96 L1733.27 2147.96 L1733.27 2105.85 L1716.4 2105.85 L1716.4 2100.44 Z" fill="#000000" fill-rule="nonzero" fill-opacity="1" /><path clip-path="url(#clip040)" d="M1792.18 2126.45 L1792.18 2147.96 L1786.33 2147.96 L1786.33 2126.64 Q1786.33 2121.58 1784.35 2119.06 Q1782.38 2116.55 1778.43 2116.55 Q1773.69 2116.55 1770.95 2119.57 Q1768.22 2122.59 1768.22 2127.81 L1768.22 2147.96 L1762.33 2147.96 L1762.33 2098.44 L1768.22 2098.44 L1768.22 2117.85 Q1770.32 2114.64 1773.15 2113.05 Q1776.01 2111.45 1779.74 2111.45 Q1785.88 2111.45 1789.03 2115.27 Q1792.18 2119.06 1792.18 2126.45 Z" fill="#000000" fill-rule="nonzero" fill-opacity="1" /><path clip-path="url(#clip040)" d="M1824.52 2117.79 Q1823.53 2117.22 1822.36 2116.96 Q1821.21 2116.67 1819.81 2116.67 Q1814.84 2116.67 1812.17 2119.92 Q1809.53 2123.14 1809.53 2129.18 L1809.53 2147.96 L1803.64 2147.96 L1803.64 2112.31 L1809.53 2112.31 L1809.53 2117.85 Q1811.38 2114.61 1814.34 2113.05 Q1817.3 2111.45 1821.53 2111.45 Q1822.13 2111.45 1822.87 2111.55 Q1823.6 2111.61 1824.49 2111.77 L1824.52 2117.79 Z" fill="#000000" fill-rule="nonzero" fill-opacity="1" /><path clip-path="url(#clip040)" d="M1859.72 2128.67 L1859.72 2131.54 L1832.8 2131.54 Q1833.18 2137.59 1836.42 2140.77 Q1839.7 2143.92 1845.53 2143.92 Q1848.9 2143.92 1852.05 2143.09 Q1855.24 2142.26 1858.35 2140.61 L1858.35 2146.15 Q1855.2 2147.48 1851.89 2148.18 Q1848.58 2148.88 1845.18 2148.88 Q1836.65 2148.88 1831.65 2143.92 Q1826.69 2138.95 1826.69 2130.49 Q1826.69 2121.74 1831.4 2116.61 Q1836.14 2111.45 1844.16 2111.45 Q1851.35 2111.45 1855.52 2116.1 Q1859.72 2120.72 1859.72 2128.67 M1853.87 2126.96 Q1853.8 2122.15 1851.16 2119.28 Q1848.55 2116.42 1844.22 2116.42 Q1839.32 2116.42 1836.36 2119.19 Q1833.43 2121.96 1832.99 2126.99 L1853.87 2126.96 Z" fill="#000000" fill-rule="nonzero" fill-opacity="1" /><path clip-path="url(#clip040)" d="M1885.54 2130.04 Q1878.44 2130.04 1875.7 2131.67 Q1872.96 2133.29 1872.96 2137.2 Q1872.96 2140.32 1875 2142.17 Q1877.07 2143.98 1880.6 2143.98 Q1885.47 2143.98 1888.4 2140.55 Q1891.36 2137.08 1891.36 2131.35 L1891.36 2130.04 L1885.54 2130.04 M1897.22 2127.62 L1897.22 2147.96 L1891.36 2147.96 L1891.36 2142.55 Q1889.36 2145.8 1886.36 2147.36 Q1883.37 2148.88 1879.04 2148.88 Q1873.57 2148.88 1870.32 2145.83 Q1867.11 2142.74 1867.11 2137.59 Q1867.11 2131.57 1871.12 2128.51 Q1875.16 2125.46 1883.15 2125.46 L1891.36 2125.46 L1891.36 2124.89 Q1891.36 2120.84 1888.69 2118.65 Q1886.05 2116.42 1881.24 2116.42 Q1878.18 2116.42 1875.29 2117.15 Q1872.39 2117.88 1869.72 2119.35 L1869.72 2113.94 Q1872.93 2112.7 1875.96 2112.09 Q1878.98 2111.45 1881.84 2111.45 Q1889.58 2111.45 1893.4 2115.46 Q1897.22 2119.48 1897.22 2127.62 Z" fill="#000000" fill-rule="nonzero" fill-opacity="1" /><path clip-path="url(#clip040)" d="M1932.74 2117.72 L1932.74 2098.44 L1938.59 2098.44 L1938.59 2147.96 L1932.74 2147.96 L1932.74 2142.61 Q1930.89 2145.8 1928.06 2147.36 Q1925.26 2148.88 1921.31 2148.88 Q1914.85 2148.88 1910.78 2143.73 Q1906.73 2138.57 1906.73 2130.17 Q1906.73 2121.77 1910.78 2116.61 Q1914.85 2111.45 1921.31 2111.45 Q1925.26 2111.45 1928.06 2113.01 Q1930.89 2114.54 1932.74 2117.72 M1912.78 2130.17 Q1912.78 2136.63 1915.42 2140.32 Q1918.1 2143.98 1922.74 2143.98 Q1927.39 2143.98 1930.06 2140.32 Q1932.74 2136.63 1932.74 2130.17 Q1932.74 2123.71 1930.06 2120.05 Q1927.39 2116.36 1922.74 2116.36 Q1918.1 2116.36 1915.42 2120.05 Q1912.78 2123.71 1912.78 2130.17 Z" fill="#000000" fill-rule="nonzero" fill-opacity="1" /><path clip-path="url(#clip040)" d="M1973.38 2113.36 L1973.38 2118.9 Q1970.9 2117.63 1968.23 2116.99 Q1965.55 2116.36 1962.69 2116.36 Q1958.33 2116.36 1956.13 2117.69 Q1953.97 2119.03 1953.97 2121.7 Q1953.97 2123.74 1955.53 2124.92 Q1957.09 2126.06 1961.8 2127.11 L1963.8 2127.56 Q1970.04 2128.9 1972.65 2131.35 Q1975.29 2133.77 1975.29 2138.13 Q1975.29 2143.09 1971.35 2145.99 Q1967.43 2148.88 1960.56 2148.88 Q1957.69 2148.88 1954.57 2148.31 Q1951.48 2147.77 1948.05 2146.66 L1948.05 2140.61 Q1951.29 2142.3 1954.44 2143.16 Q1957.6 2143.98 1960.68 2143.98 Q1964.82 2143.98 1967.05 2142.58 Q1969.28 2141.15 1969.28 2138.57 Q1969.28 2136.19 1967.65 2134.91 Q1966.06 2133.64 1960.62 2132.46 L1958.58 2131.98 Q1953.14 2130.84 1950.72 2128.48 Q1948.3 2126.1 1948.3 2121.96 Q1948.3 2116.93 1951.87 2114.19 Q1955.43 2111.45 1961.99 2111.45 Q1965.23 2111.45 1968.1 2111.93 Q1970.96 2112.41 1973.38 2113.36 Z" fill="#000000" fill-rule="nonzero" fill-opacity="1" /><path clip-path="url(#clip040)" d="M2019.41 2098.5 Q2015.14 2105.82 2013.07 2112.98 Q2011 2120.14 2011 2127.5 Q2011 2134.85 2013.07 2142.07 Q2015.17 2149.27 2019.41 2156.56 L2014.31 2156.56 Q2009.54 2149.08 2007.15 2141.85 Q2004.8 2134.63 2004.8 2127.5 Q2004.8 2120.4 2007.15 2113.21 Q2009.51 2106.01 2014.31 2098.5 L2019.41 2098.5 Z" fill="#000000" fill-rule="nonzero" fill-opacity="1" /><path clip-path="url(#clip040)" d="M2031.02 2100.44 L2039.68 2100.44 L2060.75 2140.2 L2060.75 2100.44 L2066.99 2100.44 L2066.99 2147.96 L2058.33 2147.96 L2037.26 2108.21 L2037.26 2147.96 L2031.02 2147.96 L2031.02 2100.44 Z" fill="#000000" fill-rule="nonzero" fill-opacity="1" /><path clip-path="url(#clip040)" d="M2078.61 2098.5 L2083.7 2098.5 Q2088.47 2106.01 2090.83 2113.21 Q2093.22 2120.4 2093.22 2127.5 Q2093.22 2134.63 2090.83 2141.85 Q2088.47 2149.08 2083.7 2156.56 L2078.61 2156.56 Q2082.84 2149.27 2084.91 2142.07 Q2087.01 2134.85 2087.01 2127.5 Q2087.01 2120.14 2084.91 2112.98 Q2082.84 2105.82 2078.61 2098.5 Z" fill="#000000" fill-rule="nonzero" fill-opacity="1" /><polyline clip-path="url(#clip040)" style="stroke:#000000; stroke-linecap:round; stroke-linejoin:round; stroke-width:4; stroke-opacity:1; fill:none" points="456.861,1988.1 456.861,121.693 "/>
<polyline clip-path="url(#clip040)" style="stroke:#000000; stroke-linecap:round; stroke-linejoin:round; stroke-width:4; stroke-opacity:1; fill:none" points="456.861,1959.41 475.758,1959.41 "/>
<polyline clip-path="url(#clip040)" style="stroke:#000000; stroke-linecap:round; stroke-linejoin:round; stroke-width:4; stroke-opacity:1; fill:none" points="456.861,1423.95 475.758,1423.95 "/>
<polyline clip-path="url(#clip040)" style="stroke:#000000; stroke-linecap:round; stroke-linejoin:round; stroke-width:4; stroke-opacity:1; fill:none" points="456.861,888.484 475.758,888.484 "/>
<polyline clip-path="url(#clip040)" style="stroke:#000000; stroke-linecap:round; stroke-linejoin:round; stroke-width:4; stroke-opacity:1; fill:none" points="456.861,353.019 475.758,353.019 "/>
<path clip-path="url(#clip040)" d="M393.916 1945.21 Q390.305 1945.21 388.477 1948.78 Q386.671 1952.32 386.671 1959.45 Q386.671 1966.56 388.477 1970.12 Q390.305 1973.66 393.916 1973.66 Q397.551 1973.66 399.356 1970.12 Q401.185 1966.56 401.185 1959.45 Q401.185 1952.32 399.356 1948.78 Q397.551 1945.21 393.916 1945.21 M393.916 1941.51 Q399.727 1941.51 402.782 1946.12 Q405.861 1950.7 405.861 1959.45 Q405.861 1968.18 402.782 1972.78 Q399.727 1977.37 393.916 1977.37 Q388.106 1977.37 385.028 1972.78 Q381.972 1968.18 381.972 1959.45 Q381.972 1950.7 385.028 1946.12 Q388.106 1941.51 393.916 1941.51 Z" fill="#000000" fill-rule="nonzero" fill-opacity="1" /><path clip-path="url(#clip040)" d="M188.061 1413.12 L206.417 1413.12 L206.417 1417.05 L192.343 1417.05 L192.343 1425.52 Q193.362 1425.18 194.38 1425.01 Q195.399 1424.83 196.417 1424.83 Q202.204 1424.83 205.584 1428 Q208.964 1431.17 208.964 1436.59 Q208.964 1442.17 205.491 1445.27 Q202.019 1448.35 195.7 1448.35 Q193.524 1448.35 191.255 1447.98 Q189.01 1447.61 186.603 1446.87 L186.603 1442.17 Q188.686 1443.3 190.908 1443.86 Q193.13 1444.41 195.607 1444.41 Q199.612 1444.41 201.95 1442.31 Q204.288 1440.2 204.288 1436.59 Q204.288 1432.98 201.95 1430.87 Q199.612 1428.76 195.607 1428.76 Q193.732 1428.76 191.857 1429.18 Q190.005 1429.6 188.061 1430.48 L188.061 1413.12 Z" fill="#000000" fill-rule="nonzero" fill-opacity="1" /><path clip-path="url(#clip040)" d="M218.177 1441.8 L223.061 1441.8 L223.061 1447.68 L218.177 1447.68 L218.177 1441.8 Z" fill="#000000" fill-rule="nonzero" fill-opacity="1" /><path clip-path="url(#clip040)" d="M243.246 1416.2 Q239.635 1416.2 237.806 1419.76 Q236.001 1423.3 236.001 1430.43 Q236.001 1437.54 237.806 1441.1 Q239.635 1444.64 243.246 1444.64 Q246.88 1444.64 248.686 1441.1 Q250.514 1437.54 250.514 1430.43 Q250.514 1423.3 248.686 1419.76 Q246.88 1416.2 243.246 1416.2 M243.246 1412.49 Q249.056 1412.49 252.112 1417.1 Q255.19 1421.68 255.19 1430.43 Q255.19 1439.16 252.112 1443.76 Q249.056 1448.35 243.246 1448.35 Q237.436 1448.35 234.357 1443.76 Q231.302 1439.16 231.302 1430.43 Q231.302 1421.68 234.357 1417.1 Q237.436 1412.49 243.246 1412.49 Z" fill="#000000" fill-rule="nonzero" fill-opacity="1" /><path clip-path="url(#clip040)" d="M273.408 1416.2 Q269.797 1416.2 267.968 1419.76 Q266.162 1423.3 266.162 1430.43 Q266.162 1437.54 267.968 1441.1 Q269.797 1444.64 273.408 1444.64 Q277.042 1444.64 278.848 1441.1 Q280.676 1437.54 280.676 1430.43 Q280.676 1423.3 278.848 1419.76 Q277.042 1416.2 273.408 1416.2 M273.408 1412.49 Q279.218 1412.49 282.273 1417.1 Q285.352 1421.68 285.352 1430.43 Q285.352 1439.16 282.273 1443.76 Q279.218 1448.35 273.408 1448.35 Q267.598 1448.35 264.519 1443.76 Q261.463 1439.16 261.463 1430.43 Q261.463 1421.68 264.519 1417.1 Q267.598 1412.49 273.408 1412.49 Z" fill="#000000" fill-rule="nonzero" fill-opacity="1" /><path clip-path="url(#clip040)" d="M321.741 1422.21 L311.162 1432.84 L321.741 1443.42 L318.986 1446.22 L308.361 1435.59 L297.736 1446.22 L295.005 1443.42 L305.56 1432.84 L295.005 1422.21 L297.736 1419.41 L308.361 1430.04 L318.986 1419.41 L321.741 1422.21 Z" fill="#000000" fill-rule="nonzero" fill-opacity="1" /><path clip-path="url(#clip040)" d="M334.102 1443.74 L341.741 1443.74 L341.741 1417.38 L333.431 1419.04 L333.431 1414.78 L341.694 1413.12 L346.37 1413.12 L346.37 1443.74 L354.009 1443.74 L354.009 1447.68 L334.102 1447.68 L334.102 1443.74 Z" fill="#000000" fill-rule="nonzero" fill-opacity="1" /><path clip-path="url(#clip040)" d="M373.454 1416.2 Q369.842 1416.2 368.014 1419.76 Q366.208 1423.3 366.208 1430.43 Q366.208 1437.54 368.014 1441.1 Q369.842 1444.64 373.454 1444.64 Q377.088 1444.64 378.893 1441.1 Q380.722 1437.54 380.722 1430.43 Q380.722 1423.3 378.893 1419.76 Q377.088 1416.2 373.454 1416.2 M373.454 1412.49 Q379.264 1412.49 382.319 1417.1 Q385.398 1421.68 385.398 1430.43 Q385.398 1439.16 382.319 1443.76 Q379.264 1448.35 373.454 1448.35 Q367.643 1448.35 364.565 1443.76 Q361.509 1439.16 361.509 1430.43 Q361.509 1421.68 364.565 1417.1 Q367.643 1412.49 373.454 1412.49 Z" fill="#000000" fill-rule="nonzero" fill-opacity="1" /><path clip-path="url(#clip040)" d="M398.074 1395.5 L388.482 1410.49 L398.074 1410.49 L398.074 1395.5 M397.078 1392.19 L401.855 1392.19 L401.855 1410.49 L405.861 1410.49 L405.861 1413.65 L401.855 1413.65 L401.855 1420.27 L398.074 1420.27 L398.074 1413.65 L385.398 1413.65 L385.398 1409.98 L397.078 1392.19 Z" fill="#000000" fill-rule="nonzero" fill-opacity="1" /><path clip-path="url(#clip040)" d="M191.119 908.276 L198.758 908.276 L198.758 881.911 L190.448 883.577 L190.448 879.318 L198.712 877.651 L203.388 877.651 L203.388 908.276 L211.027 908.276 L211.027 912.211 L191.119 912.211 L191.119 908.276 Z" fill="#000000" fill-rule="nonzero" fill-opacity="1" /><path clip-path="url(#clip040)" d="M220.471 906.332 L225.355 906.332 L225.355 912.211 L220.471 912.211 L220.471 906.332 Z" fill="#000000" fill-rule="nonzero" fill-opacity="1" /><path clip-path="url(#clip040)" d="M245.54 880.73 Q241.929 880.73 240.101 884.295 Q238.295 887.836 238.295 894.966 Q238.295 902.073 240.101 905.637 Q241.929 909.179 245.54 909.179 Q249.175 909.179 250.98 905.637 Q252.809 902.073 252.809 894.966 Q252.809 887.836 250.98 884.295 Q249.175 880.73 245.54 880.73 M245.54 877.026 Q251.351 877.026 254.406 881.633 Q257.485 886.216 257.485 894.966 Q257.485 903.693 254.406 908.299 Q251.351 912.883 245.54 912.883 Q239.73 912.883 236.652 908.299 Q233.596 903.693 233.596 894.966 Q233.596 886.216 236.652 881.633 Q239.73 877.026 245.54 877.026 Z" fill="#000000" fill-rule="nonzero" fill-opacity="1" /><path clip-path="url(#clip040)" d="M275.702 880.73 Q272.091 880.73 270.263 884.295 Q268.457 887.836 268.457 894.966 Q268.457 902.073 270.263 905.637 Q272.091 909.179 275.702 909.179 Q279.337 909.179 281.142 905.637 Q282.971 902.073 282.971 894.966 Q282.971 887.836 281.142 884.295 Q279.337 880.73 275.702 880.73 M275.702 877.026 Q281.512 877.026 284.568 881.633 Q287.647 886.216 287.647 894.966 Q287.647 903.693 284.568 908.299 Q281.512 912.883 275.702 912.883 Q269.892 912.883 266.813 908.299 Q263.758 903.693 263.758 894.966 Q263.758 886.216 266.813 881.633 Q269.892 877.026 275.702 877.026 Z" fill="#000000" fill-rule="nonzero" fill-opacity="1" /><path clip-path="url(#clip040)" d="M324.035 886.749 L313.457 897.373 L324.035 907.952 L321.281 910.753 L310.656 900.128 L300.031 910.753 L297.299 907.952 L307.855 897.373 L297.299 886.749 L300.031 883.948 L310.656 894.573 L321.281 883.948 L324.035 886.749 Z" fill="#000000" fill-rule="nonzero" fill-opacity="1" /><path clip-path="url(#clip040)" d="M336.396 908.276 L344.035 908.276 L344.035 881.911 L335.725 883.577 L335.725 879.318 L343.989 877.651 L348.665 877.651 L348.665 908.276 L356.304 908.276 L356.304 912.211 L336.396 912.211 L336.396 908.276 Z" fill="#000000" fill-rule="nonzero" fill-opacity="1" /><path clip-path="url(#clip040)" d="M375.748 880.73 Q372.137 880.73 370.308 884.295 Q368.503 887.836 368.503 894.966 Q368.503 902.073 370.308 905.637 Q372.137 909.179 375.748 909.179 Q379.382 909.179 381.188 905.637 Q383.017 902.073 383.017 894.966 Q383.017 887.836 381.188 884.295 Q379.382 880.73 375.748 880.73 M375.748 877.026 Q381.558 877.026 384.614 881.633 Q387.692 886.216 387.692 894.966 Q387.692 903.693 384.614 908.299 Q381.558 912.883 375.748 912.883 Q369.938 912.883 366.859 908.299 Q363.804 903.693 363.804 894.966 Q363.804 886.216 366.859 881.633 Q369.938 877.026 375.748 877.026 Z" fill="#000000" fill-rule="nonzero" fill-opacity="1" /><path clip-path="url(#clip040)" d="M388.877 856.721 L403.792 856.721 L403.792 859.918 L392.357 859.918 L392.357 866.802 Q393.184 866.52 394.012 866.388 Q394.839 866.238 395.667 866.238 Q400.369 866.238 403.115 868.814 Q405.861 871.391 405.861 875.792 Q405.861 880.325 403.04 882.845 Q400.218 885.346 395.084 885.346 Q393.316 885.346 391.473 885.045 Q389.648 884.745 387.692 884.143 L387.692 880.325 Q389.385 881.246 391.191 881.698 Q392.996 882.149 395.009 882.149 Q398.262 882.149 400.162 880.438 Q402.062 878.726 402.062 875.792 Q402.062 872.858 400.162 871.147 Q398.262 869.435 395.009 869.435 Q393.485 869.435 391.962 869.774 Q390.457 870.112 388.877 870.827 L388.877 856.721 Z" fill="#000000" fill-rule="nonzero" fill-opacity="1" /><path clip-path="url(#clip040)" d="M191.119 372.811 L198.758 372.811 L198.758 346.446 L190.448 348.112 L190.448 343.853 L198.712 342.186 L203.388 342.186 L203.388 372.811 L211.027 372.811 L211.027 376.746 L191.119 376.746 L191.119 372.811 Z" fill="#000000" fill-rule="nonzero" fill-opacity="1" /><path clip-path="url(#clip040)" d="M220.471 370.867 L225.355 370.867 L225.355 376.746 L220.471 376.746 L220.471 370.867 Z" fill="#000000" fill-rule="nonzero" fill-opacity="1" /><path clip-path="url(#clip040)" d="M235.587 342.186 L253.943 342.186 L253.943 346.121 L239.869 346.121 L239.869 354.594 Q240.888 354.246 241.906 354.084 Q242.925 353.899 243.943 353.899 Q249.73 353.899 253.11 357.07 Q256.489 360.242 256.489 365.658 Q256.489 371.237 253.017 374.339 Q249.545 377.418 243.226 377.418 Q241.05 377.418 238.781 377.047 Q236.536 376.677 234.128 375.936 L234.128 371.237 Q236.212 372.371 238.434 372.927 Q240.656 373.482 243.133 373.482 Q247.138 373.482 249.476 371.376 Q251.814 369.269 251.814 365.658 Q251.814 362.047 249.476 359.941 Q247.138 357.834 243.133 357.834 Q241.258 357.834 239.383 358.251 Q237.531 358.668 235.587 359.547 L235.587 342.186 Z" fill="#000000" fill-rule="nonzero" fill-opacity="1" /><path clip-path="url(#clip040)" d="M275.702 345.265 Q272.091 345.265 270.263 348.83 Q268.457 352.371 268.457 359.501 Q268.457 366.607 270.263 370.172 Q272.091 373.714 275.702 373.714 Q279.337 373.714 281.142 370.172 Q282.971 366.607 282.971 359.501 Q282.971 352.371 281.142 348.83 Q279.337 345.265 275.702 345.265 M275.702 341.561 Q281.512 341.561 284.568 346.168 Q287.647 350.751 287.647 359.501 Q287.647 368.228 284.568 372.834 Q281.512 377.418 275.702 377.418 Q269.892 377.418 266.813 372.834 Q263.758 368.228 263.758 359.501 Q263.758 350.751 266.813 346.168 Q269.892 341.561 275.702 341.561 Z" fill="#000000" fill-rule="nonzero" fill-opacity="1" /><path clip-path="url(#clip040)" d="M324.035 351.283 L313.457 361.908 L324.035 372.487 L321.281 375.288 L310.656 364.663 L300.031 375.288 L297.299 372.487 L307.855 361.908 L297.299 351.283 L300.031 348.483 L310.656 359.108 L321.281 348.483 L324.035 351.283 Z" fill="#000000" fill-rule="nonzero" fill-opacity="1" /><path clip-path="url(#clip040)" d="M336.396 372.811 L344.035 372.811 L344.035 346.446 L335.725 348.112 L335.725 343.853 L343.989 342.186 L348.665 342.186 L348.665 372.811 L356.304 372.811 L356.304 376.746 L336.396 376.746 L336.396 372.811 Z" fill="#000000" fill-rule="nonzero" fill-opacity="1" /><path clip-path="url(#clip040)" d="M375.748 345.265 Q372.137 345.265 370.308 348.83 Q368.503 352.371 368.503 359.501 Q368.503 366.607 370.308 370.172 Q372.137 373.714 375.748 373.714 Q379.382 373.714 381.188 370.172 Q383.017 366.607 383.017 359.501 Q383.017 352.371 381.188 348.83 Q379.382 345.265 375.748 345.265 M375.748 341.561 Q381.558 341.561 384.614 346.168 Q387.692 350.751 387.692 359.501 Q387.692 368.228 384.614 372.834 Q381.558 377.418 375.748 377.418 Q369.938 377.418 366.859 372.834 Q363.804 368.228 363.804 359.501 Q363.804 350.751 366.859 346.168 Q369.938 341.561 375.748 341.561 Z" fill="#000000" fill-rule="nonzero" fill-opacity="1" /><path clip-path="url(#clip040)" d="M388.877 321.256 L403.792 321.256 L403.792 324.453 L392.357 324.453 L392.357 331.337 Q393.184 331.055 394.012 330.923 Q394.839 330.773 395.667 330.773 Q400.369 330.773 403.115 333.349 Q405.861 335.926 405.861 340.327 Q405.861 344.86 403.04 347.38 Q400.218 349.881 395.084 349.881 Q393.316 349.881 391.473 349.58 Q389.648 349.279 387.692 348.678 L387.692 344.86 Q389.385 345.781 391.191 346.233 Q392.996 346.684 395.009 346.684 Q398.262 346.684 400.162 344.973 Q402.062 343.261 402.062 340.327 Q402.062 337.393 400.162 335.681 Q398.262 333.97 395.009 333.97 Q393.485 333.97 391.962 334.308 Q390.457 334.647 388.877 335.362 L388.877 321.256 Z" fill="#000000" fill-rule="nonzero" fill-opacity="1" /><path clip-path="url(#clip040)" d="M73.8267 1358.68 L73.8267 1318.48 L79.2375 1318.48 L79.2375 1335.35 L121.347 1335.35 L121.347 1341.81 L79.2375 1341.81 L79.2375 1358.68 L73.8267 1358.68 Z" fill="#000000" fill-rule="nonzero" fill-opacity="1" /><path clip-path="url(#clip040)" d="M99.8306 1282.9 L121.347 1282.9 L121.347 1288.76 L100.022 1288.76 Q94.9608 1288.76 92.4464 1290.73 Q89.9319 1292.7 89.9319 1296.65 Q89.9319 1301.39 92.9556 1304.13 Q95.9793 1306.87 101.199 1306.87 L121.347 1306.87 L121.347 1312.75 L71.8215 1312.75 L71.8215 1306.87 L91.2369 1306.87 Q88.0222 1304.77 86.4308 1301.93 Q84.8393 1299.07 84.8393 1295.34 Q84.8393 1289.2 88.6588 1286.05 Q92.4464 1282.9 99.8306 1282.9 Z" fill="#000000" fill-rule="nonzero" fill-opacity="1" /><path clip-path="url(#clip040)" d="M91.1732 1250.56 Q90.6003 1251.55 90.3457 1252.73 Q90.0592 1253.87 90.0592 1255.27 Q90.0592 1260.24 93.3057 1262.91 Q96.5204 1265.55 102.568 1265.55 L121.347 1265.55 L121.347 1271.44 L85.6987 1271.44 L85.6987 1265.55 L91.2369 1265.55 Q87.9904 1263.71 86.4308 1260.75 Q84.8393 1257.79 84.8393 1253.55 Q84.8393 1252.95 84.9348 1252.22 Q84.9985 1251.48 85.1576 1250.59 L91.1732 1250.56 Z" fill="#000000" fill-rule="nonzero" fill-opacity="1" /><path clip-path="url(#clip040)" d="M89.8046 1232.04 Q89.8046 1236.75 93.4967 1239.49 Q97.157 1242.22 103.555 1242.22 Q109.952 1242.22 113.644 1239.52 Q117.304 1236.78 117.304 1232.04 Q117.304 1227.36 113.612 1224.62 Q109.92 1221.88 103.555 1221.88 Q97.2206 1221.88 93.5285 1224.62 Q89.8046 1227.36 89.8046 1232.04 M84.8393 1232.04 Q84.8393 1224.4 89.8046 1220.04 Q94.7698 1215.68 103.555 1215.68 Q112.307 1215.68 117.304 1220.04 Q122.27 1224.4 122.27 1232.04 Q122.27 1239.71 117.304 1244.07 Q112.307 1248.4 103.555 1248.4 Q94.7698 1248.4 89.8046 1244.07 Q84.8393 1239.71 84.8393 1232.04 Z" fill="#000000" fill-rule="nonzero" fill-opacity="1" /><path clip-path="url(#clip040)" d="M107.278 1206.57 L85.6987 1206.57 L85.6987 1200.72 L107.056 1200.72 Q112.116 1200.72 114.663 1198.74 Q117.177 1196.77 117.177 1192.82 Q117.177 1188.08 114.153 1185.34 Q111.13 1182.58 105.91 1182.58 L85.6987 1182.58 L85.6987 1176.72 L121.347 1176.72 L121.347 1182.58 L115.872 1182.58 Q119.119 1184.71 120.71 1187.54 Q122.27 1190.34 122.27 1194.07 Q122.27 1200.21 118.45 1203.39 Q114.631 1206.57 107.278 1206.57 M84.8393 1191.84 L84.8393 1191.84 Z" fill="#000000" fill-rule="nonzero" fill-opacity="1" /><path clip-path="url(#clip040)" d="M103.109 1141.2 Q96.7432 1141.2 93.2421 1143.84 Q89.7409 1146.45 89.7409 1151.19 Q89.7409 1155.9 93.2421 1158.55 Q96.7432 1161.16 103.109 1161.16 Q109.443 1161.16 112.944 1158.55 Q116.445 1155.9 116.445 1151.19 Q116.445 1146.45 112.944 1143.84 Q109.443 1141.2 103.109 1141.2 M116.923 1135.34 Q126.025 1135.34 130.45 1139.38 Q134.906 1143.43 134.906 1151.77 Q134.906 1154.85 134.428 1157.59 Q133.983 1160.33 133.028 1162.91 L127.33 1162.91 Q128.731 1160.33 129.399 1157.81 Q130.068 1155.3 130.068 1152.69 Q130.068 1146.93 127.044 1144.06 Q124.052 1141.2 117.973 1141.2 L115.076 1141.2 Q118.227 1143.01 119.787 1145.85 Q121.347 1148.68 121.347 1152.63 Q121.347 1159.18 116.35 1163.19 Q111.353 1167.2 103.109 1167.2 Q94.8335 1167.2 89.8364 1163.19 Q84.8393 1159.18 84.8393 1152.63 Q84.8393 1148.68 86.3989 1145.85 Q87.9585 1143.01 91.1096 1141.2 L85.6987 1141.2 L85.6987 1135.34 L116.923 1135.34 Z" fill="#000000" fill-rule="nonzero" fill-opacity="1" /><path clip-path="url(#clip040)" d="M99.8306 1093.65 L121.347 1093.65 L121.347 1099.5 L100.022 1099.5 Q94.9608 1099.5 92.4464 1101.48 Q89.9319 1103.45 89.9319 1107.4 Q89.9319 1112.14 92.9556 1114.88 Q95.9793 1117.61 101.199 1117.61 L121.347 1117.61 L121.347 1123.5 L71.8215 1123.5 L71.8215 1117.61 L91.2369 1117.61 Q88.0222 1115.51 86.4308 1112.68 Q84.8393 1109.82 84.8393 1106.09 Q84.8393 1099.95 88.6588 1096.8 Q92.4464 1093.65 99.8306 1093.65 Z" fill="#000000" fill-rule="nonzero" fill-opacity="1" /><path clip-path="url(#clip040)" d="M115.999 1076.3 L134.906 1076.3 L134.906 1082.19 L85.6987 1082.19 L85.6987 1076.3 L91.1096 1076.3 Q87.9267 1074.45 86.3989 1071.65 Q84.8393 1068.82 84.8393 1064.91 Q84.8393 1058.41 89.9956 1054.37 Q95.1518 1050.3 103.555 1050.3 Q111.957 1050.3 117.113 1054.37 Q122.27 1058.41 122.27 1064.91 Q122.27 1068.82 120.742 1071.65 Q119.182 1074.45 115.999 1076.3 M103.555 1056.38 Q97.0933 1056.38 93.433 1059.05 Q89.7409 1061.69 89.7409 1066.34 Q89.7409 1070.98 93.433 1073.66 Q97.0933 1076.3 103.555 1076.3 Q110.016 1076.3 113.708 1073.66 Q117.368 1070.98 117.368 1066.34 Q117.368 1061.69 113.708 1059.05 Q110.016 1056.38 103.555 1056.38 Z" fill="#000000" fill-rule="nonzero" fill-opacity="1" /><path clip-path="url(#clip040)" d="M107.278 1041.19 L85.6987 1041.19 L85.6987 1035.34 L107.056 1035.34 Q112.116 1035.34 114.663 1033.36 Q117.177 1031.39 117.177 1027.44 Q117.177 1022.7 114.153 1019.96 Q111.13 1017.19 105.91 1017.19 L85.6987 1017.19 L85.6987 1011.34 L121.347 1011.34 L121.347 1017.19 L115.872 1017.19 Q119.119 1019.33 120.71 1022.16 Q122.27 1024.96 122.27 1028.68 Q122.27 1034.83 118.45 1038.01 Q114.631 1041.19 107.278 1041.19 M84.8393 1026.46 L84.8393 1026.46 Z" fill="#000000" fill-rule="nonzero" fill-opacity="1" /><path clip-path="url(#clip040)" d="M75.5772 993.482 L85.6987 993.482 L85.6987 981.419 L90.2502 981.419 L90.2502 993.482 L109.602 993.482 Q113.962 993.482 115.204 992.305 Q116.445 991.095 116.445 987.435 L116.445 981.419 L121.347 981.419 L121.347 987.435 Q121.347 994.215 118.832 996.793 Q116.286 999.371 109.602 999.371 L90.2502 999.371 L90.2502 1003.67 L85.6987 1003.67 L85.6987 999.371 L75.5772 999.371 L75.5772 993.482 Z" fill="#000000" fill-rule="nonzero" fill-opacity="1" /><path clip-path="url(#clip040)" d="M71.8851 938.928 Q79.2057 943.193 86.3671 945.262 Q93.5285 947.331 100.881 947.331 Q108.233 947.331 115.458 945.262 Q122.652 943.162 129.94 938.928 L129.94 944.021 Q122.461 948.795 115.236 951.182 Q108.011 953.538 100.881 953.538 Q93.7832 953.538 86.5899 951.182 Q79.3967 948.827 71.8851 944.021 L71.8851 938.928 Z" fill="#000000" fill-rule="nonzero" fill-opacity="1" /><path clip-path="url(#clip040)" d="M91.1732 906.909 Q90.6003 907.896 90.3457 909.073 Q90.0592 910.219 90.0592 911.619 Q90.0592 916.585 93.3057 919.258 Q96.5204 921.9 102.568 921.9 L121.347 921.9 L121.347 927.788 L85.6987 927.788 L85.6987 921.9 L91.2369 921.9 Q87.9904 920.054 86.4308 917.094 Q84.8393 914.134 84.8393 909.901 Q84.8393 909.296 84.9348 908.564 Q84.9985 907.832 85.1576 906.941 L91.1732 906.909 Z" fill="#000000" fill-rule="nonzero" fill-opacity="1" /><path clip-path="url(#clip040)" d="M102.059 871.706 L104.923 871.706 L104.923 898.633 Q110.971 898.251 114.153 895.005 Q117.304 891.727 117.304 885.902 Q117.304 882.528 116.477 879.377 Q115.649 876.194 113.994 873.075 L119.532 873.075 Q120.869 876.226 121.569 879.536 Q122.27 882.846 122.27 886.252 Q122.27 894.782 117.304 899.779 Q112.339 904.744 103.873 904.744 Q95.12 904.744 89.9956 900.034 Q84.8393 895.291 84.8393 887.271 Q84.8393 880.077 89.4863 875.908 Q94.1014 871.706 102.059 871.706 M100.34 877.563 Q95.5337 877.627 92.6692 880.268 Q89.8046 882.878 89.8046 887.207 Q89.8046 892.109 92.5737 895.069 Q95.3428 897.997 100.372 898.442 L100.34 877.563 Z" fill="#000000" fill-rule="nonzero" fill-opacity="1" /><path clip-path="url(#clip040)" d="M103.555 858.593 Q110.016 858.593 113.708 855.951 Q117.368 853.278 117.368 848.631 Q117.368 843.984 113.708 841.31 Q110.016 838.637 103.555 838.637 Q97.0933 838.637 93.433 841.31 Q89.7409 843.984 89.7409 848.631 Q89.7409 853.278 93.433 855.951 Q97.0933 858.593 103.555 858.593 M115.999 838.637 Q119.182 840.483 120.742 843.315 Q122.27 846.116 122.27 850.063 Q122.27 856.524 117.113 860.598 Q111.957 864.641 103.555 864.641 Q95.1518 864.641 89.9956 860.598 Q84.8393 856.524 84.8393 850.063 Q84.8393 846.116 86.3989 843.315 Q87.9267 840.483 91.1096 838.637 L85.6987 838.637 L85.6987 832.78 L134.906 832.78 L134.906 838.637 L115.999 838.637 Z" fill="#000000" fill-rule="nonzero" fill-opacity="1" /><path clip-path="url(#clip040)" d="M73.8267 810.309 L73.8267 804.898 L127.394 821.449 L127.394 826.86 L73.8267 810.309 Z" fill="#000000" fill-rule="nonzero" fill-opacity="1" /><path clip-path="url(#clip040)" d="M86.7491 776.03 L92.2872 776.03 Q91.0141 778.513 90.3775 781.186 Q89.7409 783.86 89.7409 786.724 Q89.7409 791.085 91.0777 793.281 Q92.4145 795.445 95.0881 795.445 Q97.1252 795.445 98.3028 793.886 Q99.4486 792.326 100.499 787.615 L100.945 785.61 Q102.281 779.372 104.732 776.762 Q107.151 774.12 111.512 774.12 Q116.477 774.12 119.373 778.067 Q122.27 781.982 122.27 788.857 Q122.27 791.721 121.697 794.841 Q121.156 797.928 120.042 801.365 L113.994 801.365 Q115.681 798.119 116.541 794.968 Q117.368 791.817 117.368 788.729 Q117.368 784.592 115.968 782.364 Q114.535 780.136 111.957 780.136 Q109.57 780.136 108.297 781.759 Q107.024 783.35 105.846 788.793 L105.369 790.83 Q104.223 796.273 101.868 798.692 Q99.4805 801.111 95.3428 801.111 Q90.3138 801.111 87.5766 797.546 Q84.8393 793.981 84.8393 787.425 Q84.8393 784.178 85.3168 781.313 Q85.7942 778.449 86.7491 776.03 Z" fill="#000000" fill-rule="nonzero" fill-opacity="1" /><path clip-path="url(#clip040)" d="M71.8851 765.717 L71.8851 760.625 Q79.3967 755.851 86.5899 753.495 Q93.7832 751.108 100.881 751.108 Q108.011 751.108 115.236 753.495 Q122.461 755.851 129.94 760.625 L129.94 765.717 Q122.652 761.484 115.458 759.415 Q108.233 757.315 100.881 757.315 Q93.5285 757.315 86.3671 759.415 Q79.2057 761.484 71.8851 765.717 Z" fill="#000000" fill-rule="nonzero" fill-opacity="1" /><path clip-path="url(#clip040)" d="M1147.37 12.096 L1198.53 12.096 L1198.53 18.9825 L1177.06 18.9825 L1177.06 72.576 L1168.84 72.576 L1168.84 18.9825 L1147.37 18.9825 L1147.37 12.096 Z" fill="#000000" fill-rule="nonzero" fill-opacity="1" /><path clip-path="url(#clip040)" d="M1243.82 45.1919 L1243.82 72.576 L1236.37 72.576 L1236.37 45.4349 Q1236.37 38.994 1233.86 35.7938 Q1231.35 32.5936 1226.32 32.5936 Q1220.29 32.5936 1216.8 36.4419 Q1213.32 40.2903 1213.32 46.9338 L1213.32 72.576 L1205.82 72.576 L1205.82 9.54393 L1213.32 9.54393 L1213.32 34.2544 Q1215.99 30.163 1219.6 28.1376 Q1223.24 26.1121 1227.98 26.1121 Q1235.8 26.1121 1239.81 30.9732 Q1243.82 35.7938 1243.82 45.1919 Z" fill="#000000" fill-rule="nonzero" fill-opacity="1" /><path clip-path="url(#clip040)" d="M1284.98 34.1734 Q1283.72 33.4443 1282.22 33.1202 Q1280.77 32.7556 1278.98 32.7556 Q1272.66 32.7556 1269.26 36.8875 Q1265.9 40.9789 1265.9 48.6757 L1265.9 72.576 L1258.41 72.576 L1258.41 27.2059 L1265.9 27.2059 L1265.9 34.2544 Q1268.25 30.1225 1272.02 28.1376 Q1275.78 26.1121 1281.17 26.1121 Q1281.94 26.1121 1282.87 26.2337 Q1283.8 26.3147 1284.94 26.5172 L1284.98 34.1734 Z" fill="#000000" fill-rule="nonzero" fill-opacity="1" /><path clip-path="url(#clip040)" d="M1308.56 32.4315 Q1302.56 32.4315 1299.08 37.1306 Q1295.59 41.7891 1295.59 49.9314 Q1295.59 58.0738 1299.04 62.7728 Q1302.52 67.4314 1308.56 67.4314 Q1314.51 67.4314 1317.99 62.7323 Q1321.48 58.0333 1321.48 49.9314 Q1321.48 41.8701 1317.99 37.1711 Q1314.51 32.4315 1308.56 32.4315 M1308.56 26.1121 Q1318.28 26.1121 1323.83 32.4315 Q1329.38 38.7509 1329.38 49.9314 Q1329.38 61.0714 1323.83 67.4314 Q1318.28 73.7508 1308.56 73.7508 Q1298.79 73.7508 1293.24 67.4314 Q1287.73 61.0714 1287.73 49.9314 Q1287.73 38.7509 1293.24 32.4315 Q1298.79 26.1121 1308.56 26.1121 Z" fill="#000000" fill-rule="nonzero" fill-opacity="1" /><path clip-path="url(#clip040)" d="M1340.96 54.671 L1340.96 27.2059 L1348.42 27.2059 L1348.42 54.3874 Q1348.42 60.8284 1350.93 64.0691 Q1353.44 67.2693 1358.46 67.2693 Q1364.5 67.2693 1367.98 63.421 Q1371.51 59.5726 1371.51 52.9291 L1371.51 27.2059 L1378.96 27.2059 L1378.96 72.576 L1371.51 72.576 L1371.51 65.6084 Q1368.79 69.7404 1365.19 71.7658 Q1361.62 73.7508 1356.88 73.7508 Q1349.06 73.7508 1345.01 68.8897 Q1340.96 64.0286 1340.96 54.671 M1359.72 26.1121 L1359.72 26.1121 Z" fill="#000000" fill-rule="nonzero" fill-opacity="1" /><path clip-path="url(#clip040)" d="M1424.17 49.3643 Q1424.17 41.2625 1420.81 36.8065 Q1417.48 32.3505 1411.45 32.3505 Q1405.45 32.3505 1402.09 36.8065 Q1398.77 41.2625 1398.77 49.3643 Q1398.77 57.4256 1402.09 61.8816 Q1405.45 66.3376 1411.45 66.3376 Q1417.48 66.3376 1420.81 61.8816 Q1424.17 57.4256 1424.17 49.3643 M1431.62 66.9452 Q1431.62 78.5308 1426.48 84.1616 Q1421.33 89.8329 1410.72 89.8329 Q1406.79 89.8329 1403.31 89.2252 Q1399.82 88.6581 1396.54 87.4428 L1396.54 80.1917 Q1399.82 81.9741 1403.02 82.8248 Q1406.22 83.6755 1409.54 83.6755 Q1416.88 83.6755 1420.52 79.8271 Q1424.17 76.0193 1424.17 68.282 L1424.17 64.5957 Q1421.86 68.6061 1418.25 70.5911 Q1414.65 72.576 1409.63 72.576 Q1401.28 72.576 1396.18 66.2161 Q1391.07 59.8562 1391.07 49.3643 Q1391.07 38.832 1396.18 32.472 Q1401.28 26.1121 1409.63 26.1121 Q1414.65 26.1121 1418.25 28.0971 Q1421.86 30.082 1424.17 34.0924 L1424.17 27.2059 L1431.62 27.2059 L1431.62 66.9452 Z" fill="#000000" fill-rule="nonzero" fill-opacity="1" /><path clip-path="url(#clip040)" d="M1484.69 45.1919 L1484.69 72.576 L1477.24 72.576 L1477.24 45.4349 Q1477.24 38.994 1474.72 35.7938 Q1472.21 32.5936 1467.19 32.5936 Q1461.15 32.5936 1457.67 36.4419 Q1454.19 40.2903 1454.19 46.9338 L1454.19 72.576 L1446.69 72.576 L1446.69 9.54393 L1454.19 9.54393 L1454.19 34.2544 Q1456.86 30.163 1460.46 28.1376 Q1464.11 26.1121 1468.85 26.1121 Q1476.67 26.1121 1480.68 30.9732 Q1484.69 35.7938 1484.69 45.1919 Z" fill="#000000" fill-rule="nonzero" fill-opacity="1" /><path clip-path="url(#clip040)" d="M1506.77 65.7705 L1506.77 89.8329 L1499.27 89.8329 L1499.27 27.2059 L1506.77 27.2059 L1506.77 34.0924 Q1509.12 30.0415 1512.68 28.0971 Q1516.29 26.1121 1521.27 26.1121 Q1529.53 26.1121 1534.68 32.6746 Q1539.86 39.2371 1539.86 49.9314 Q1539.86 60.6258 1534.68 67.1883 Q1529.53 73.7508 1521.27 73.7508 Q1516.29 73.7508 1512.68 71.8063 Q1509.12 69.8214 1506.77 65.7705 M1532.13 49.9314 Q1532.13 41.7081 1528.72 37.0496 Q1525.36 32.3505 1519.45 32.3505 Q1513.53 32.3505 1510.13 37.0496 Q1506.77 41.7081 1506.77 49.9314 Q1506.77 58.1548 1510.13 62.8538 Q1513.53 67.5124 1519.45 67.5124 Q1525.36 67.5124 1528.72 62.8538 Q1532.13 58.1548 1532.13 49.9314 Z" fill="#000000" fill-rule="nonzero" fill-opacity="1" /><path clip-path="url(#clip040)" d="M1551.45 54.671 L1551.45 27.2059 L1558.9 27.2059 L1558.9 54.3874 Q1558.9 60.8284 1561.41 64.0691 Q1563.92 67.2693 1568.95 67.2693 Q1574.98 67.2693 1578.47 63.421 Q1581.99 59.5726 1581.99 52.9291 L1581.99 27.2059 L1589.45 27.2059 L1589.45 72.576 L1581.99 72.576 L1581.99 65.6084 Q1579.28 69.7404 1575.67 71.7658 Q1572.11 73.7508 1567.37 73.7508 Q1559.55 73.7508 1555.5 68.8897 Q1551.45 64.0286 1551.45 54.671 M1570.2 26.1121 L1570.2 26.1121 Z" fill="#000000" fill-rule="nonzero" fill-opacity="1" /><path clip-path="url(#clip040)" d="M1612.17 14.324 L1612.17 27.2059 L1627.52 27.2059 L1627.52 32.9987 L1612.17 32.9987 L1612.17 57.6282 Q1612.17 63.1779 1613.67 64.7578 Q1615.21 66.3376 1619.87 66.3376 L1627.52 66.3376 L1627.52 72.576 L1619.87 72.576 Q1611.24 72.576 1607.96 69.3758 Q1604.68 66.1351 1604.68 57.6282 L1604.68 32.9987 L1599.21 32.9987 L1599.21 27.2059 L1604.68 27.2059 L1604.68 14.324 L1612.17 14.324 Z" fill="#000000" fill-rule="nonzero" fill-opacity="1" /><path clip-path="url(#clip040)" d="M1700.28 14.0809 L1700.28 22.0612 Q1695.62 19.8332 1691.49 18.7395 Q1687.36 17.6457 1683.51 17.6457 Q1676.82 17.6457 1673.18 20.2383 Q1669.57 22.8309 1669.57 27.611 Q1669.57 31.6214 1671.96 33.6873 Q1674.39 35.7128 1681.12 36.9686 L1686.06 37.9813 Q1695.21 39.7232 1699.55 44.1387 Q1703.92 48.5136 1703.92 55.8863 Q1703.92 64.6767 1698.01 69.2137 Q1692.14 73.7508 1680.75 73.7508 Q1676.46 73.7508 1671.6 72.7785 Q1666.78 71.8063 1661.59 69.9024 L1661.59 61.4765 Q1666.57 64.2716 1671.35 65.6895 Q1676.13 67.1073 1680.75 67.1073 Q1687.76 67.1073 1691.57 64.3527 Q1695.38 61.598 1695.38 56.4939 Q1695.38 52.0379 1692.62 49.5264 Q1689.91 47.0148 1683.67 45.759 L1678.69 44.7868 Q1669.53 42.9639 1665.44 39.075 Q1661.35 35.1862 1661.35 28.2591 Q1661.35 20.2383 1666.98 15.6203 Q1672.65 11.0023 1682.58 11.0023 Q1686.83 11.0023 1691.24 11.7719 Q1695.66 12.5416 1700.28 14.0809 Z" fill="#000000" fill-rule="nonzero" fill-opacity="1" /><path clip-path="url(#clip040)" d="M1749.01 28.9478 L1749.01 35.9153 Q1745.85 34.1734 1742.65 33.3227 Q1739.49 32.4315 1736.25 32.4315 Q1729 32.4315 1724.99 37.0496 Q1720.98 41.6271 1720.98 49.9314 Q1720.98 58.2358 1724.99 62.8538 Q1729 67.4314 1736.25 67.4314 Q1739.49 67.4314 1742.65 66.5807 Q1745.85 65.6895 1749.01 63.9476 L1749.01 70.8341 Q1745.89 72.2924 1742.53 73.0216 Q1739.21 73.7508 1735.44 73.7508 Q1725.19 73.7508 1719.16 67.3098 Q1713.12 60.8689 1713.12 49.9314 Q1713.12 38.832 1719.2 32.472 Q1725.31 26.1121 1735.93 26.1121 Q1739.37 26.1121 1742.65 26.8413 Q1745.93 27.5299 1749.01 28.9478 Z" fill="#000000" fill-rule="nonzero" fill-opacity="1" /><path clip-path="url(#clip040)" d="M1782.59 49.7694 Q1773.56 49.7694 1770.08 51.8354 Q1766.59 53.9013 1766.59 58.8839 Q1766.59 62.8538 1769.18 65.2034 Q1771.82 67.5124 1776.31 67.5124 Q1782.51 67.5124 1786.24 63.1374 Q1790.01 58.7219 1790.01 51.4303 L1790.01 49.7694 L1782.59 49.7694 M1797.46 46.6907 L1797.46 72.576 L1790.01 72.576 L1790.01 65.6895 Q1787.45 69.8214 1783.65 71.8063 Q1779.84 73.7508 1774.33 73.7508 Q1767.36 73.7508 1763.23 69.8619 Q1759.14 65.9325 1759.14 59.3701 Q1759.14 51.7138 1764.24 47.825 Q1769.39 43.9361 1779.55 43.9361 L1790.01 43.9361 L1790.01 43.2069 Q1790.01 38.0623 1786.6 35.2672 Q1783.24 32.4315 1777.12 32.4315 Q1773.23 32.4315 1769.55 33.3632 Q1765.86 34.295 1762.46 36.1584 L1762.46 29.2718 Q1766.55 27.692 1770.4 26.9223 Q1774.25 26.1121 1777.89 26.1121 Q1787.74 26.1121 1792.6 31.2163 Q1797.46 36.3204 1797.46 46.6907 Z" fill="#000000" fill-rule="nonzero" fill-opacity="1" /><path clip-path="url(#clip040)" d="M1812.81 9.54393 L1820.27 9.54393 L1820.27 72.576 L1812.81 72.576 L1812.81 9.54393 Z" fill="#000000" fill-rule="nonzero" fill-opacity="1" /><path clip-path="url(#clip040)" d="M1835.86 27.2059 L1843.32 27.2059 L1843.32 72.576 L1835.86 72.576 L1835.86 27.2059 M1835.86 9.54393 L1843.32 9.54393 L1843.32 18.9825 L1835.86 18.9825 L1835.86 9.54393 Z" fill="#000000" fill-rule="nonzero" fill-opacity="1" /><path clip-path="url(#clip040)" d="M1896.63 45.1919 L1896.63 72.576 L1889.17 72.576 L1889.17 45.4349 Q1889.17 38.994 1886.66 35.7938 Q1884.15 32.5936 1879.13 32.5936 Q1873.09 32.5936 1869.61 36.4419 Q1866.12 40.2903 1866.12 46.9338 L1866.12 72.576 L1858.63 72.576 L1858.63 27.2059 L1866.12 27.2059 L1866.12 34.2544 Q1868.8 30.163 1872.4 28.1376 Q1876.05 26.1121 1880.79 26.1121 Q1888.6 26.1121 1892.62 30.9732 Q1896.63 35.7938 1896.63 45.1919 Z" fill="#000000" fill-rule="nonzero" fill-opacity="1" /><path clip-path="url(#clip040)" d="M1941.35 49.3643 Q1941.35 41.2625 1937.99 36.8065 Q1934.66 32.3505 1928.63 32.3505 Q1922.63 32.3505 1919.27 36.8065 Q1915.95 41.2625 1915.95 49.3643 Q1915.95 57.4256 1919.27 61.8816 Q1922.63 66.3376 1928.63 66.3376 Q1934.66 66.3376 1937.99 61.8816 Q1941.35 57.4256 1941.35 49.3643 M1948.8 66.9452 Q1948.8 78.5308 1943.66 84.1616 Q1938.51 89.8329 1927.9 89.8329 Q1923.97 89.8329 1920.49 89.2252 Q1917 88.6581 1913.72 87.4428 L1913.72 80.1917 Q1917 81.9741 1920.2 82.8248 Q1923.4 83.6755 1926.72 83.6755 Q1934.06 83.6755 1937.7 79.8271 Q1941.35 76.0193 1941.35 68.282 L1941.35 64.5957 Q1939.04 68.6061 1935.43 70.5911 Q1931.83 72.576 1926.8 72.576 Q1918.46 72.576 1913.36 66.2161 Q1908.25 59.8562 1908.25 49.3643 Q1908.25 38.832 1913.36 32.472 Q1918.46 26.1121 1926.8 26.1121 Q1931.83 26.1121 1935.43 28.0971 Q1939.04 30.082 1941.35 34.0924 L1941.35 27.2059 L1948.8 27.2059 L1948.8 66.9452 Z" fill="#000000" fill-rule="nonzero" fill-opacity="1" /><path clip-path="url(#clip040)" d="M1985.18 27.2059 L1993.08 27.2059 L2007.26 65.2844 L2021.43 27.2059 L2029.33 27.2059 L2012.32 72.576 L2002.19 72.576 L1985.18 27.2059 Z" fill="#000000" fill-rule="nonzero" fill-opacity="1" /><path clip-path="url(#clip040)" d="M2068.55 28.5427 L2068.55 35.5912 Q2065.39 33.9709 2061.98 33.1607 Q2058.58 32.3505 2054.93 32.3505 Q2049.39 32.3505 2046.59 34.0519 Q2043.84 35.7533 2043.84 39.156 Q2043.84 41.7486 2045.82 43.2475 Q2047.81 44.7058 2053.8 46.0426 L2056.35 46.6097 Q2064.29 48.3111 2067.61 51.4303 Q2070.98 54.509 2070.98 60.0587 Q2070.98 66.3781 2065.95 70.0644 Q2060.97 73.7508 2052.22 73.7508 Q2048.57 73.7508 2044.61 73.0216 Q2040.68 72.3329 2036.3 70.9151 L2036.3 63.2184 Q2040.43 65.3654 2044.44 66.4591 Q2048.45 67.5124 2052.38 67.5124 Q2057.65 67.5124 2060.48 65.73 Q2063.32 63.9071 2063.32 60.6258 Q2063.32 57.5877 2061.25 55.9673 Q2059.23 54.3469 2052.3 52.8481 L2049.71 52.2405 Q2042.78 50.7821 2039.7 47.7845 Q2036.62 44.7463 2036.62 39.4801 Q2036.62 33.0797 2041.16 29.5959 Q2045.7 26.1121 2054.04 26.1121 Q2058.18 26.1121 2061.82 26.7198 Q2065.47 27.3274 2068.55 28.5427 Z" fill="#000000" fill-rule="nonzero" fill-opacity="1" /><path clip-path="url(#clip040)" d="M2101.16 12.096 L2152.32 12.096 L2152.32 18.9825 L2130.85 18.9825 L2130.85 72.576 L2122.63 72.576 L2122.63 18.9825 L2101.16 18.9825 L2101.16 12.096 Z" fill="#000000" fill-rule="nonzero" fill-opacity="1" /><path clip-path="url(#clip040)" d="M2197.61 45.1919 L2197.61 72.576 L2190.15 72.576 L2190.15 45.4349 Q2190.15 38.994 2187.64 35.7938 Q2185.13 32.5936 2180.11 32.5936 Q2174.07 32.5936 2170.59 36.4419 Q2167.1 40.2903 2167.1 46.9338 L2167.1 72.576 L2159.61 72.576 L2159.61 9.54393 L2167.1 9.54393 L2167.1 34.2544 Q2169.78 30.163 2173.38 28.1376 Q2177.03 26.1121 2181.77 26.1121 Q2189.59 26.1121 2193.6 30.9732 Q2197.61 35.7938 2197.61 45.1919 Z" fill="#000000" fill-rule="nonzero" fill-opacity="1" /><path clip-path="url(#clip040)" d="M2238.76 34.1734 Q2237.51 33.4443 2236.01 33.1202 Q2234.55 32.7556 2232.77 32.7556 Q2226.45 32.7556 2223.05 36.8875 Q2219.69 40.9789 2219.69 48.6757 L2219.69 72.576 L2212.19 72.576 L2212.19 27.2059 L2219.69 27.2059 L2219.69 34.2544 Q2222.03 30.1225 2225.8 28.1376 Q2229.57 26.1121 2234.96 26.1121 Q2235.73 26.1121 2236.66 26.2337 Q2237.59 26.3147 2238.72 26.5172 L2238.76 34.1734 Z" fill="#000000" fill-rule="nonzero" fill-opacity="1" /><path clip-path="url(#clip040)" d="M2283.57 48.0275 L2283.57 51.6733 L2249.3 51.6733 Q2249.78 59.3701 2253.92 63.421 Q2258.09 67.4314 2265.5 67.4314 Q2269.79 67.4314 2273.81 66.3781 Q2277.86 65.3249 2281.83 63.2184 L2281.83 70.267 Q2277.82 71.9684 2273.6 72.8596 Q2269.39 73.7508 2265.06 73.7508 Q2254.2 73.7508 2247.84 67.4314 Q2241.52 61.1119 2241.52 50.3365 Q2241.52 39.1965 2247.51 32.6746 Q2253.55 26.1121 2263.76 26.1121 Q2272.91 26.1121 2278.22 32.0264 Q2283.57 37.9003 2283.57 48.0275 M2276.11 45.84 Q2276.03 39.7232 2272.67 36.0774 Q2269.35 32.4315 2263.84 32.4315 Q2257.6 32.4315 2253.83 35.9558 Q2250.11 39.4801 2249.54 45.8805 L2276.11 45.84 Z" fill="#000000" fill-rule="nonzero" fill-opacity="1" /><path clip-path="url(#clip040)" d="M2316.42 49.7694 Q2307.39 49.7694 2303.9 51.8354 Q2300.42 53.9013 2300.42 58.8839 Q2300.42 62.8538 2303.01 65.2034 Q2305.65 67.5124 2310.14 67.5124 Q2316.34 67.5124 2320.07 63.1374 Q2323.83 58.7219 2323.83 51.4303 L2323.83 49.7694 L2316.42 49.7694 M2331.29 46.6907 L2331.29 72.576 L2323.83 72.576 L2323.83 65.6895 Q2321.28 69.8214 2317.47 71.8063 Q2313.67 73.7508 2308.16 73.7508 Q2301.19 73.7508 2297.06 69.8619 Q2292.97 65.9325 2292.97 59.3701 Q2292.97 51.7138 2298.07 47.825 Q2303.21 43.9361 2313.38 43.9361 L2323.83 43.9361 L2323.83 43.2069 Q2323.83 38.0623 2320.43 35.2672 Q2317.07 32.4315 2310.95 32.4315 Q2307.06 32.4315 2303.38 33.3632 Q2299.69 34.295 2296.29 36.1584 L2296.29 29.2718 Q2300.38 27.692 2304.23 26.9223 Q2308.08 26.1121 2311.72 26.1121 Q2321.57 26.1121 2326.43 31.2163 Q2331.29 36.3204 2331.29 46.6907 Z" fill="#000000" fill-rule="nonzero" fill-opacity="1" /><path clip-path="url(#clip040)" d="M2376.5 34.0924 L2376.5 9.54393 L2383.95 9.54393 L2383.95 72.576 L2376.5 72.576 L2376.5 65.7705 Q2374.15 69.8214 2370.54 71.8063 Q2366.98 73.7508 2361.95 73.7508 Q2353.73 73.7508 2348.54 67.1883 Q2343.4 60.6258 2343.4 49.9314 Q2343.4 39.2371 2348.54 32.6746 Q2353.73 26.1121 2361.95 26.1121 Q2366.98 26.1121 2370.54 28.0971 Q2374.15 30.0415 2376.5 34.0924 M2351.1 49.9314 Q2351.1 58.1548 2354.46 62.8538 Q2357.86 67.5124 2363.78 67.5124 Q2369.69 67.5124 2373.09 62.8538 Q2376.5 58.1548 2376.5 49.9314 Q2376.5 41.7081 2373.09 37.0496 Q2369.69 32.3505 2363.78 32.3505 Q2357.86 32.3505 2354.46 37.0496 Q2351.1 41.7081 2351.1 49.9314 Z" fill="#000000" fill-rule="nonzero" fill-opacity="1" /><path clip-path="url(#clip040)" d="M2471.29 16.7545 L2471.29 25.383 Q2467.15 21.5346 2462.46 19.6307 Q2457.8 17.7268 2452.53 17.7268 Q2442.16 17.7268 2436.65 24.0867 Q2431.14 30.4061 2431.14 42.3968 Q2431.14 54.3469 2436.65 60.7069 Q2442.16 67.0263 2452.53 67.0263 Q2457.8 67.0263 2462.46 65.1223 Q2467.15 63.2184 2471.29 59.3701 L2471.29 67.9175 Q2466.99 70.8341 2462.17 72.2924 Q2457.39 73.7508 2452.04 73.7508 Q2438.31 73.7508 2430.41 65.3654 Q2422.51 56.9395 2422.51 42.3968 Q2422.51 27.8135 2430.41 19.4281 Q2438.31 11.0023 2452.04 11.0023 Q2457.47 11.0023 2462.25 12.4606 Q2467.07 13.8784 2471.29 16.7545 Z" fill="#000000" fill-rule="nonzero" fill-opacity="1" /><path clip-path="url(#clip040)" d="M2501.18 32.4315 Q2495.19 32.4315 2491.7 37.1306 Q2488.22 41.7891 2488.22 49.9314 Q2488.22 58.0738 2491.66 62.7728 Q2495.15 67.4314 2501.18 67.4314 Q2507.14 67.4314 2510.62 62.7323 Q2514.1 58.0333 2514.1 49.9314 Q2514.1 41.8701 2510.62 37.1711 Q2507.14 32.4315 2501.18 32.4315 M2501.18 26.1121 Q2510.9 26.1121 2516.45 32.4315 Q2522 38.7509 2522 49.9314 Q2522 61.0714 2516.45 67.4314 Q2510.9 73.7508 2501.18 73.7508 Q2491.42 73.7508 2485.87 67.4314 Q2480.36 61.0714 2480.36 49.9314 Q2480.36 38.7509 2485.87 32.4315 Q2491.42 26.1121 2501.18 26.1121 Z" fill="#000000" fill-rule="nonzero" fill-opacity="1" /><path clip-path="url(#clip040)" d="M2533.59 54.671 L2533.59 27.2059 L2541.04 27.2059 L2541.04 54.3874 Q2541.04 60.8284 2543.55 64.0691 Q2546.07 67.2693 2551.09 67.2693 Q2557.13 67.2693 2560.61 63.421 Q2564.13 59.5726 2564.13 52.9291 L2564.13 27.2059 L2571.59 27.2059 L2571.59 72.576 L2564.13 72.576 L2564.13 65.6084 Q2561.42 69.7404 2557.81 71.7658 Q2554.25 73.7508 2549.51 73.7508 Q2541.69 73.7508 2537.64 68.8897 Q2533.59 64.0286 2533.59 54.671 M2552.35 26.1121 L2552.35 26.1121 Z" fill="#000000" fill-rule="nonzero" fill-opacity="1" /><path clip-path="url(#clip040)" d="M2624.65 45.1919 L2624.65 72.576 L2617.2 72.576 L2617.2 45.4349 Q2617.2 38.994 2614.69 35.7938 Q2612.18 32.5936 2607.15 32.5936 Q2601.12 32.5936 2597.63 36.4419 Q2594.15 40.2903 2594.15 46.9338 L2594.15 72.576 L2586.66 72.576 L2586.66 27.2059 L2594.15 27.2059 L2594.15 34.2544 Q2596.82 30.163 2600.43 28.1376 Q2604.08 26.1121 2608.81 26.1121 Q2616.63 26.1121 2620.64 30.9732 Q2624.65 35.7938 2624.65 45.1919 Z" fill="#000000" fill-rule="nonzero" fill-opacity="1" /><path clip-path="url(#clip040)" d="M2646.89 14.324 L2646.89 27.2059 L2662.25 27.2059 L2662.25 32.9987 L2646.89 32.9987 L2646.89 57.6282 Q2646.89 63.1779 2648.39 64.7578 Q2649.93 66.3376 2654.59 66.3376 L2662.25 66.3376 L2662.25 72.576 L2654.59 72.576 Q2645.96 72.576 2642.68 69.3758 Q2639.4 66.1351 2639.4 57.6282 L2639.4 32.9987 L2633.93 32.9987 L2633.93 27.2059 L2639.4 27.2059 L2639.4 14.324 L2646.89 14.324 Z" fill="#000000" fill-rule="nonzero" fill-opacity="1" /><path clip-path="url(#clip042)" d="M538.82 1935.28 L1221.81 1912.59 L1621.34 1890.01 L1904.81 1868.95 L2304.33 1842.31 L2587.8 1811.71 L2987.33 1788.8 L3270.8 1773.53 L3270.8 1769.2 L2987.33 1783.22 L2587.8 1805.27 L2304.33 1830.52 L1904.81 1867.69 L1621.34 1889.61 L1221.81 1910.71 L538.82 1935.08  Z" fill="#0072b2" fill-rule="evenodd" fill-opacity="0.2"/>
<polyline clip-path="url(#clip042)" style="stroke:#0072b2; stroke-linecap:round; stroke-linejoin:round; stroke-width:8; stroke-opacity:1; fill:none" points="538.82,1935.25 1221.81,1910.93 1621.34,1889.66 1904.81,1868.03 2304.33,1835.49 2587.8,1806.55 2987.33,1786.99 3270.8,1770.93 "/>
<circle clip-path="url(#clip042)" cx="538.82" cy="1935.25" r="14.4" fill="#0072b2" fill-rule="evenodd" fill-opacity="1" stroke="#000000" stroke-opacity="1" stroke-width="4.4"/>
<circle clip-path="url(#clip042)" cx="1221.81" cy="1910.93" r="14.4" fill="#0072b2" fill-rule="evenodd" fill-opacity="1" stroke="#000000" stroke-opacity="1" stroke-width="4.4"/>
<circle clip-path="url(#clip042)" cx="1621.34" cy="1889.66" r="14.4" fill="#0072b2" fill-rule="evenodd" fill-opacity="1" stroke="#000000" stroke-opacity="1" stroke-width="4.4"/>
<circle clip-path="url(#clip042)" cx="1904.81" cy="1868.03" r="14.4" fill="#0072b2" fill-rule="evenodd" fill-opacity="1" stroke="#000000" stroke-opacity="1" stroke-width="4.4"/>
<circle clip-path="url(#clip042)" cx="2304.33" cy="1835.49" r="14.4" fill="#0072b2" fill-rule="evenodd" fill-opacity="1" stroke="#000000" stroke-opacity="1" stroke-width="4.4"/>
<circle clip-path="url(#clip042)" cx="2587.8" cy="1806.55" r="14.4" fill="#0072b2" fill-rule="evenodd" fill-opacity="1" stroke="#000000" stroke-opacity="1" stroke-width="4.4"/>
<circle clip-path="url(#clip042)" cx="2987.33" cy="1786.99" r="14.4" fill="#0072b2" fill-rule="evenodd" fill-opacity="1" stroke="#000000" stroke-opacity="1" stroke-width="4.4"/>
<circle clip-path="url(#clip042)" cx="3270.8" cy="1770.93" r="14.4" fill="#0072b2" fill-rule="evenodd" fill-opacity="1" stroke="#000000" stroke-opacity="1" stroke-width="4.4"/>
<path clip-path="url(#clip042)" d="M538.82 1860.48 L1221.81 1773.01 L1621.34 1692.68 L1904.81 1738.14 L2304.33 1716.97 L2587.8 1107.65 L2987.33 509.332 L3270.8 374.898 L3270.8 174.516 L2987.33 477.065 L2587.8 1066.45 L2304.33 1569.88 L1904.81 1734.79 L1621.34 1683.42 L1221.81 1769.75 L538.82 1857.11  Z" fill="#d55e00" fill-rule="evenodd" fill-opacity="0.2"/>
<polyline clip-path="url(#clip042)" style="stroke:#d55e00; stroke-linecap:round; stroke-linejoin:round; stroke-width:8; stroke-opacity:1; fill:none" points="538.82,1859.75 1221.81,1770.16 1621.34,1685.76 1904.81,1735.49 2304.33,1693.96 2587.8,1078.7 2987.33,507.682 3270.8,192.786 "/>
<circle clip-path="url(#clip042)" cx="538.82" cy="1859.75" r="14.4" fill="#d55e00" fill-rule="evenodd" fill-opacity="1" stroke="#000000" stroke-opacity="1" stroke-width="4.4"/>
<circle clip-path="url(#clip042)" cx="1221.81" cy="1770.16" r="14.4" fill="#d55e00" fill-rule="evenodd" fill-opacity="1" stroke="#000000" stroke-opacity="1" stroke-width="4.4"/>
<circle clip-path="url(#clip042)" cx="1621.34" cy="1685.76" r="14.4" fill="#d55e00" fill-rule="evenodd" fill-opacity="1" stroke="#000000" stroke-opacity="1" stroke-width="4.4"/>
<circle clip-path="url(#clip042)" cx="1904.81" cy="1735.49" r="14.4" fill="#d55e00" fill-rule="evenodd" fill-opacity="1" stroke="#000000" stroke-opacity="1" stroke-width="4.4"/>
<circle clip-path="url(#clip042)" cx="2304.33" cy="1693.96" r="14.4" fill="#d55e00" fill-rule="evenodd" fill-opacity="1" stroke="#000000" stroke-opacity="1" stroke-width="4.4"/>
<circle clip-path="url(#clip042)" cx="2587.8" cy="1078.7" r="14.4" fill="#d55e00" fill-rule="evenodd" fill-opacity="1" stroke="#000000" stroke-opacity="1" stroke-width="4.4"/>
<circle clip-path="url(#clip042)" cx="2987.33" cy="507.682" r="14.4" fill="#d55e00" fill-rule="evenodd" fill-opacity="1" stroke="#000000" stroke-opacity="1" stroke-width="4.4"/>
<circle clip-path="url(#clip042)" cx="3270.8" cy="192.786" r="14.4" fill="#d55e00" fill-rule="evenodd" fill-opacity="1" stroke="#000000" stroke-opacity="1" stroke-width="4.4"/>
<path clip-path="url(#clip040)" d="M553.391 339.427 L1086.06 339.427 L1086.06 183.907 L553.391 183.907  Z" fill="#ffffff" fill-rule="evenodd" fill-opacity="1"/>
<polyline clip-path="url(#clip040)" style="stroke:#000000; stroke-linecap:round; stroke-linejoin:round; stroke-width:4; stroke-opacity:1; fill:none" points="553.391,339.427 1086.06,339.427 1086.06,183.907 553.391,183.907 553.391,339.427 "/>
<polyline clip-path="url(#clip040)" style="stroke:#0072b2; stroke-linecap:round; stroke-linejoin:round; stroke-width:8; stroke-opacity:1; fill:none" points="585.567,235.747 778.627,235.747 "/>
<circle clip-path="url(#clip040)" cx="682.097" cy="235.747" r="20.48" fill="#0072b2" fill-rule="evenodd" fill-opacity="1" stroke="#000000" stroke-opacity="1" stroke-width="6.25778"/>
<path clip-path="url(#clip040)" d="M832.516 237.379 L832.516 253.027 L828.257 253.027 L828.257 237.518 Q828.257 233.837 826.822 232.008 Q825.387 230.18 822.516 230.18 Q819.067 230.18 817.077 232.379 Q815.086 234.578 815.086 238.374 L815.086 253.027 L810.803 253.027 L810.803 217.008 L815.086 217.008 L815.086 231.129 Q816.614 228.791 818.674 227.633 Q820.757 226.476 823.465 226.476 Q827.933 226.476 830.225 229.254 Q832.516 232.008 832.516 237.379 Z" fill="#000000" fill-rule="nonzero" fill-opacity="1" /><path clip-path="url(#clip040)" d="M845.225 219.74 L845.225 227.101 L853.998 227.101 L853.998 230.411 L845.225 230.411 L845.225 244.485 Q845.225 247.656 846.081 248.559 Q846.961 249.462 849.623 249.462 L853.998 249.462 L853.998 253.027 L849.623 253.027 Q844.692 253.027 842.817 251.198 Q840.942 249.346 840.942 244.485 L840.942 230.411 L837.817 230.411 L837.817 227.101 L840.942 227.101 L840.942 219.74 L845.225 219.74 Z" fill="#000000" fill-rule="nonzero" fill-opacity="1" /><path clip-path="url(#clip040)" d="M863.812 219.74 L863.812 227.101 L872.586 227.101 L872.586 230.411 L863.812 230.411 L863.812 244.485 Q863.812 247.656 864.669 248.559 Q865.549 249.462 868.211 249.462 L872.586 249.462 L872.586 253.027 L868.211 253.027 Q863.28 253.027 861.405 251.198 Q859.53 249.346 859.53 244.485 L859.53 230.411 L856.405 230.411 L856.405 227.101 L859.53 227.101 L859.53 219.74 L863.812 219.74 Z" fill="#000000" fill-rule="nonzero" fill-opacity="1" /><path clip-path="url(#clip040)" d="M882.308 249.138 L882.308 262.888 L878.025 262.888 L878.025 227.101 L882.308 227.101 L882.308 231.036 Q883.65 228.721 885.687 227.61 Q887.748 226.476 890.595 226.476 Q895.317 226.476 898.257 230.226 Q901.22 233.976 901.22 240.087 Q901.22 246.198 898.257 249.948 Q895.317 253.698 890.595 253.698 Q887.748 253.698 885.687 252.587 Q883.65 251.453 882.308 249.138 M896.798 240.087 Q896.798 235.388 894.854 232.726 Q892.933 230.041 889.553 230.041 Q886.173 230.041 884.229 232.726 Q882.308 235.388 882.308 240.087 Q882.308 244.786 884.229 247.471 Q886.173 250.133 889.553 250.133 Q892.933 250.133 894.854 247.471 Q896.798 244.786 896.798 240.087 Z" fill="#000000" fill-rule="nonzero" fill-opacity="1" /><path clip-path="url(#clip040)" d="M924.808 227.865 L924.808 231.893 Q923.002 230.967 921.058 230.504 Q919.113 230.041 917.03 230.041 Q913.858 230.041 912.261 231.013 Q910.687 231.985 910.687 233.93 Q910.687 235.411 911.821 236.268 Q912.956 237.101 916.382 237.865 L917.84 238.189 Q922.377 239.161 924.275 240.944 Q926.196 242.703 926.196 245.874 Q926.196 249.485 923.326 251.592 Q920.479 253.698 915.479 253.698 Q913.396 253.698 911.127 253.281 Q908.882 252.888 906.382 252.078 L906.382 247.68 Q908.743 248.906 911.034 249.531 Q913.326 250.133 915.571 250.133 Q918.581 250.133 920.201 249.115 Q921.821 248.073 921.821 246.198 Q921.821 244.462 920.641 243.536 Q919.483 242.61 915.525 241.754 L914.044 241.406 Q910.085 240.573 908.326 238.86 Q906.567 237.124 906.567 234.115 Q906.567 230.457 909.159 228.467 Q911.752 226.476 916.521 226.476 Q918.882 226.476 920.965 226.823 Q923.048 227.17 924.808 227.865 Z" fill="#000000" fill-rule="nonzero" fill-opacity="1" /><path clip-path="url(#clip040)" d="M955.155 238.999 L955.155 241.082 L935.571 241.082 Q935.849 245.481 938.21 247.795 Q940.594 250.087 944.831 250.087 Q947.284 250.087 949.576 249.485 Q951.891 248.883 954.159 247.68 L954.159 251.707 Q951.868 252.68 949.46 253.189 Q947.053 253.698 944.576 253.698 Q938.372 253.698 934.738 250.087 Q931.127 246.476 931.127 240.319 Q931.127 233.953 934.553 230.226 Q938.002 226.476 943.835 226.476 Q949.067 226.476 952.099 229.856 Q955.155 233.212 955.155 238.999 M950.895 237.749 Q950.849 234.254 948.928 232.17 Q947.03 230.087 943.881 230.087 Q940.317 230.087 938.164 232.101 Q936.034 234.115 935.71 237.772 L950.895 237.749 Z" fill="#000000" fill-rule="nonzero" fill-opacity="1" /><path clip-path="url(#clip040)" d="M977.168 231.082 Q976.451 230.666 975.594 230.481 Q974.761 230.272 973.742 230.272 Q970.131 230.272 968.187 232.633 Q966.266 234.971 966.266 239.369 L966.266 253.027 L961.983 253.027 L961.983 227.101 L966.266 227.101 L966.266 231.129 Q967.608 228.768 969.761 227.633 Q971.914 226.476 974.992 226.476 Q975.432 226.476 975.965 226.545 Q976.497 226.592 977.145 226.707 L977.168 231.082 Z" fill="#000000" fill-rule="nonzero" fill-opacity="1" /><path clip-path="url(#clip040)" d="M978.58 227.101 L983.094 227.101 L991.196 248.86 L999.298 227.101 L1003.81 227.101 L994.09 253.027 L988.303 253.027 L978.58 227.101 Z" fill="#000000" fill-rule="nonzero" fill-opacity="1" /><path clip-path="url(#clip040)" d="M1031.87 238.999 L1031.87 241.082 L1012.28 241.082 Q1012.56 245.481 1014.92 247.795 Q1017.31 250.087 1021.54 250.087 Q1024 250.087 1026.29 249.485 Q1028.6 248.883 1030.87 247.68 L1030.87 251.707 Q1028.58 252.68 1026.17 253.189 Q1023.77 253.698 1021.29 253.698 Q1015.08 253.698 1011.45 250.087 Q1007.84 246.476 1007.84 240.319 Q1007.84 233.953 1011.27 230.226 Q1014.71 226.476 1020.55 226.476 Q1025.78 226.476 1028.81 229.856 Q1031.87 233.212 1031.87 238.999 M1027.61 237.749 Q1027.56 234.254 1025.64 232.17 Q1023.74 230.087 1020.59 230.087 Q1017.03 230.087 1014.88 232.101 Q1012.75 234.115 1012.42 237.772 L1027.61 237.749 Z" fill="#000000" fill-rule="nonzero" fill-opacity="1" /><path clip-path="url(#clip040)" d="M1053.88 231.082 Q1053.16 230.666 1052.31 230.481 Q1051.47 230.272 1050.45 230.272 Q1046.84 230.272 1044.9 232.633 Q1042.98 234.971 1042.98 239.369 L1042.98 253.027 L1038.7 253.027 L1038.7 227.101 L1042.98 227.101 L1042.98 231.129 Q1044.32 228.768 1046.47 227.633 Q1048.63 226.476 1051.7 226.476 Q1052.14 226.476 1052.68 226.545 Q1053.21 226.592 1053.86 226.707 L1053.88 231.082 Z" fill="#000000" fill-rule="nonzero" fill-opacity="1" /><polyline clip-path="url(#clip040)" style="stroke:#d55e00; stroke-linecap:round; stroke-linejoin:round; stroke-width:8; stroke-opacity:1; fill:none" points="585.567,287.587 778.627,287.587 "/>
<circle clip-path="url(#clip040)" cx="682.097" cy="287.587" r="20.48" fill="#d55e00" fill-rule="evenodd" fill-opacity="1" stroke="#000000" stroke-opacity="1" stroke-width="6.25778"/>
<path clip-path="url(#clip040)" d="M832.516 289.219 L832.516 304.867 L828.257 304.867 L828.257 289.358 Q828.257 285.677 826.822 283.848 Q825.387 282.02 822.516 282.02 Q819.067 282.02 817.077 284.219 Q815.086 286.418 815.086 290.214 L815.086 304.867 L810.803 304.867 L810.803 278.941 L815.086 278.941 L815.086 282.969 Q816.614 280.631 818.674 279.473 Q820.757 278.316 823.465 278.316 Q827.933 278.316 830.225 281.094 Q832.516 283.848 832.516 289.219 Z" fill="#000000" fill-rule="nonzero" fill-opacity="1" /><path clip-path="url(#clip040)" d="M858.072 291.603 Q858.072 286.973 856.15 284.427 Q854.252 281.881 850.803 281.881 Q847.377 281.881 845.456 284.427 Q843.558 286.973 843.558 291.603 Q843.558 296.209 845.456 298.756 Q847.377 301.302 850.803 301.302 Q854.252 301.302 856.15 298.756 Q858.072 296.209 858.072 291.603 M862.331 301.649 Q862.331 308.27 859.391 311.487 Q856.451 314.728 850.387 314.728 Q848.141 314.728 846.151 314.381 Q844.16 314.057 842.285 313.362 L842.285 309.219 Q844.16 310.237 845.988 310.723 Q847.817 311.209 849.715 311.209 Q853.905 311.209 855.988 309.01 Q858.072 306.834 858.072 302.413 L858.072 300.307 Q856.752 302.598 854.692 303.733 Q852.632 304.867 849.762 304.867 Q844.993 304.867 842.076 301.233 Q839.16 297.598 839.16 291.603 Q839.16 285.584 842.076 281.95 Q844.993 278.316 849.762 278.316 Q852.632 278.316 854.692 279.45 Q856.752 280.585 858.072 282.876 L858.072 278.941 L862.331 278.941 L862.331 301.649 Z" fill="#000000" fill-rule="nonzero" fill-opacity="1" /><path clip-path="url(#clip040)" d="M871.104 278.941 L875.363 278.941 L875.363 304.867 L871.104 304.867 L871.104 278.941 M871.104 268.848 L875.363 268.848 L875.363 274.242 L871.104 274.242 L871.104 268.848 Z" fill="#000000" fill-rule="nonzero" fill-opacity="1" /><path clip-path="url(#clip040)" d="M905.826 289.219 L905.826 304.867 L901.567 304.867 L901.567 289.358 Q901.567 285.677 900.132 283.848 Q898.697 282.02 895.826 282.02 Q892.377 282.02 890.386 284.219 Q888.396 286.418 888.396 290.214 L888.396 304.867 L884.113 304.867 L884.113 278.941 L888.396 278.941 L888.396 282.969 Q889.923 280.631 891.984 279.473 Q894.067 278.316 896.775 278.316 Q901.243 278.316 903.534 281.094 Q905.826 283.848 905.826 289.219 Z" fill="#000000" fill-rule="nonzero" fill-opacity="1" /><path clip-path="url(#clip040)" d="M935.872 278.941 L926.497 291.557 L936.358 304.867 L931.335 304.867 L923.789 294.682 L916.243 304.867 L911.22 304.867 L921.289 291.302 L912.076 278.941 L917.099 278.941 L923.974 288.177 L930.849 278.941 L935.872 278.941 Z" fill="#000000" fill-rule="nonzero" fill-opacity="1" /></svg>
