<?xml version="1.0" encoding="utf-8"?>
<svg xmlns="http://www.w3.org/2000/svg" xmlns:xlink="http://www.w3.org/1999/xlink" width="950" height="550" viewBox="0 0 3800 2200">
<defs>
  <clipPath id="clip190">
    <rect x="0" y="0" width="3800" height="2200"/>
  </clipPath>
</defs>
<path clip-path="url(#clip190)" d="M0 2200 L3800 2200 L3800 0 L0 0  Z" fill="#ffffff" fill-rule="evenodd" fill-opacity="1"/>
<defs>
  <clipPath id="clip191">
    <rect x="760" y="0" width="2661" height="2200"/>
  </clipPath>
</defs>
<path clip-path="url(#clip190)" d="M426.029 1996.48 L2902.23 1996.48 L2902.23 115.514 L426.029 115.514  Z" fill="#ffffff" fill-rule="evenodd" fill-opacity="1"/>
<defs>
  <clipPath id="clip192">
    <rect x="426" y="115" width="2477" height="1882"/>
  </clipPath>
</defs>
<polyline clip-path="url(#clip192)" style="stroke:#000000; stroke-linecap:round; stroke-linejoin:round; stroke-width:2; stroke-opacity:0.1; fill:none" points="496.11,1996.48 496.11,115.514 "/>
<polyline clip-path="url(#clip192)" style="stroke:#000000; stroke-linecap:round; stroke-linejoin:round; stroke-width:2; stroke-opacity:0.1; fill:none" points="1664.13,1996.48 1664.13,115.514 "/>
<polyline clip-path="url(#clip192)" style="stroke:#000000; stroke-linecap:round; stroke-linejoin:round; stroke-width:2; stroke-opacity:0.1; fill:none" points="2248.14,1996.48 2248.14,115.514 "/>
<polyline clip-path="url(#clip192)" style="stroke:#000000; stroke-linecap:round; stroke-linejoin:round; stroke-width:2; stroke-opacity:0.1; fill:none" points="2832.15,1996.48 2832.15,115.514 "/>
<polyline clip-path="url(#clip192)" style="stroke:#000000; stroke-linecap:round; stroke-linejoin:round; stroke-width:2; stroke-opacity:0.1; fill:none" points="426.029,1943.39 2902.23,1943.39 "/>
<polyline clip-path="url(#clip192)" style="stroke:#000000; stroke-linecap:round; stroke-linejoin:round; stroke-width:2; stroke-opacity:0.1; fill:none" points="426.029,1388.82 2902.23,1388.82 "/>
<polyline clip-path="url(#clip192)" style="stroke:#000000; stroke-linecap:round; stroke-linejoin:round; stroke-width:2; stroke-opacity:0.1; fill:none" points="426.029,834.245 2902.23,834.245 "/>
<polyline clip-path="url(#clip192)" style="stroke:#000000; stroke-linecap:round; stroke-linejoin:round; stroke-width:2; stroke-opacity:0.1; fill:none" points="426.029,279.675 2902.23,279.675 "/>
<polyline clip-path="url(#clip190)" style="stroke:#000000; stroke-linecap:round; stroke-linejoin:round; stroke-width:4; stroke-opacity:1; fill:none" points="426.029,1996.48 2902.23,1996.48 "/>
<polyline clip-path="url(#clip190)" style="stroke:#000000; stroke-linecap:round; stroke-linejoin:round; stroke-width:4; stroke-opacity:1; fill:none" points="496.11,1996.48 496.11,1977.59 "/>
<polyline clip-path="url(#clip190)" style="stroke:#000000; stroke-linecap:round; stroke-linejoin:round; stroke-width:4; stroke-opacity:1; fill:none" points="1664.13,1996.48 1664.13,1977.59 "/>
<polyline clip-path="url(#clip190)" style="stroke:#000000; stroke-linecap:round; stroke-linejoin:round; stroke-width:4; stroke-opacity:1; fill:none" points="2248.14,1996.48 2248.14,1977.59 "/>
<polyline clip-path="url(#clip190)" style="stroke:#000000; stroke-linecap:round; stroke-linejoin:round; stroke-width:4; stroke-opacity:1; fill:none" points="2832.15,1996.48 2832.15,1977.59 "/>
<path clip-path="url(#clip190)" d="M486.492 2066.15 L494.131 2066.15 L494.131 2039.78 L485.821 2041.45 L485.821 2037.19 L494.085 2035.52 L498.761 2035.52 L498.761 2066.15 L506.399 2066.15 L506.399 2070.08 L486.492 2070.08 L486.492 2066.15 Z" fill="#000000" fill-rule="nonzero" fill-opacity="1" /><path clip-path="url(#clip190)" d="M1667.14 2039.6 L1655.33 2058.05 L1667.14 2058.05 L1667.14 2039.6 M1665.91 2035.52 L1671.79 2035.52 L1671.79 2058.05 L1676.72 2058.05 L1676.72 2061.94 L1671.79 2061.94 L1671.79 2070.08 L1667.14 2070.08 L1667.14 2061.94 L1651.54 2061.94 L1651.54 2057.42 L1665.91 2035.52 Z" fill="#000000" fill-rule="nonzero" fill-opacity="1" /><path clip-path="url(#clip190)" d="M2248.14 2053.67 Q2244.8 2053.67 2242.88 2055.45 Q2240.98 2057.24 2240.98 2060.36 Q2240.98 2063.49 2242.88 2065.27 Q2244.8 2067.05 2248.14 2067.05 Q2251.47 2067.05 2253.39 2065.27 Q2255.31 2063.46 2255.31 2060.36 Q2255.31 2057.24 2253.39 2055.45 Q2251.49 2053.67 2248.14 2053.67 M2243.46 2051.68 Q2240.45 2050.94 2238.76 2048.88 Q2237.1 2046.82 2237.1 2043.86 Q2237.1 2039.71 2240.04 2037.31 Q2243 2034.9 2248.14 2034.9 Q2253.3 2034.9 2256.24 2037.31 Q2259.18 2039.71 2259.18 2043.86 Q2259.18 2046.82 2257.49 2048.88 Q2255.82 2050.94 2252.84 2051.68 Q2256.22 2052.47 2258.09 2054.76 Q2259.99 2057.05 2259.99 2060.36 Q2259.99 2065.38 2256.91 2068.07 Q2253.85 2070.76 2248.14 2070.76 Q2242.42 2070.76 2239.34 2068.07 Q2236.29 2065.38 2236.29 2060.36 Q2236.29 2057.05 2238.18 2054.76 Q2240.08 2052.47 2243.46 2051.68 M2241.75 2044.3 Q2241.75 2046.98 2243.41 2048.49 Q2245.1 2049.99 2248.14 2049.99 Q2251.15 2049.99 2252.84 2048.49 Q2254.55 2046.98 2254.55 2044.3 Q2254.55 2041.61 2252.84 2040.11 Q2251.15 2038.6 2248.14 2038.6 Q2245.1 2038.6 2243.41 2040.11 Q2241.75 2041.61 2241.75 2044.3 Z" fill="#000000" fill-rule="nonzero" fill-opacity="1" /><path clip-path="url(#clip190)" d="M2806.75 2066.15 L2814.39 2066.15 L2814.39 2039.78 L2806.08 2041.45 L2806.08 2037.19 L2814.35 2035.52 L2819.02 2035.52 L2819.02 2066.15 L2826.66 2066.15 L2826.66 2070.08 L2806.75 2070.08 L2806.75 2066.15 Z" fill="#000000" fill-rule="nonzero" fill-opacity="1" /><path clip-path="url(#clip190)" d="M2846.68 2050.94 Q2843.53 2050.94 2841.68 2053.09 Q2839.85 2055.25 2839.85 2059 Q2839.85 2062.72 2841.68 2064.9 Q2843.53 2067.05 2846.68 2067.05 Q2849.83 2067.05 2851.66 2064.9 Q2853.51 2062.72 2853.51 2059 Q2853.51 2055.25 2851.66 2053.09 Q2849.83 2050.94 2846.68 2050.94 M2855.97 2036.29 L2855.97 2040.55 Q2854.21 2039.71 2852.4 2039.27 Q2850.62 2038.83 2848.86 2038.83 Q2844.23 2038.83 2841.78 2041.96 Q2839.34 2045.08 2839 2051.4 Q2840.36 2049.39 2842.42 2048.32 Q2844.48 2047.24 2846.96 2047.24 Q2852.17 2047.24 2855.18 2050.41 Q2858.21 2053.56 2858.21 2059 Q2858.21 2064.32 2855.06 2067.54 Q2851.91 2070.76 2846.68 2070.76 Q2840.69 2070.76 2837.52 2066.17 Q2834.34 2061.57 2834.34 2052.84 Q2834.34 2044.64 2838.23 2039.78 Q2842.12 2034.9 2848.67 2034.9 Q2850.43 2034.9 2852.22 2035.25 Q2854.02 2035.59 2855.97 2036.29 Z" fill="#000000" fill-rule="nonzero" fill-opacity="1" /><path clip-path="url(#clip190)" d="M1475.72 2114.83 L1515.92 2114.83 L1515.92 2120.24 L1499.05 2120.24 L1499.05 2162.35 L1492.59 2162.35 L1492.59 2120.24 L1475.72 2120.24 L1475.72 2114.83 Z" fill="#000000" fill-rule="nonzero" fill-opacity="1" /><path clip-path="url(#clip190)" d="M1551.5 2140.83 L1551.5 2162.35 L1545.65 2162.35 L1545.65 2141.02 Q1545.65 2135.96 1543.67 2133.45 Q1541.7 2130.93 1537.75 2130.93 Q1533.01 2130.93 1530.27 2133.96 Q1527.54 2136.98 1527.54 2142.2 L1527.54 2162.35 L1521.65 2162.35 L1521.65 2112.82 L1527.54 2112.82 L1527.54 2132.24 Q1529.64 2129.02 1532.47 2127.43 Q1535.33 2125.84 1539.06 2125.84 Q1545.2 2125.84 1548.35 2129.66 Q1551.5 2133.45 1551.5 2140.83 Z" fill="#000000" fill-rule="nonzero" fill-opacity="1" /><path clip-path="url(#clip190)" d="M1583.84 2132.17 Q1582.85 2131.6 1581.68 2131.35 Q1580.53 2131.06 1579.13 2131.06 Q1574.16 2131.06 1571.49 2134.31 Q1568.85 2137.52 1568.85 2143.57 L1568.85 2162.35 L1562.96 2162.35 L1562.96 2126.7 L1568.85 2126.7 L1568.85 2132.24 Q1570.7 2128.99 1573.66 2127.43 Q1576.62 2125.84 1580.85 2125.84 Q1581.45 2125.84 1582.19 2125.94 Q1582.92 2126 1583.81 2126.16 L1583.84 2132.17 Z" fill="#000000" fill-rule="nonzero" fill-opacity="1" /><path clip-path="url(#clip190)" d="M1619.04 2143.06 L1619.04 2145.92 L1592.12 2145.92 Q1592.5 2151.97 1595.74 2155.15 Q1599.02 2158.31 1604.85 2158.31 Q1608.22 2158.31 1611.37 2157.48 Q1614.56 2156.65 1617.67 2155 L1617.67 2160.53 Q1614.52 2161.87 1611.21 2162.57 Q1607.9 2163.27 1604.5 2163.27 Q1595.97 2163.27 1590.97 2158.31 Q1586 2153.34 1586 2144.87 Q1586 2136.12 1590.72 2131 Q1595.46 2125.84 1603.48 2125.84 Q1610.67 2125.84 1614.84 2130.49 Q1619.04 2135.1 1619.04 2143.06 M1613.19 2141.34 Q1613.12 2136.53 1610.48 2133.67 Q1607.87 2130.81 1603.54 2130.81 Q1598.64 2130.81 1595.68 2133.57 Q1592.75 2136.34 1592.31 2141.37 L1613.19 2141.34 Z" fill="#000000" fill-rule="nonzero" fill-opacity="1" /><path clip-path="url(#clip190)" d="M1644.86 2144.43 Q1637.76 2144.43 1635.02 2146.05 Q1632.28 2147.67 1632.28 2151.59 Q1632.28 2154.71 1634.32 2156.55 Q1636.39 2158.37 1639.92 2158.37 Q1644.79 2158.37 1647.72 2154.93 Q1650.68 2151.46 1650.68 2145.73 L1650.68 2144.43 L1644.86 2144.43 M1656.54 2142.01 L1656.54 2162.35 L1650.68 2162.35 L1650.68 2156.94 Q1648.68 2160.18 1645.68 2161.74 Q1642.69 2163.27 1638.36 2163.27 Q1632.89 2163.27 1629.64 2160.22 Q1626.43 2157.13 1626.43 2151.97 Q1626.43 2145.96 1630.44 2142.9 Q1634.48 2139.85 1642.47 2139.85 L1650.68 2139.85 L1650.68 2139.27 Q1650.68 2135.23 1648.01 2133.03 Q1645.37 2130.81 1640.56 2130.81 Q1637.5 2130.81 1634.61 2131.54 Q1631.71 2132.27 1629.04 2133.73 L1629.04 2128.32 Q1632.25 2127.08 1635.28 2126.48 Q1638.3 2125.84 1641.16 2125.84 Q1648.9 2125.84 1652.72 2129.85 Q1656.54 2133.86 1656.54 2142.01 Z" fill="#000000" fill-rule="nonzero" fill-opacity="1" /><path clip-path="url(#clip190)" d="M1692.06 2132.11 L1692.06 2112.82 L1697.91 2112.82 L1697.91 2162.35 L1692.06 2162.35 L1692.06 2157 Q1690.21 2160.18 1687.38 2161.74 Q1684.58 2163.27 1680.63 2163.27 Q1674.17 2163.27 1670.1 2158.11 Q1666.05 2152.96 1666.05 2144.56 Q1666.05 2136.15 1670.1 2131 Q1674.17 2125.84 1680.63 2125.84 Q1684.58 2125.84 1687.38 2127.4 Q1690.21 2128.93 1692.06 2132.11 M1672.1 2144.56 Q1672.1 2151.02 1674.74 2154.71 Q1677.42 2158.37 1682.06 2158.37 Q1686.71 2158.37 1689.38 2154.71 Q1692.06 2151.02 1692.06 2144.56 Q1692.06 2138.09 1689.38 2134.43 Q1686.71 2130.74 1682.06 2130.74 Q1677.42 2130.74 1674.74 2134.43 Q1672.1 2138.09 1672.1 2144.56 Z" fill="#000000" fill-rule="nonzero" fill-opacity="1" /><path clip-path="url(#clip190)" d="M1732.7 2127.75 L1732.7 2133.29 Q1730.22 2132.02 1727.55 2131.38 Q1724.87 2130.74 1722.01 2130.74 Q1717.65 2130.74 1715.45 2132.08 Q1713.29 2133.42 1713.29 2136.09 Q1713.29 2138.13 1714.85 2139.3 Q1716.41 2140.45 1721.12 2141.5 L1723.12 2141.95 Q1729.36 2143.28 1731.97 2145.73 Q1734.61 2148.15 1734.61 2152.51 Q1734.61 2157.48 1730.67 2160.37 Q1726.75 2163.27 1719.88 2163.27 Q1717.01 2163.27 1713.89 2162.7 Q1710.8 2162.16 1707.37 2161.04 L1707.37 2155 Q1710.61 2156.68 1713.76 2157.54 Q1716.92 2158.37 1720 2158.37 Q1724.14 2158.37 1726.37 2156.97 Q1728.6 2155.54 1728.6 2152.96 Q1728.6 2150.57 1726.97 2149.3 Q1725.38 2148.02 1719.94 2146.85 L1717.9 2146.37 Q1712.46 2145.22 1710.04 2142.87 Q1707.62 2140.48 1707.62 2136.34 Q1707.62 2131.31 1711.19 2128.58 Q1714.75 2125.84 1721.31 2125.84 Q1724.55 2125.84 1727.42 2126.32 Q1730.28 2126.8 1732.7 2127.75 Z" fill="#000000" fill-rule="nonzero" fill-opacity="1" /><path clip-path="url(#clip190)" d="M1778.73 2112.89 Q1774.46 2120.21 1772.39 2127.37 Q1770.32 2134.53 1770.32 2141.88 Q1770.32 2149.23 1772.39 2156.46 Q1774.49 2163.65 1778.73 2170.94 L1773.63 2170.94 Q1768.86 2163.46 1766.47 2156.24 Q1764.12 2149.01 1764.12 2141.88 Q1764.12 2134.78 1766.47 2127.59 Q1768.83 2120.4 1773.63 2112.89 L1778.73 2112.89 Z" fill="#000000" fill-rule="nonzero" fill-opacity="1" /><path clip-path="url(#clip190)" d="M1790.34 2114.83 L1799 2114.83 L1820.07 2154.58 L1820.07 2114.83 L1826.31 2114.83 L1826.31 2162.35 L1817.65 2162.35 L1796.58 2122.59 L1796.58 2162.35 L1790.34 2162.35 L1790.34 2114.83 Z" fill="#000000" fill-rule="nonzero" fill-opacity="1" /><path clip-path="url(#clip190)" d="M1837.93 2112.89 L1843.02 2112.89 Q1847.79 2120.4 1850.15 2127.59 Q1852.54 2134.78 1852.54 2141.88 Q1852.54 2149.01 1850.15 2156.24 Q1847.79 2163.46 1843.02 2170.94 L1837.93 2170.94 Q1842.16 2163.65 1844.23 2156.46 Q1846.33 2149.23 1846.33 2141.88 Q1846.33 2134.53 1844.23 2127.37 Q1842.16 2120.21 1837.93 2112.89 Z" fill="#000000" fill-rule="nonzero" fill-opacity="1" /><polyline clip-path="url(#clip190)" style="stroke:#000000; stroke-linecap:round; stroke-linejoin:round; stroke-width:4; stroke-opacity:1; fill:none" points="426.029,1996.48 426.029,115.514 "/>
<polyline clip-path="url(#clip190)" style="stroke:#000000; stroke-linecap:round; stroke-linejoin:round; stroke-width:4; stroke-opacity:1; fill:none" points="426.029,1943.39 440.095,1943.39 "/>
<polyline clip-path="url(#clip190)" style="stroke:#000000; stroke-linecap:round; stroke-linejoin:round; stroke-width:4; stroke-opacity:1; fill:none" points="426.029,1388.82 440.095,1388.82 "/>
<polyline clip-path="url(#clip190)" style="stroke:#000000; stroke-linecap:round; stroke-linejoin:round; stroke-width:4; stroke-opacity:1; fill:none" points="426.029,834.245 440.095,834.245 "/>
<polyline clip-path="url(#clip190)" style="stroke:#000000; stroke-linecap:round; stroke-linejoin:round; stroke-width:4; stroke-opacity:1; fill:none" points="426.029,279.675 440.095,279.675 "/>
<path clip-path="url(#clip190)" d="M357.085 1929.19 Q353.474 1929.19 351.645 1932.75 Q349.839 1936.29 349.839 1943.42 Q349.839 1950.53 351.645 1954.09 Q353.474 1957.64 357.085 1957.64 Q360.719 1957.64 362.524 1954.09 Q364.353 1950.53 364.353 1943.42 Q364.353 1936.29 362.524 1932.75 Q360.719 1929.19 357.085 1929.19 M357.085 1925.48 Q362.895 1925.48 365.95 1930.09 Q369.029 1934.67 369.029 1943.42 Q369.029 1952.15 365.95 1956.76 Q362.895 1961.34 357.085 1961.34 Q351.275 1961.34 348.196 1956.76 Q345.14 1952.15 345.14 1943.42 Q345.14 1934.67 348.196 1930.09 Q351.275 1925.48 357.085 1925.48 Z" fill="#000000" fill-rule="nonzero" fill-opacity="1" /><path clip-path="url(#clip190)" d="M182.155 1408.61 L189.794 1408.61 L189.794 1382.24 L181.484 1383.91 L181.484 1379.65 L189.748 1377.98 L194.424 1377.98 L194.424 1408.61 L202.062 1408.61 L202.062 1412.54 L182.155 1412.54 L182.155 1408.61 Z" fill="#000000" fill-rule="nonzero" fill-opacity="1" /><path clip-path="url(#clip190)" d="M211.507 1406.66 L216.391 1406.66 L216.391 1412.54 L211.507 1412.54 L211.507 1406.66 Z" fill="#000000" fill-rule="nonzero" fill-opacity="1" /><path clip-path="url(#clip190)" d="M236.576 1381.06 Q232.965 1381.06 231.136 1384.63 Q229.331 1388.17 229.331 1395.3 Q229.331 1402.41 231.136 1405.97 Q232.965 1409.51 236.576 1409.51 Q240.21 1409.51 242.016 1405.97 Q243.845 1402.41 243.845 1395.3 Q243.845 1388.17 242.016 1384.63 Q240.21 1381.06 236.576 1381.06 M236.576 1377.36 Q242.386 1377.36 245.442 1381.97 Q248.52 1386.55 248.52 1395.3 Q248.52 1404.03 245.442 1408.63 Q242.386 1413.22 236.576 1413.22 Q230.766 1413.22 227.687 1408.63 Q224.632 1404.03 224.632 1395.3 Q224.632 1386.55 227.687 1381.97 Q230.766 1377.36 236.576 1377.36 Z" fill="#000000" fill-rule="nonzero" fill-opacity="1" /><path clip-path="url(#clip190)" d="M284.909 1387.08 L274.331 1397.71 L284.909 1408.28 L282.155 1411.09 L271.53 1400.46 L260.905 1411.09 L258.173 1408.28 L268.729 1397.71 L258.173 1387.08 L260.905 1384.28 L271.53 1394.91 L282.155 1384.28 L284.909 1387.08 Z" fill="#000000" fill-rule="nonzero" fill-opacity="1" /><path clip-path="url(#clip190)" d="M297.27 1408.61 L304.909 1408.61 L304.909 1382.24 L296.599 1383.91 L296.599 1379.65 L304.863 1377.98 L309.539 1377.98 L309.539 1408.61 L317.178 1408.61 L317.178 1412.54 L297.27 1412.54 L297.27 1408.61 Z" fill="#000000" fill-rule="nonzero" fill-opacity="1" /><path clip-path="url(#clip190)" d="M336.622 1381.06 Q333.011 1381.06 331.182 1384.63 Q329.377 1388.17 329.377 1395.3 Q329.377 1402.41 331.182 1405.97 Q333.011 1409.51 336.622 1409.51 Q340.256 1409.51 342.062 1405.97 Q343.89 1402.41 343.89 1395.3 Q343.89 1388.17 342.062 1384.63 Q340.256 1381.06 336.622 1381.06 M336.622 1377.36 Q342.432 1377.36 345.488 1381.97 Q348.566 1386.55 348.566 1395.3 Q348.566 1404.03 345.488 1408.63 Q342.432 1413.22 336.622 1413.22 Q330.812 1413.22 327.733 1408.63 Q324.677 1404.03 324.677 1395.3 Q324.677 1386.55 327.733 1381.97 Q330.812 1377.36 336.622 1377.36 Z" fill="#000000" fill-rule="nonzero" fill-opacity="1" /><path clip-path="url(#clip190)" d="M361.243 1360.36 L351.651 1375.35 L361.243 1375.35 L361.243 1360.36 M360.246 1357.05 L365.023 1357.05 L365.023 1375.35 L369.029 1375.35 L369.029 1378.51 L365.023 1378.51 L365.023 1385.13 L361.243 1385.13 L361.243 1378.51 L348.566 1378.51 L348.566 1374.85 L360.246 1357.05 Z" fill="#000000" fill-rule="nonzero" fill-opacity="1" /><path clip-path="url(#clip190)" d="M185.373 854.038 L201.692 854.038 L201.692 857.973 L179.748 857.973 L179.748 854.038 Q182.41 851.283 186.993 846.654 Q191.599 842.001 192.78 840.658 Q195.025 838.135 195.905 836.399 Q196.808 834.64 196.808 832.95 Q196.808 830.195 194.863 828.459 Q192.942 826.723 189.84 826.723 Q187.641 826.723 185.187 827.487 Q182.757 828.251 179.979 829.802 L179.979 825.08 Q182.803 823.945 185.257 823.367 Q187.711 822.788 189.748 822.788 Q195.118 822.788 198.312 825.473 Q201.507 828.158 201.507 832.649 Q201.507 834.779 200.697 836.7 Q199.91 838.598 197.803 841.191 Q197.224 841.862 194.123 845.08 Q191.021 848.274 185.373 854.038 Z" fill="#000000" fill-rule="nonzero" fill-opacity="1" /><path clip-path="url(#clip190)" d="M211.507 852.093 L216.391 852.093 L216.391 857.973 L211.507 857.973 L211.507 852.093 Z" fill="#000000" fill-rule="nonzero" fill-opacity="1" /><path clip-path="url(#clip190)" d="M236.576 826.492 Q232.965 826.492 231.136 830.057 Q229.331 833.598 229.331 840.728 Q229.331 847.834 231.136 851.399 Q232.965 854.941 236.576 854.941 Q240.21 854.941 242.016 851.399 Q243.845 847.834 243.845 840.728 Q243.845 833.598 242.016 830.057 Q240.21 826.492 236.576 826.492 M236.576 822.788 Q242.386 822.788 245.442 827.395 Q248.52 831.978 248.52 840.728 Q248.52 849.455 245.442 854.061 Q242.386 858.644 236.576 858.644 Q230.766 858.644 227.687 854.061 Q224.632 849.455 224.632 840.728 Q224.632 831.978 227.687 827.395 Q230.766 822.788 236.576 822.788 Z" fill="#000000" fill-rule="nonzero" fill-opacity="1" /><path clip-path="url(#clip190)" d="M284.909 832.51 L274.331 843.135 L284.909 853.714 L282.155 856.515 L271.53 845.89 L260.905 856.515 L258.173 853.714 L268.729 843.135 L258.173 832.51 L260.905 829.709 L271.53 840.334 L282.155 829.709 L284.909 832.51 Z" fill="#000000" fill-rule="nonzero" fill-opacity="1" /><path clip-path="url(#clip190)" d="M297.27 854.038 L304.909 854.038 L304.909 827.672 L296.599 829.339 L296.599 825.08 L304.863 823.413 L309.539 823.413 L309.539 854.038 L317.178 854.038 L317.178 857.973 L297.27 857.973 L297.27 854.038 Z" fill="#000000" fill-rule="nonzero" fill-opacity="1" /><path clip-path="url(#clip190)" d="M336.622 826.492 Q333.011 826.492 331.182 830.057 Q329.377 833.598 329.377 840.728 Q329.377 847.834 331.182 851.399 Q333.011 854.941 336.622 854.941 Q340.256 854.941 342.062 851.399 Q343.89 847.834 343.89 840.728 Q343.89 833.598 342.062 830.057 Q340.256 826.492 336.622 826.492 M336.622 822.788 Q342.432 822.788 345.488 827.395 Q348.566 831.978 348.566 840.728 Q348.566 849.455 345.488 854.061 Q342.432 858.644 336.622 858.644 Q330.812 858.644 327.733 854.061 Q324.677 849.455 324.677 840.728 Q324.677 831.978 327.733 827.395 Q330.812 822.788 336.622 822.788 Z" fill="#000000" fill-rule="nonzero" fill-opacity="1" /><path clip-path="url(#clip190)" d="M361.243 805.793 L351.651 820.783 L361.243 820.783 L361.243 805.793 M360.246 802.483 L365.023 802.483 L365.023 820.783 L369.029 820.783 L369.029 823.942 L365.023 823.942 L365.023 830.563 L361.243 830.563 L361.243 823.942 L348.566 823.942 L348.566 820.275 L360.246 802.483 Z" fill="#000000" fill-rule="nonzero" fill-opacity="1" /><path clip-path="url(#clip190)" d="M195.511 284.768 Q198.868 285.486 200.743 287.754 Q202.641 290.023 202.641 293.356 Q202.641 298.472 199.123 301.272 Q195.604 304.073 189.123 304.073 Q186.947 304.073 184.632 303.634 Q182.34 303.217 179.887 302.36 L179.887 297.847 Q181.831 298.981 184.146 299.56 Q186.461 300.138 188.984 300.138 Q193.382 300.138 195.674 298.402 Q197.988 296.666 197.988 293.356 Q197.988 290.3 195.836 288.587 Q193.706 286.851 189.887 286.851 L185.859 286.851 L185.859 283.009 L190.072 283.009 Q193.521 283.009 195.349 281.643 Q197.178 280.254 197.178 277.662 Q197.178 274.999 195.28 273.587 Q193.405 272.152 189.887 272.152 Q187.965 272.152 185.766 272.569 Q183.567 272.986 180.928 273.865 L180.928 269.699 Q183.59 268.958 185.905 268.587 Q188.243 268.217 190.303 268.217 Q195.627 268.217 198.729 270.648 Q201.831 273.055 201.831 277.175 Q201.831 280.046 200.187 282.036 Q198.544 284.004 195.511 284.768 Z" fill="#000000" fill-rule="nonzero" fill-opacity="1" /><path clip-path="url(#clip190)" d="M211.507 297.523 L216.391 297.523 L216.391 303.402 L211.507 303.402 L211.507 297.523 Z" fill="#000000" fill-rule="nonzero" fill-opacity="1" /><path clip-path="url(#clip190)" d="M236.576 271.921 Q232.965 271.921 231.136 275.486 Q229.331 279.027 229.331 286.157 Q229.331 293.263 231.136 296.828 Q232.965 300.37 236.576 300.37 Q240.21 300.37 242.016 296.828 Q243.845 293.263 243.845 286.157 Q243.845 279.027 242.016 275.486 Q240.21 271.921 236.576 271.921 M236.576 268.217 Q242.386 268.217 245.442 272.824 Q248.52 277.407 248.52 286.157 Q248.52 294.884 245.442 299.49 Q242.386 304.073 236.576 304.073 Q230.766 304.073 227.687 299.49 Q224.632 294.884 224.632 286.157 Q224.632 277.407 227.687 272.824 Q230.766 268.217 236.576 268.217 Z" fill="#000000" fill-rule="nonzero" fill-opacity="1" /><path clip-path="url(#clip190)" d="M284.909 277.939 L274.331 288.564 L284.909 299.143 L282.155 301.944 L271.53 291.319 L260.905 301.944 L258.173 299.143 L268.729 288.564 L258.173 277.939 L260.905 275.138 L271.53 285.763 L282.155 275.138 L284.909 277.939 Z" fill="#000000" fill-rule="nonzero" fill-opacity="1" /><path clip-path="url(#clip190)" d="M297.27 299.467 L304.909 299.467 L304.909 273.101 L296.599 274.768 L296.599 270.509 L304.863 268.842 L309.539 268.842 L309.539 299.467 L317.178 299.467 L317.178 303.402 L297.27 303.402 L297.27 299.467 Z" fill="#000000" fill-rule="nonzero" fill-opacity="1" /><path clip-path="url(#clip190)" d="M336.622 271.921 Q333.011 271.921 331.182 275.486 Q329.377 279.027 329.377 286.157 Q329.377 293.263 331.182 296.828 Q333.011 300.37 336.622 300.37 Q340.256 300.37 342.062 296.828 Q343.89 293.263 343.89 286.157 Q343.89 279.027 342.062 275.486 Q340.256 271.921 336.622 271.921 M336.622 268.217 Q342.432 268.217 345.488 272.824 Q348.566 277.407 348.566 286.157 Q348.566 294.884 345.488 299.49 Q342.432 304.073 336.622 304.073 Q330.812 304.073 327.733 299.49 Q324.677 294.884 324.677 286.157 Q324.677 277.407 327.733 272.824 Q330.812 268.217 336.622 268.217 Z" fill="#000000" fill-rule="nonzero" fill-opacity="1" /><path clip-path="url(#clip190)" d="M361.243 251.222 L351.651 266.212 L361.243 266.212 L361.243 251.222 M360.246 247.912 L365.023 247.912 L365.023 266.212 L369.029 266.212 L369.029 269.371 L365.023 269.371 L365.023 275.992 L361.243 275.992 L361.243 269.371 L348.566 269.371 L348.566 265.704 L360.246 247.912 Z" fill="#000000" fill-rule="nonzero" fill-opacity="1" /><path clip-path="url(#clip190)" d="M85.7979 1331.32 L103.208 1331.32 L103.208 1321 Q103.208 1315.82 101.076 1313.33 Q98.9113 1310.82 94.4871 1310.82 Q90.0311 1310.82 87.9305 1313.33 Q85.7979 1315.82 85.7979 1321 L85.7979 1331.32 M66.2552 1331.32 L80.5781 1331.32 L80.5781 1321.8 Q80.5781 1317.09 78.8275 1314.8 Q77.0451 1312.47 73.4166 1312.47 Q69.82 1312.47 68.0376 1314.8 Q66.2552 1317.09 66.2552 1321.8 L66.2552 1331.32 M60.9717 1337.75 L60.9717 1321.32 Q60.9717 1313.97 64.0272 1309.99 Q67.0828 1306.01 72.7164 1306.01 Q77.0769 1306.01 79.655 1308.05 Q82.2331 1310.09 82.8697 1314.03 Q83.8882 1309.29 87.1347 1306.68 Q90.3494 1304.04 95.1874 1304.04 Q101.553 1304.04 105.022 1308.37 Q108.492 1312.7 108.492 1320.69 L108.492 1337.75 L60.9717 1337.75 Z" fill="#000000" fill-rule="nonzero" fill-opacity="1" /><path clip-path="url(#clip190)" d="M90.5722 1277.08 Q90.5722 1284.18 92.1955 1286.92 Q93.8187 1289.65 97.7336 1289.65 Q100.853 1289.65 102.699 1287.62 Q104.513 1285.55 104.513 1282.01 Q104.513 1277.14 101.076 1274.22 Q97.6063 1271.26 91.8772 1271.26 L90.5722 1271.26 L90.5722 1277.08 M88.1533 1265.4 L108.492 1265.4 L108.492 1271.26 L103.081 1271.26 Q106.327 1273.26 107.887 1276.25 Q109.415 1279.24 109.415 1283.57 Q109.415 1289.05 106.359 1292.29 Q103.272 1295.51 98.1156 1295.51 Q92.1 1295.51 89.0444 1291.5 Q85.9889 1287.46 85.9889 1279.47 L85.9889 1271.26 L85.416 1271.26 Q81.3738 1271.26 79.1776 1273.93 Q76.9496 1276.57 76.9496 1281.38 Q76.9496 1284.43 77.6817 1287.33 Q78.4137 1290.23 79.8778 1292.9 L74.467 1292.9 Q73.2257 1289.68 72.6209 1286.66 Q71.9844 1283.64 71.9844 1280.77 Q71.9844 1273.04 75.9948 1269.22 Q80.0051 1265.4 88.1533 1265.4 Z" fill="#000000" fill-rule="nonzero" fill-opacity="1" /><path clip-path="url(#clip190)" d="M86.9756 1223.7 L108.492 1223.7 L108.492 1229.56 L87.1666 1229.56 Q82.1058 1229.56 79.5914 1231.53 Q77.0769 1233.51 77.0769 1237.45 Q77.0769 1242.2 80.1006 1244.93 Q83.1243 1247.67 88.3442 1247.67 L108.492 1247.67 L108.492 1253.56 L72.8437 1253.56 L72.8437 1247.67 L78.3819 1247.67 Q75.1672 1245.57 73.5758 1242.74 Q71.9844 1239.87 71.9844 1236.15 Q71.9844 1230.01 75.8038 1226.85 Q79.5914 1223.7 86.9756 1223.7 Z" fill="#000000" fill-rule="nonzero" fill-opacity="1" /><path clip-path="url(#clip190)" d="M78.2546 1188.56 L58.9665 1188.56 L58.9665 1182.71 L108.492 1182.71 L108.492 1188.56 L103.144 1188.56 Q106.327 1190.41 107.887 1193.24 Q109.415 1196.04 109.415 1199.99 Q109.415 1206.45 104.258 1210.53 Q99.1023 1214.57 90.6995 1214.57 Q82.2968 1214.57 77.1406 1210.53 Q71.9844 1206.45 71.9844 1199.99 Q71.9844 1196.04 73.544 1193.24 Q75.0717 1190.41 78.2546 1188.56 M90.6995 1208.52 Q97.1607 1208.52 100.853 1205.88 Q104.513 1203.21 104.513 1198.56 Q104.513 1193.91 100.853 1191.24 Q97.1607 1188.56 90.6995 1188.56 Q84.2383 1188.56 80.5781 1191.24 Q76.8859 1193.91 76.8859 1198.56 Q76.8859 1203.21 80.5781 1205.88 Q84.2383 1208.52 90.6995 1208.52 Z" fill="#000000" fill-rule="nonzero" fill-opacity="1" /><path clip-path="url(#clip190)" d="M72.8437 1174.05 L72.8437 1168.19 L100.662 1160.87 L72.8437 1153.59 L72.8437 1146.68 L100.662 1139.36 L72.8437 1132.07 L72.8437 1126.21 L108.492 1135.54 L108.492 1142.45 L79.2731 1150.12 L108.492 1157.82 L108.492 1164.73 L72.8437 1174.05 Z" fill="#000000" fill-rule="nonzero" fill-opacity="1" /><path clip-path="url(#clip190)" d="M72.8437 1117.33 L72.8437 1111.48 L108.492 1111.48 L108.492 1117.33 L72.8437 1117.33 M58.9665 1117.33 L58.9665 1111.48 L66.3825 1111.48 L66.3825 1117.33 L58.9665 1117.33 Z" fill="#000000" fill-rule="nonzero" fill-opacity="1" /><path clip-path="url(#clip190)" d="M78.2546 1075.76 L58.9665 1075.76 L58.9665 1069.91 L108.492 1069.91 L108.492 1075.76 L103.144 1075.76 Q106.327 1077.61 107.887 1080.44 Q109.415 1083.24 109.415 1087.19 Q109.415 1093.65 104.258 1097.73 Q99.1023 1101.77 90.6995 1101.77 Q82.2968 1101.77 77.1406 1097.73 Q71.9844 1093.65 71.9844 1087.19 Q71.9844 1083.24 73.544 1080.44 Q75.0717 1077.61 78.2546 1075.76 M90.6995 1095.72 Q97.1607 1095.72 100.853 1093.08 Q104.513 1090.41 104.513 1085.76 Q104.513 1081.11 100.853 1078.44 Q97.1607 1075.76 90.6995 1075.76 Q84.2383 1075.76 80.5781 1078.44 Q76.8859 1081.11 76.8859 1085.76 Q76.8859 1090.41 80.5781 1093.08 Q84.2383 1095.72 90.6995 1095.72 Z" fill="#000000" fill-rule="nonzero" fill-opacity="1" /><path clip-path="url(#clip190)" d="M62.7223 1052.05 L72.8437 1052.05 L72.8437 1039.99 L77.3952 1039.99 L77.3952 1052.05 L96.747 1052.05 Q101.107 1052.05 102.349 1050.87 Q103.59 1049.67 103.59 1046 L103.59 1039.99 L108.492 1039.99 L108.492 1046 Q108.492 1052.78 105.977 1055.36 Q103.431 1057.94 96.747 1057.94 L77.3952 1057.94 L77.3952 1062.24 L72.8437 1062.24 L72.8437 1057.94 L62.7223 1057.94 L62.7223 1052.05 Z" fill="#000000" fill-rule="nonzero" fill-opacity="1" /><path clip-path="url(#clip190)" d="M86.9756 1002.65 L108.492 1002.65 L108.492 1008.51 L87.1666 1008.51 Q82.1058 1008.51 79.5914 1010.48 Q77.0769 1012.46 77.0769 1016.4 Q77.0769 1021.15 80.1006 1023.88 Q83.1243 1026.62 88.3442 1026.62 L108.492 1026.62 L108.492 1032.51 L58.9665 1032.51 L58.9665 1026.62 L78.3819 1026.62 Q75.1672 1024.52 73.5758 1021.69 Q71.9844 1018.82 71.9844 1015.1 Q71.9844 1008.96 75.8038 1005.81 Q79.5914 1002.65 86.9756 1002.65 Z" fill="#000000" fill-rule="nonzero" fill-opacity="1" /><path clip-path="url(#clip190)" d="M59.0301 956.185 Q66.3507 960.45 73.5121 962.519 Q80.6735 964.587 88.0259 964.587 Q95.3783 964.587 102.603 962.519 Q109.797 960.418 117.085 956.185 L117.085 961.277 Q109.606 966.052 102.381 968.439 Q95.1555 970.794 88.0259 970.794 Q80.9282 970.794 73.7349 968.439 Q66.5417 966.083 59.0301 961.277 L59.0301 956.185 Z" fill="#000000" fill-rule="nonzero" fill-opacity="1" /><path clip-path="url(#clip190)" d="M60.9717 944.567 L60.9717 934.987 L93.3095 922.86 L60.9717 910.67 L60.9717 901.09 L108.492 901.09 L108.492 907.36 L66.7645 907.36 L99.3569 919.614 L99.3569 926.075 L66.7645 938.329 L108.492 938.329 L108.492 944.567 L60.9717 944.567 Z" fill="#000000" fill-rule="nonzero" fill-opacity="1" /><path clip-path="url(#clip190)" d="M85.7979 881.897 L103.208 881.897 L103.208 871.584 Q103.208 866.396 101.076 863.914 Q98.9113 861.399 94.4871 861.399 Q90.0311 861.399 87.9305 863.914 Q85.7979 866.396 85.7979 871.584 L85.7979 881.897 M66.2552 881.897 L80.5781 881.897 L80.5781 872.38 Q80.5781 867.67 78.8275 865.378 Q77.0451 863.054 73.4166 863.054 Q69.82 863.054 68.0376 865.378 Q66.2552 867.67 66.2552 872.38 L66.2552 881.897 M60.9717 888.326 L60.9717 871.903 Q60.9717 864.55 64.0272 860.572 Q67.0828 856.593 72.7164 856.593 Q77.0769 856.593 79.655 858.63 Q82.2331 860.667 82.8697 864.614 Q83.8882 859.872 87.1347 857.262 Q90.3494 854.62 95.1874 854.62 Q101.553 854.62 105.022 858.949 Q108.492 863.277 108.492 871.266 L108.492 888.326 L60.9717 888.326 Z" fill="#000000" fill-rule="nonzero" fill-opacity="1" /><path clip-path="url(#clip190)" d="M60.9717 833.454 L60.9717 828.043 L114.539 844.594 L114.539 850.005 L60.9717 833.454 Z" fill="#000000" fill-rule="nonzero" fill-opacity="1" /><path clip-path="url(#clip190)" d="M73.8941 799.175 L79.4322 799.175 Q78.1591 801.657 77.5225 804.331 Q76.8859 807.004 76.8859 809.869 Q76.8859 814.229 78.2227 816.426 Q79.5595 818.59 82.2331 818.59 Q84.2702 818.59 85.4478 817.03 Q86.5937 815.471 87.644 810.76 L88.0896 808.755 Q89.4264 802.517 91.8772 799.907 Q94.2962 797.265 98.6567 797.265 Q103.622 797.265 106.518 801.212 Q109.415 805.127 109.415 812.001 Q109.415 814.866 108.842 817.985 Q108.301 821.073 107.187 824.51 L101.139 824.51 Q102.826 821.264 103.686 818.113 Q104.513 814.962 104.513 811.874 Q104.513 807.736 103.113 805.508 Q101.68 803.28 99.1023 803.28 Q96.7151 803.28 95.442 804.904 Q94.1688 806.495 92.9912 811.938 L92.5138 813.975 Q91.3679 819.418 89.0126 821.836 Q86.6255 824.255 82.4878 824.255 Q77.4589 824.255 74.7216 820.691 Q71.9844 817.126 71.9844 810.569 Q71.9844 807.323 72.4618 804.458 Q72.9392 801.594 73.8941 799.175 Z" fill="#000000" fill-rule="nonzero" fill-opacity="1" /><path clip-path="url(#clip190)" d="M59.0301 788.862 L59.0301 783.77 Q66.5417 778.995 73.7349 776.64 Q80.9282 774.253 88.0259 774.253 Q95.1555 774.253 102.381 776.64 Q109.606 778.995 117.085 783.77 L117.085 788.862 Q109.797 784.629 102.603 782.56 Q95.3783 780.459 88.0259 780.459 Q80.6735 780.459 73.5121 782.56 Q66.3507 784.629 59.0301 788.862 Z" fill="#000000" fill-rule="nonzero" fill-opacity="1" /><path clip-path="url(#clip190)" d="M831.384 44.2197 Q834.017 45.1109 836.488 48.0275 Q838.999 50.9442 841.511 56.0483 L849.815 72.576 L841.025 72.576 L833.288 57.061 Q830.29 50.9847 827.454 48.9997 Q824.659 47.0148 819.798 47.0148 L810.886 47.0148 L810.886 72.576 L802.703 72.576 L802.703 12.096 L821.175 12.096 Q831.546 12.096 836.65 16.4305 Q841.754 20.7649 841.754 29.5149 Q841.754 35.2267 839.08 38.994 Q836.447 42.7613 831.384 44.2197 M810.886 18.8205 L810.886 40.2903 L821.175 40.2903 Q827.09 40.2903 830.087 37.5762 Q833.126 34.8216 833.126 29.5149 Q833.126 24.2082 830.087 21.5346 Q827.09 18.8205 821.175 18.8205 L810.886 18.8205 Z" fill="#000000" fill-rule="nonzero" fill-opacity="1" /><path clip-path="url(#clip190)" d="M895.104 48.0275 L895.104 51.6733 L860.834 51.6733 Q861.32 59.3701 865.452 63.421 Q869.624 67.4314 877.037 67.4314 Q881.331 67.4314 885.342 66.3781 Q889.393 65.3249 893.362 63.2184 L893.362 70.267 Q889.352 71.9684 885.139 72.8596 Q880.926 73.7508 876.592 73.7508 Q865.735 73.7508 859.375 67.4314 Q853.056 61.1119 853.056 50.3365 Q853.056 39.1965 859.051 32.6746 Q865.087 26.1121 875.295 26.1121 Q884.45 26.1121 889.757 32.0264 Q895.104 37.9003 895.104 48.0275 M887.651 45.84 Q887.57 39.7232 884.207 36.0774 Q880.886 32.4315 875.376 32.4315 Q869.138 32.4315 865.371 35.9558 Q861.644 39.4801 861.077 45.8805 L887.651 45.84 Z" fill="#000000" fill-rule="nonzero" fill-opacity="1" /><path clip-path="url(#clip190)" d="M936.262 28.5427 L936.262 35.5912 Q933.102 33.9709 929.699 33.1607 Q926.296 32.3505 922.65 32.3505 Q917.101 32.3505 914.306 34.0519 Q911.551 35.7533 911.551 39.156 Q911.551 41.7486 913.536 43.2475 Q915.521 44.7058 921.516 46.0426 L924.068 46.6097 Q932.008 48.3111 935.33 51.4303 Q938.692 54.509 938.692 60.0587 Q938.692 66.3781 933.669 70.0644 Q928.686 73.7508 919.936 73.7508 Q916.291 73.7508 912.321 73.0216 Q908.391 72.3329 904.016 70.9151 L904.016 63.2184 Q908.148 65.3654 912.159 66.4591 Q916.169 67.5124 920.098 67.5124 Q925.365 67.5124 928.2 65.73 Q931.036 63.9071 931.036 60.6258 Q931.036 57.5877 928.97 55.9673 Q926.944 54.3469 920.017 52.8481 L917.425 52.2405 Q910.498 50.7821 907.419 47.7845 Q904.34 44.7463 904.34 39.4801 Q904.34 33.0797 908.877 29.5959 Q913.414 26.1121 921.759 26.1121 Q925.891 26.1121 929.537 26.7198 Q933.183 27.3274 936.262 28.5427 Z" fill="#000000" fill-rule="nonzero" fill-opacity="1" /><path clip-path="url(#clip190)" d="M957.772 65.7705 L957.772 89.8329 L950.278 89.8329 L950.278 27.2059 L957.772 27.2059 L957.772 34.0924 Q960.121 30.0415 963.686 28.0971 Q967.291 26.1121 972.274 26.1121 Q980.538 26.1121 985.683 32.6746 Q990.868 39.2371 990.868 49.9314 Q990.868 60.6258 985.683 67.1883 Q980.538 73.7508 972.274 73.7508 Q967.291 73.7508 963.686 71.8063 Q960.121 69.8214 957.772 65.7705 M983.13 49.9314 Q983.13 41.7081 979.728 37.0496 Q976.365 32.3505 970.451 32.3505 Q964.537 32.3505 961.134 37.0496 Q957.772 41.7081 957.772 49.9314 Q957.772 58.1548 961.134 62.8538 Q964.537 67.5124 970.451 67.5124 Q976.365 67.5124 979.728 62.8538 Q983.13 58.1548 983.13 49.9314 Z" fill="#000000" fill-rule="nonzero" fill-opacity="1" /><path clip-path="url(#clip190)" d="M1020.8 32.4315 Q1014.81 32.4315 1011.32 37.1306 Q1007.84 41.7891 1007.84 49.9314 Q1007.84 58.0738 1011.28 62.7728 Q1014.77 67.4314 1020.8 67.4314 Q1026.76 67.4314 1030.24 62.7323 Q1033.73 58.0333 1033.73 49.9314 Q1033.73 41.8701 1030.24 37.1711 Q1026.76 32.4315 1020.8 32.4315 M1020.8 26.1121 Q1030.53 26.1121 1036.08 32.4315 Q1041.63 38.7509 1041.63 49.9314 Q1041.63 61.0714 1036.08 67.4314 Q1030.53 73.7508 1020.8 73.7508 Q1011.04 73.7508 1005.49 67.4314 Q999.982 61.0714 999.982 49.9314 Q999.982 38.7509 1005.49 32.4315 Q1011.04 26.1121 1020.8 26.1121 Z" fill="#000000" fill-rule="nonzero" fill-opacity="1" /><path clip-path="url(#clip190)" d="M1091.69 45.1919 L1091.69 72.576 L1084.24 72.576 L1084.24 45.4349 Q1084.24 38.994 1081.73 35.7938 Q1079.22 32.5936 1074.19 32.5936 Q1068.16 32.5936 1064.68 36.4419 Q1061.19 40.2903 1061.19 46.9338 L1061.19 72.576 L1053.7 72.576 L1053.7 27.2059 L1061.19 27.2059 L1061.19 34.2544 Q1063.87 30.163 1067.47 28.1376 Q1071.12 26.1121 1075.86 26.1121 Q1083.67 26.1121 1087.68 30.9732 Q1091.69 35.7938 1091.69 45.1919 Z" fill="#000000" fill-rule="nonzero" fill-opacity="1" /><path clip-path="url(#clip190)" d="M1135.48 28.5427 L1135.48 35.5912 Q1132.33 33.9709 1128.92 33.1607 Q1125.52 32.3505 1121.87 32.3505 Q1116.32 32.3505 1113.53 34.0519 Q1110.77 35.7533 1110.77 39.156 Q1110.77 41.7486 1112.76 43.2475 Q1114.74 44.7058 1120.74 46.0426 L1123.29 46.6097 Q1131.23 48.3111 1134.55 51.4303 Q1137.92 54.509 1137.92 60.0587 Q1137.92 66.3781 1132.89 70.0644 Q1127.91 73.7508 1119.16 73.7508 Q1115.51 73.7508 1111.54 73.0216 Q1107.61 72.3329 1103.24 70.9151 L1103.24 63.2184 Q1107.37 65.3654 1111.38 66.4591 Q1115.39 67.5124 1119.32 67.5124 Q1124.59 67.5124 1127.42 65.73 Q1130.26 63.9071 1130.26 60.6258 Q1130.26 57.5877 1128.19 55.9673 Q1126.17 54.3469 1119.24 52.8481 L1116.65 52.2405 Q1109.72 50.7821 1106.64 47.7845 Q1103.56 44.7463 1103.56 39.4801 Q1103.56 33.0797 1108.1 29.5959 Q1112.64 26.1121 1120.98 26.1121 Q1125.11 26.1121 1128.76 26.7198 Q1132.41 27.3274 1135.48 28.5427 Z" fill="#000000" fill-rule="nonzero" fill-opacity="1" /><path clip-path="url(#clip190)" d="M1188.59 48.0275 L1188.59 51.6733 L1154.32 51.6733 Q1154.81 59.3701 1158.94 63.421 Q1163.11 67.4314 1170.53 67.4314 Q1174.82 67.4314 1178.83 66.3781 Q1182.88 65.3249 1186.85 63.2184 L1186.85 70.267 Q1182.84 71.9684 1178.63 72.8596 Q1174.41 73.7508 1170.08 73.7508 Q1159.22 73.7508 1152.86 67.4314 Q1146.54 61.1119 1146.54 50.3365 Q1146.54 39.1965 1152.54 32.6746 Q1158.58 26.1121 1168.78 26.1121 Q1177.94 26.1121 1183.25 32.0264 Q1188.59 37.9003 1188.59 48.0275 M1181.14 45.84 Q1181.06 39.7232 1177.7 36.0774 Q1174.37 32.4315 1168.86 32.4315 Q1162.63 32.4315 1158.86 35.9558 Q1155.13 39.4801 1154.56 45.8805 L1181.14 45.84 Z" fill="#000000" fill-rule="nonzero" fill-opacity="1" /><path clip-path="url(#clip190)" d="M1197.06 46.5287 L1218.89 46.5287 L1218.89 53.1722 L1197.06 53.1722 L1197.06 46.5287 Z" fill="#000000" fill-rule="nonzero" fill-opacity="1" /><path clip-path="url(#clip190)" d="M1267.34 14.0809 L1267.34 22.0612 Q1262.68 19.8332 1258.55 18.7395 Q1254.42 17.6457 1250.57 17.6457 Q1243.89 17.6457 1240.24 20.2383 Q1236.64 22.8309 1236.64 27.611 Q1236.64 31.6214 1239.03 33.6873 Q1241.46 35.7128 1248.18 36.9686 L1253.12 37.9813 Q1262.28 39.7232 1266.61 44.1387 Q1270.99 48.5136 1270.99 55.8863 Q1270.99 64.6767 1265.07 69.2137 Q1259.2 73.7508 1247.82 73.7508 Q1243.52 73.7508 1238.66 72.7785 Q1233.84 71.8063 1228.66 69.9024 L1228.66 61.4765 Q1233.64 64.2716 1238.42 65.6895 Q1243.2 67.1073 1247.82 67.1073 Q1254.82 67.1073 1258.63 64.3527 Q1262.44 61.598 1262.44 56.4939 Q1262.44 52.0379 1259.69 49.5264 Q1256.97 47.0148 1250.73 45.759 L1245.75 44.7868 Q1236.6 42.9639 1232.5 39.075 Q1228.41 35.1862 1228.41 28.2591 Q1228.41 20.2383 1234.04 15.6203 Q1239.71 11.0023 1249.64 11.0023 Q1253.89 11.0023 1258.31 11.7719 Q1262.72 12.5416 1267.34 14.0809 Z" fill="#000000" fill-rule="nonzero" fill-opacity="1" /><path clip-path="url(#clip190)" d="M1283.42 27.2059 L1290.88 27.2059 L1290.88 72.576 L1283.42 72.576 L1283.42 27.2059 M1283.42 9.54393 L1290.88 9.54393 L1290.88 18.9825 L1283.42 18.9825 L1283.42 9.54393 Z" fill="#000000" fill-rule="nonzero" fill-opacity="1" /><path clip-path="url(#clip190)" d="M1303.23 27.2059 L1338.64 27.2059 L1338.64 34.0114 L1310.61 66.6212 L1338.64 66.6212 L1338.64 72.576 L1302.22 72.576 L1302.22 65.7705 L1330.25 33.1607 L1303.23 33.1607 L1303.23 27.2059 Z" fill="#000000" fill-rule="nonzero" fill-opacity="1" /><path clip-path="url(#clip190)" d="M1388.83 48.0275 L1388.83 51.6733 L1354.56 51.6733 Q1355.04 59.3701 1359.18 63.421 Q1363.35 67.4314 1370.76 67.4314 Q1375.06 67.4314 1379.07 66.3781 Q1383.12 65.3249 1387.09 63.2184 L1387.09 70.267 Q1383.08 71.9684 1378.86 72.8596 Q1374.65 73.7508 1370.32 73.7508 Q1359.46 73.7508 1353.1 67.4314 Q1346.78 61.1119 1346.78 50.3365 Q1346.78 39.1965 1352.78 32.6746 Q1358.81 26.1121 1369.02 26.1121 Q1378.17 26.1121 1383.48 32.0264 Q1388.83 37.9003 1388.83 48.0275 M1381.37 45.84 Q1381.29 39.7232 1377.93 36.0774 Q1374.61 32.4315 1369.1 32.4315 Q1362.86 32.4315 1359.09 35.9558 Q1355.37 39.4801 1354.8 45.8805 L1381.37 45.84 Z" fill="#000000" fill-rule="nonzero" fill-opacity="1" /><path clip-path="url(#clip190)" d="M1473.05 16.7545 L1473.05 25.383 Q1468.91 21.5346 1464.22 19.6307 Q1459.56 17.7268 1454.29 17.7268 Q1443.92 17.7268 1438.41 24.0867 Q1432.9 30.4061 1432.9 42.3968 Q1432.9 54.3469 1438.41 60.7069 Q1443.92 67.0263 1454.29 67.0263 Q1459.56 67.0263 1464.22 65.1223 Q1468.91 63.2184 1473.05 59.3701 L1473.05 67.9175 Q1468.75 70.8341 1463.93 72.2924 Q1459.15 73.7508 1453.81 73.7508 Q1440.07 73.7508 1432.17 65.3654 Q1424.27 56.9395 1424.27 42.3968 Q1424.27 27.8135 1432.17 19.4281 Q1440.07 11.0023 1453.81 11.0023 Q1459.23 11.0023 1464.01 12.4606 Q1468.83 13.8784 1473.05 16.7545 Z" fill="#000000" fill-rule="nonzero" fill-opacity="1" /><path clip-path="url(#clip190)" d="M1511.65 34.1734 Q1510.4 33.4443 1508.9 33.1202 Q1507.44 32.7556 1505.66 32.7556 Q1499.34 32.7556 1495.93 36.8875 Q1492.57 40.9789 1492.57 48.6757 L1492.57 72.576 L1485.08 72.576 L1485.08 27.2059 L1492.57 27.2059 L1492.57 34.2544 Q1494.92 30.1225 1498.69 28.1376 Q1502.46 26.1121 1507.84 26.1121 Q1508.61 26.1121 1509.55 26.2337 Q1510.48 26.3147 1511.61 26.5172 L1511.65 34.1734 Z" fill="#000000" fill-rule="nonzero" fill-opacity="1" /><path clip-path="url(#clip190)" d="M1535.23 32.4315 Q1529.23 32.4315 1525.75 37.1306 Q1522.27 41.7891 1522.27 49.9314 Q1522.27 58.0738 1525.71 62.7728 Q1529.19 67.4314 1535.23 67.4314 Q1541.18 67.4314 1544.67 62.7323 Q1548.15 58.0333 1548.15 49.9314 Q1548.15 41.8701 1544.67 37.1711 Q1541.18 32.4315 1535.23 32.4315 M1535.23 26.1121 Q1544.95 26.1121 1550.5 32.4315 Q1556.05 38.7509 1556.05 49.9314 Q1556.05 61.0714 1550.5 67.4314 Q1544.95 73.7508 1535.23 73.7508 Q1525.47 73.7508 1519.92 67.4314 Q1514.41 61.0714 1514.41 49.9314 Q1514.41 38.7509 1519.92 32.4315 Q1525.47 26.1121 1535.23 26.1121 Z" fill="#000000" fill-rule="nonzero" fill-opacity="1" /><path clip-path="url(#clip190)" d="M1597.33 28.5427 L1597.33 35.5912 Q1594.17 33.9709 1590.77 33.1607 Q1587.36 32.3505 1583.72 32.3505 Q1578.17 32.3505 1575.37 34.0519 Q1572.62 35.7533 1572.62 39.156 Q1572.62 41.7486 1574.6 43.2475 Q1576.59 44.7058 1582.58 46.0426 L1585.14 46.6097 Q1593.08 48.3111 1596.4 51.4303 Q1599.76 54.509 1599.76 60.0587 Q1599.76 66.3781 1594.74 70.0644 Q1589.75 73.7508 1581 73.7508 Q1577.36 73.7508 1573.39 73.0216 Q1569.46 72.3329 1565.08 70.9151 L1565.08 63.2184 Q1569.22 65.3654 1573.23 66.4591 Q1577.24 67.5124 1581.17 67.5124 Q1586.43 67.5124 1589.27 65.73 Q1592.1 63.9071 1592.1 60.6258 Q1592.1 57.5877 1590.04 55.9673 Q1588.01 54.3469 1581.08 52.8481 L1578.49 52.2405 Q1571.56 50.7821 1568.49 47.7845 Q1565.41 44.7463 1565.41 39.4801 Q1565.41 33.0797 1569.94 29.5959 Q1574.48 26.1121 1582.83 26.1121 Q1586.96 26.1121 1590.6 26.7198 Q1594.25 27.3274 1597.33 28.5427 Z" fill="#000000" fill-rule="nonzero" fill-opacity="1" /><path clip-path="url(#clip190)" d="M1640.55 28.5427 L1640.55 35.5912 Q1637.39 33.9709 1633.99 33.1607 Q1630.59 32.3505 1626.94 32.3505 Q1621.39 32.3505 1618.6 34.0519 Q1615.84 35.7533 1615.84 39.156 Q1615.84 41.7486 1617.83 43.2475 Q1619.81 44.7058 1625.81 46.0426 L1628.36 46.6097 Q1636.3 48.3111 1639.62 51.4303 Q1642.98 54.509 1642.98 60.0587 Q1642.98 66.3781 1637.96 70.0644 Q1632.98 73.7508 1624.23 73.7508 Q1620.58 73.7508 1616.61 73.0216 Q1612.68 72.3329 1608.31 70.9151 L1608.31 63.2184 Q1612.44 65.3654 1616.45 66.4591 Q1620.46 67.5124 1624.39 67.5124 Q1629.65 67.5124 1632.49 65.73 Q1635.33 63.9071 1635.33 60.6258 Q1635.33 57.5877 1633.26 55.9673 Q1631.23 54.3469 1624.31 52.8481 L1621.72 52.2405 Q1614.79 50.7821 1611.71 47.7845 Q1608.63 44.7463 1608.63 39.4801 Q1608.63 33.0797 1613.17 29.5959 Q1617.7 26.1121 1626.05 26.1121 Q1630.18 26.1121 1633.83 26.7198 Q1637.47 27.3274 1640.55 28.5427 Z" fill="#000000" fill-rule="nonzero" fill-opacity="1" /><path clip-path="url(#clip190)" d="M1672.43 32.4315 Q1666.44 32.4315 1662.95 37.1306 Q1659.47 41.7891 1659.47 49.9314 Q1659.47 58.0738 1662.91 62.7728 Q1666.4 67.4314 1672.43 67.4314 Q1678.39 67.4314 1681.87 62.7323 Q1685.35 58.0333 1685.35 49.9314 Q1685.35 41.8701 1681.87 37.1711 Q1678.39 32.4315 1672.43 32.4315 M1672.43 26.1121 Q1682.15 26.1121 1687.7 32.4315 Q1693.25 38.7509 1693.25 49.9314 Q1693.25 61.0714 1687.7 67.4314 Q1682.15 73.7508 1672.43 73.7508 Q1662.67 73.7508 1657.12 67.4314 Q1651.61 61.0714 1651.61 49.9314 Q1651.61 38.7509 1657.12 32.4315 Q1662.67 26.1121 1672.43 26.1121 Z" fill="#000000" fill-rule="nonzero" fill-opacity="1" /><path clip-path="url(#clip190)" d="M1700.26 27.2059 L1708.16 27.2059 L1722.34 65.2844 L1736.52 27.2059 L1744.42 27.2059 L1727.4 72.576 L1717.28 72.576 L1700.26 27.2059 Z" fill="#000000" fill-rule="nonzero" fill-opacity="1" /><path clip-path="url(#clip190)" d="M1793.51 48.0275 L1793.51 51.6733 L1759.24 51.6733 Q1759.73 59.3701 1763.86 63.421 Q1768.03 67.4314 1775.45 67.4314 Q1779.74 67.4314 1783.75 66.3781 Q1787.8 65.3249 1791.77 63.2184 L1791.77 70.267 Q1787.76 71.9684 1783.55 72.8596 Q1779.34 73.7508 1775 73.7508 Q1764.14 73.7508 1757.78 67.4314 Q1751.47 61.1119 1751.47 50.3365 Q1751.47 39.1965 1757.46 32.6746 Q1763.5 26.1121 1773.7 26.1121 Q1782.86 26.1121 1788.17 32.0264 Q1793.51 37.9003 1793.51 48.0275 M1786.06 45.84 Q1785.98 39.7232 1782.62 36.0774 Q1779.3 32.4315 1773.79 32.4315 Q1767.55 32.4315 1763.78 35.9558 Q1760.05 39.4801 1759.49 45.8805 L1786.06 45.84 Z" fill="#000000" fill-rule="nonzero" fill-opacity="1" /><path clip-path="url(#clip190)" d="M1832.04 34.1734 Q1830.78 33.4443 1829.28 33.1202 Q1827.83 32.7556 1826.04 32.7556 Q1819.72 32.7556 1816.32 36.8875 Q1812.96 40.9789 1812.96 48.6757 L1812.96 72.576 L1805.46 72.576 L1805.46 27.2059 L1812.96 27.2059 L1812.96 34.2544 Q1815.31 30.1225 1819.08 28.1376 Q1822.84 26.1121 1828.23 26.1121 Q1829 26.1121 1829.93 26.2337 Q1830.86 26.3147 1832 26.5172 L1832.04 34.1734 Z" fill="#000000" fill-rule="nonzero" fill-opacity="1" /><path clip-path="url(#clip190)" d="M1840.3 62.2867 L1848.85 62.2867 L1848.85 72.576 L1840.3 72.576 L1840.3 62.2867 M1840.3 29.6769 L1848.85 29.6769 L1848.85 39.9662 L1840.3 39.9662 L1840.3 29.6769 Z" fill="#000000" fill-rule="nonzero" fill-opacity="1" /><path clip-path="url(#clip190)" d="M1901.23 43.6931 L1901.23 65.8515 L1914.35 65.8515 Q1920.96 65.8515 1924.12 63.1374 Q1927.32 60.3828 1927.32 54.752 Q1927.32 49.0808 1924.12 46.4072 Q1920.96 43.6931 1914.35 43.6931 L1901.23 43.6931 M1901.23 18.8205 L1901.23 37.0496 L1913.34 37.0496 Q1919.33 37.0496 1922.25 34.8216 Q1925.21 32.5531 1925.21 27.935 Q1925.21 23.3575 1922.25 21.089 Q1919.33 18.8205 1913.34 18.8205 L1901.23 18.8205 M1893.04 12.096 L1913.95 12.096 Q1923.3 12.096 1928.37 15.9849 Q1933.43 19.8737 1933.43 27.0438 Q1933.43 32.5936 1930.84 35.8748 Q1928.25 39.156 1923.22 39.9662 Q1929.26 41.2625 1932.58 45.3944 Q1935.94 49.4858 1935.94 55.6432 Q1935.94 63.745 1930.43 68.1605 Q1924.93 72.576 1914.76 72.576 L1893.04 72.576 L1893.04 12.096 Z" fill="#000000" fill-rule="nonzero" fill-opacity="1" /><path clip-path="url(#clip190)" d="M1970.25 49.7694 Q1961.22 49.7694 1957.74 51.8354 Q1954.25 53.9013 1954.25 58.8839 Q1954.25 62.8538 1956.85 65.2034 Q1959.48 67.5124 1963.98 67.5124 Q1970.17 67.5124 1973.9 63.1374 Q1977.67 58.7219 1977.67 51.4303 L1977.67 49.7694 L1970.25 49.7694 M1985.12 46.6907 L1985.12 72.576 L1977.67 72.576 L1977.67 65.6895 Q1975.12 69.8214 1971.31 71.8063 Q1967.5 73.7508 1961.99 73.7508 Q1955.02 73.7508 1950.89 69.8619 Q1946.8 65.9325 1946.8 59.3701 Q1946.8 51.7138 1951.9 47.825 Q1957.05 43.9361 1967.22 43.9361 L1977.67 43.9361 L1977.67 43.2069 Q1977.67 38.0623 1974.27 35.2672 Q1970.9 32.4315 1964.79 32.4315 Q1960.9 32.4315 1957.21 33.3632 Q1953.52 34.295 1950.12 36.1584 L1950.12 29.2718 Q1954.21 27.692 1958.06 26.9223 Q1961.91 26.1121 1965.56 26.1121 Q1975.4 26.1121 1980.26 31.2163 Q1985.12 36.3204 1985.12 46.6907 Z" fill="#000000" fill-rule="nonzero" fill-opacity="1" /><path clip-path="url(#clip190)" d="M2038.19 45.1919 L2038.19 72.576 L2030.73 72.576 L2030.73 45.4349 Q2030.73 38.994 2028.22 35.7938 Q2025.71 32.5936 2020.69 32.5936 Q2014.65 32.5936 2011.17 36.4419 Q2007.69 40.2903 2007.69 46.9338 L2007.69 72.576 L2000.19 72.576 L2000.19 27.2059 L2007.69 27.2059 L2007.69 34.2544 Q2010.36 30.163 2013.96 28.1376 Q2017.61 26.1121 2022.35 26.1121 Q2030.17 26.1121 2034.18 30.9732 Q2038.19 35.7938 2038.19 45.1919 Z" fill="#000000" fill-rule="nonzero" fill-opacity="1" /><path clip-path="url(#clip190)" d="M2082.91 34.0924 L2082.91 9.54393 L2090.36 9.54393 L2090.36 72.576 L2082.91 72.576 L2082.91 65.7705 Q2080.56 69.8214 2076.96 71.8063 Q2073.39 73.7508 2068.37 73.7508 Q2060.14 73.7508 2054.96 67.1883 Q2049.81 60.6258 2049.81 49.9314 Q2049.81 39.2371 2054.96 32.6746 Q2060.14 26.1121 2068.37 26.1121 Q2073.39 26.1121 2076.96 28.0971 Q2080.56 30.0415 2082.91 34.0924 M2057.51 49.9314 Q2057.51 58.1548 2060.87 62.8538 Q2064.28 67.5124 2070.19 67.5124 Q2076.1 67.5124 2079.51 62.8538 Q2082.91 58.1548 2082.91 49.9314 Q2082.91 41.7081 2079.51 37.0496 Q2076.1 32.3505 2070.19 32.3505 Q2064.28 32.3505 2060.87 37.0496 Q2057.51 41.7081 2057.51 49.9314 Z" fill="#000000" fill-rule="nonzero" fill-opacity="1" /><path clip-path="url(#clip190)" d="M2101.38 27.2059 L2108.84 27.2059 L2118.15 62.6108 L2127.43 27.2059 L2136.22 27.2059 L2145.54 62.6108 L2154.81 27.2059 L2162.27 27.2059 L2150.4 72.576 L2141.61 72.576 L2131.85 35.3887 L2122.04 72.576 L2113.25 72.576 L2101.38 27.2059 Z" fill="#000000" fill-rule="nonzero" fill-opacity="1" /><path clip-path="url(#clip190)" d="M2173.57 27.2059 L2181.02 27.2059 L2181.02 72.576 L2173.57 72.576 L2173.57 27.2059 M2173.57 9.54393 L2181.02 9.54393 L2181.02 18.9825 L2173.57 18.9825 L2173.57 9.54393 Z" fill="#000000" fill-rule="nonzero" fill-opacity="1" /><path clip-path="url(#clip190)" d="M2226.47 34.0924 L2226.47 9.54393 L2233.93 9.54393 L2233.93 72.576 L2226.47 72.576 L2226.47 65.7705 Q2224.12 69.8214 2220.52 71.8063 Q2216.95 73.7508 2211.93 73.7508 Q2203.71 73.7508 2198.52 67.1883 Q2193.38 60.6258 2193.38 49.9314 Q2193.38 39.2371 2198.52 32.6746 Q2203.71 26.1121 2211.93 26.1121 Q2216.95 26.1121 2220.52 28.0971 Q2224.12 30.0415 2226.47 34.0924 M2201.08 49.9314 Q2201.08 58.1548 2204.44 62.8538 Q2207.84 67.5124 2213.75 67.5124 Q2219.67 67.5124 2223.07 62.8538 Q2226.47 58.1548 2226.47 49.9314 Q2226.47 41.7081 2223.07 37.0496 Q2219.67 32.3505 2213.75 32.3505 Q2207.84 32.3505 2204.44 37.0496 Q2201.08 41.7081 2201.08 49.9314 Z" fill="#000000" fill-rule="nonzero" fill-opacity="1" /><path clip-path="url(#clip190)" d="M2256.65 14.324 L2256.65 27.2059 L2272.01 27.2059 L2272.01 32.9987 L2256.65 32.9987 L2256.65 57.6282 Q2256.65 63.1779 2258.15 64.7578 Q2259.69 66.3376 2264.35 66.3376 L2272.01 66.3376 L2272.01 72.576 L2264.35 72.576 Q2255.72 72.576 2252.44 69.3758 Q2249.16 66.1351 2249.16 57.6282 L2249.16 32.9987 L2243.69 32.9987 L2243.69 27.2059 L2249.16 27.2059 L2249.16 14.324 L2256.65 14.324 Z" fill="#000000" fill-rule="nonzero" fill-opacity="1" /><path clip-path="url(#clip190)" d="M2319.52 45.1919 L2319.52 72.576 L2312.07 72.576 L2312.07 45.4349 Q2312.07 38.994 2309.56 35.7938 Q2307.05 32.5936 2302.02 32.5936 Q2295.99 32.5936 2292.5 36.4419 Q2289.02 40.2903 2289.02 46.9338 L2289.02 72.576 L2281.53 72.576 L2281.53 9.54393 L2289.02 9.54393 L2289.02 34.2544 Q2291.69 30.163 2295.3 28.1376 Q2298.95 26.1121 2303.68 26.1121 Q2311.5 26.1121 2315.51 30.9732 Q2319.52 35.7938 2319.52 45.1919 Z" fill="#000000" fill-rule="nonzero" fill-opacity="1" /><path clip-path="url(#clip190)" d="M2355.41 27.2059 L2363.31 27.2059 L2377.49 65.2844 L2391.67 27.2059 L2399.57 27.2059 L2382.56 72.576 L2372.43 72.576 L2355.41 27.2059 Z" fill="#000000" fill-rule="nonzero" fill-opacity="1" /><path clip-path="url(#clip190)" d="M2438.78 28.5427 L2438.78 35.5912 Q2435.62 33.9709 2432.22 33.1607 Q2428.82 32.3505 2425.17 32.3505 Q2419.62 32.3505 2416.83 34.0519 Q2414.07 35.7533 2414.07 39.156 Q2414.07 41.7486 2416.06 43.2475 Q2418.04 44.7058 2424.04 46.0426 L2426.59 46.6097 Q2434.53 48.3111 2437.85 51.4303 Q2441.21 54.509 2441.21 60.0587 Q2441.21 66.3781 2436.19 70.0644 Q2431.21 73.7508 2422.46 73.7508 Q2418.81 73.7508 2414.84 73.0216 Q2410.91 72.3329 2406.54 70.9151 L2406.54 63.2184 Q2410.67 65.3654 2414.68 66.4591 Q2418.69 67.5124 2422.62 67.5124 Q2427.89 67.5124 2430.72 65.73 Q2433.56 63.9071 2433.56 60.6258 Q2433.56 57.5877 2431.49 55.9673 Q2429.47 54.3469 2422.54 52.8481 L2419.95 52.2405 Q2413.02 50.7821 2409.94 47.7845 Q2406.86 44.7463 2406.86 39.4801 Q2406.86 33.0797 2411.4 29.5959 Q2415.94 26.1121 2424.28 26.1121 Q2428.41 26.1121 2432.06 26.7198 Q2435.7 27.3274 2438.78 28.5427 Z" fill="#000000" fill-rule="nonzero" fill-opacity="1" /><path clip-path="url(#clip190)" d="M2479.78 12.096 L2490.8 12.096 L2517.61 62.6918 L2517.61 12.096 L2525.55 12.096 L2525.55 72.576 L2514.53 72.576 L2487.72 21.9802 L2487.72 72.576 L2479.78 72.576 L2479.78 12.096 Z" fill="#000000" fill-rule="nonzero" fill-opacity="1" /><polyline clip-path="url(#clip192)" style="stroke:#0072b2; stroke-linecap:round; stroke-linejoin:round; stroke-width:8; stroke-opacity:1; fill:none" points="496.11,1943.25 1664.13,1942.89 2248.14,1942.55 2832.15,1942.38 "/>
<circle clip-path="url(#clip192)" cx="496.11" cy="1943.25" r="10.8" fill="#0072b2" fill-rule="evenodd" fill-opacity="1" stroke="#000000" stroke-opacity="1" stroke-width="4.4"/>
<circle clip-path="url(#clip192)" cx="1664.13" cy="1942.89" r="10.8" fill="#0072b2" fill-rule="evenodd" fill-opacity="1" stroke="#000000" stroke-opacity="1" stroke-width="4.4"/>
<circle clip-path="url(#clip192)" cx="2248.14" cy="1942.55" r="10.8" fill="#0072b2" fill-rule="evenodd" fill-opacity="1" stroke="#000000" stroke-opacity="1" stroke-width="4.4"/>
<circle clip-path="url(#clip192)" cx="2832.15" cy="1942.38" r="10.8" fill="#0072b2" fill-rule="evenodd" fill-opacity="1" stroke="#000000" stroke-opacity="1" stroke-width="4.4"/>
<polyline clip-path="url(#clip192)" style="stroke:#0072b2; stroke-linecap:round; stroke-linejoin:round; stroke-width:8; stroke-opacity:1; fill:none" stroke-dasharray="32, 20" points="496.11,1938.07 1664.13,1923.43 2248.14,1907.14 2832.15,1885.6 "/>
<circle clip-path="url(#clip192)" cx="496.11" cy="1938.07" r="10.8" fill="#0072b2" fill-rule="evenodd" fill-opacity="1" stroke="#000000" stroke-opacity="1" stroke-width="4.4"/>
<circle clip-path="url(#clip192)" cx="1664.13" cy="1923.43" r="10.8" fill="#0072b2" fill-rule="evenodd" fill-opacity="1" stroke="#000000" stroke-opacity="1" stroke-width="4.4"/>
<circle clip-path="url(#clip192)" cx="2248.14" cy="1907.14" r="10.8" fill="#0072b2" fill-rule="evenodd" fill-opacity="1" stroke="#000000" stroke-opacity="1" stroke-width="4.4"/>
<circle clip-path="url(#clip192)" cx="2832.15" cy="1885.6" r="10.8" fill="#0072b2" fill-rule="evenodd" fill-opacity="1" stroke="#000000" stroke-opacity="1" stroke-width="4.4"/>
<polyline clip-path="url(#clip192)" style="stroke:#0072b2; stroke-linecap:round; stroke-linejoin:round; stroke-width:8; stroke-opacity:1; fill:none" stroke-dasharray="4, 8" points="496.11,1910.76 1664.13,1824.73 2248.14,1715.55 2832.15,1474.11 "/>
<circle clip-path="url(#clip192)" cx="496.11" cy="1910.76" r="10.8" fill="#0072b2" fill-rule="evenodd" fill-opacity="1" stroke="#000000" stroke-opacity="1" stroke-width="4.4"/>
<circle clip-path="url(#clip192)" cx="1664.13" cy="1824.73" r="10.8" fill="#0072b2" fill-rule="evenodd" fill-opacity="1" stroke="#000000" stroke-opacity="1" stroke-width="4.4"/>
<circle clip-path="url(#clip192)" cx="2248.14" cy="1715.55" r="10.8" fill="#0072b2" fill-rule="evenodd" fill-opacity="1" stroke="#000000" stroke-opacity="1" stroke-width="4.4"/>
<circle clip-path="url(#clip192)" cx="2832.15" cy="1474.11" r="10.8" fill="#0072b2" fill-rule="evenodd" fill-opacity="1" stroke="#000000" stroke-opacity="1" stroke-width="4.4"/>
<polyline clip-path="url(#clip192)" style="stroke:#d55e00; stroke-linecap:round; stroke-linejoin:round; stroke-width:8; stroke-opacity:1; fill:none" points="496.11,1942.73 1664.13,1941.96 2248.14,1942.03 2832.15,1930.65 "/>
<circle clip-path="url(#clip192)" cx="496.11" cy="1942.73" r="10.8" fill="#d55e00" fill-rule="evenodd" fill-opacity="1" stroke="#000000" stroke-opacity="1" stroke-width="4.4"/>
<circle clip-path="url(#clip192)" cx="1664.13" cy="1941.96" r="10.8" fill="#d55e00" fill-rule="evenodd" fill-opacity="1" stroke="#000000" stroke-opacity="1" stroke-width="4.4"/>
<circle clip-path="url(#clip192)" cx="2248.14" cy="1942.03" r="10.8" fill="#d55e00" fill-rule="evenodd" fill-opacity="1" stroke="#000000" stroke-opacity="1" stroke-width="4.4"/>
<circle clip-path="url(#clip192)" cx="2832.15" cy="1930.65" r="10.8" fill="#d55e00" fill-rule="evenodd" fill-opacity="1" stroke="#000000" stroke-opacity="1" stroke-width="4.4"/>
<polyline clip-path="url(#clip192)" style="stroke:#d55e00; stroke-linecap:round; stroke-linejoin:round; stroke-width:8; stroke-opacity:1; fill:none" stroke-dasharray="32, 20" points="496.11,1908.91 1664.13,1864.21 2248.14,1862.12 2832.15,1857.73 "/>
<circle clip-path="url(#clip192)" cx="496.11" cy="1908.91" r="10.8" fill="#d55e00" fill-rule="evenodd" fill-opacity="1" stroke="#000000" stroke-opacity="1" stroke-width="4.4"/>
<circle clip-path="url(#clip192)" cx="1664.13" cy="1864.21" r="10.8" fill="#d55e00" fill-rule="evenodd" fill-opacity="1" stroke="#000000" stroke-opacity="1" stroke-width="4.4"/>
<circle clip-path="url(#clip192)" cx="2248.14" cy="1862.12" r="10.8" fill="#d55e00" fill-rule="evenodd" fill-opacity="1" stroke="#000000" stroke-opacity="1" stroke-width="4.4"/>
<circle clip-path="url(#clip192)" cx="2832.15" cy="1857.73" r="10.8" fill="#d55e00" fill-rule="evenodd" fill-opacity="1" stroke="#000000" stroke-opacity="1" stroke-width="4.4"/>
<polyline clip-path="url(#clip192)" style="stroke:#d55e00; stroke-linecap:round; stroke-linejoin:round; stroke-width:8; stroke-opacity:1; fill:none" stroke-dasharray="4, 8" points="496.11,1641.45 1664.13,990.701 2248.14,168.749 2832.15,512.611 "/>
<circle clip-path="url(#clip192)" cx="496.11" cy="1641.45" r="10.8" fill="#d55e00" fill-rule="evenodd" fill-opacity="1" stroke="#000000" stroke-opacity="1" stroke-width="4.4"/>
<circle clip-path="url(#clip192)" cx="1664.13" cy="990.701" r="10.8" fill="#d55e00" fill-rule="evenodd" fill-opacity="1" stroke="#000000" stroke-opacity="1" stroke-width="4.4"/>
<circle clip-path="url(#clip192)" cx="2248.14" cy="168.749" r="10.8" fill="#d55e00" fill-rule="evenodd" fill-opacity="1" stroke="#000000" stroke-opacity="1" stroke-width="4.4"/>
<circle clip-path="url(#clip192)" cx="2832.15" cy="512.611" r="10.8" fill="#d55e00" fill-rule="evenodd" fill-opacity="1" stroke="#000000" stroke-opacity="1" stroke-width="4.4"/>
<path clip-path="url(#clip190)" d="M3013.12 541.093 L3752.76 541.093 L3752.76 178.213 L3013.12 178.213  Z" fill="#ffffff" fill-rule="evenodd" fill-opacity="1"/>
<polyline clip-path="url(#clip190)" style="stroke:#000000; stroke-linecap:round; stroke-linejoin:round; stroke-width:4; stroke-opacity:1; fill:none" points="3013.12,541.093 3752.76,541.093 3752.76,178.213 3013.12,178.213 3013.12,541.093 "/>
<polyline clip-path="url(#clip190)" style="stroke:#0072b2; stroke-linecap:round; stroke-linejoin:round; stroke-width:8; stroke-opacity:1; fill:none" points="3050.08,230.053 3271.86,230.053 "/>
<circle clip-path="url(#clip190)" cx="3160.97" cy="230.053" r="19.7486" fill="#0072b2" fill-rule="evenodd" fill-opacity="1" stroke="#000000" stroke-opacity="1" stroke-width="8.04571"/>
<path clip-path="url(#clip190)" d="M3330.54 231.685 L3330.54 247.333 L3326.28 247.333 L3326.28 231.824 Q3326.28 228.144 3324.85 226.315 Q3323.41 224.486 3320.54 224.486 Q3317.09 224.486 3315.1 226.685 Q3313.11 228.884 3313.11 232.681 L3313.11 247.333 L3308.83 247.333 L3308.83 211.315 L3313.11 211.315 L3313.11 225.435 Q3314.64 223.097 3316.7 221.94 Q3318.78 220.782 3321.49 220.782 Q3325.96 220.782 3328.25 223.56 Q3330.54 226.315 3330.54 231.685 Z" fill="#000000" fill-rule="nonzero" fill-opacity="1" /><path clip-path="url(#clip190)" d="M3343.25 214.046 L3343.25 221.407 L3352.02 221.407 L3352.02 224.718 L3343.25 224.718 L3343.25 238.792 Q3343.25 241.963 3344.1 242.866 Q3344.98 243.768 3347.65 243.768 L3352.02 243.768 L3352.02 247.333 L3347.65 247.333 Q3342.72 247.333 3340.84 245.505 Q3338.97 243.653 3338.97 238.792 L3338.97 224.718 L3335.84 224.718 L3335.84 221.407 L3338.97 221.407 L3338.97 214.046 L3343.25 214.046 Z" fill="#000000" fill-rule="nonzero" fill-opacity="1" /><path clip-path="url(#clip190)" d="M3361.84 214.046 L3361.84 221.407 L3370.61 221.407 L3370.61 224.718 L3361.84 224.718 L3361.84 238.792 Q3361.84 241.963 3362.69 242.866 Q3363.57 243.768 3366.23 243.768 L3370.61 243.768 L3370.61 247.333 L3366.23 247.333 Q3361.3 247.333 3359.43 245.505 Q3357.55 243.653 3357.55 238.792 L3357.55 224.718 L3354.43 224.718 L3354.43 221.407 L3357.55 221.407 L3357.55 214.046 L3361.84 214.046 Z" fill="#000000" fill-rule="nonzero" fill-opacity="1" /><path clip-path="url(#clip190)" d="M3380.33 243.444 L3380.33 257.194 L3376.05 257.194 L3376.05 221.407 L3380.33 221.407 L3380.33 225.343 Q3381.67 223.028 3383.71 221.917 Q3385.77 220.782 3388.62 220.782 Q3393.34 220.782 3396.28 224.532 Q3399.24 228.282 3399.24 234.393 Q3399.24 240.505 3396.28 244.255 Q3393.34 248.005 3388.62 248.005 Q3385.77 248.005 3383.71 246.893 Q3381.67 245.759 3380.33 243.444 M3394.82 234.393 Q3394.82 229.694 3392.88 227.032 Q3390.96 224.347 3387.58 224.347 Q3384.2 224.347 3382.25 227.032 Q3380.33 229.694 3380.33 234.393 Q3380.33 239.093 3382.25 241.778 Q3384.2 244.44 3387.58 244.44 Q3390.96 244.44 3392.88 241.778 Q3394.82 239.093 3394.82 234.393 Z" fill="#000000" fill-rule="nonzero" fill-opacity="1" /><path clip-path="url(#clip190)" d="M3422.83 222.171 L3422.83 226.199 Q3421.03 225.273 3419.08 224.81 Q3417.14 224.347 3415.05 224.347 Q3411.88 224.347 3410.28 225.319 Q3408.71 226.292 3408.71 228.236 Q3408.71 229.718 3409.84 230.574 Q3410.98 231.407 3414.41 232.171 L3415.86 232.495 Q3420.4 233.468 3422.3 235.25 Q3424.22 237.009 3424.22 240.18 Q3424.22 243.792 3421.35 245.898 Q3418.5 248.005 3413.5 248.005 Q3411.42 248.005 3409.15 247.588 Q3406.91 247.194 3404.41 246.384 L3404.41 241.986 Q3406.77 243.213 3409.06 243.838 Q3411.35 244.44 3413.59 244.44 Q3416.6 244.44 3418.22 243.421 Q3419.84 242.38 3419.84 240.505 Q3419.84 238.768 3418.66 237.843 Q3417.51 236.917 3413.55 236.06 L3412.07 235.713 Q3408.11 234.88 3406.35 233.167 Q3404.59 231.431 3404.59 228.421 Q3404.59 224.764 3407.18 222.773 Q3409.78 220.782 3414.54 220.782 Q3416.9 220.782 3418.99 221.13 Q3421.07 221.477 3422.83 222.171 Z" fill="#000000" fill-rule="nonzero" fill-opacity="1" /><path clip-path="url(#clip190)" d="M3453.18 233.306 L3453.18 235.389 L3433.59 235.389 Q3433.87 239.787 3436.23 242.102 Q3438.62 244.393 3442.85 244.393 Q3445.31 244.393 3447.6 243.792 Q3449.91 243.19 3452.18 241.986 L3452.18 246.014 Q3449.89 246.986 3447.48 247.495 Q3445.08 248.005 3442.6 248.005 Q3436.4 248.005 3432.76 244.393 Q3429.15 240.782 3429.15 234.625 Q3429.15 228.259 3432.58 224.532 Q3436.03 220.782 3441.86 220.782 Q3447.09 220.782 3450.12 224.162 Q3453.18 227.519 3453.18 233.306 M3448.92 232.056 Q3448.87 228.56 3446.95 226.477 Q3445.05 224.394 3441.9 224.394 Q3438.34 224.394 3436.19 226.407 Q3434.06 228.421 3433.73 232.079 L3448.92 232.056 Z" fill="#000000" fill-rule="nonzero" fill-opacity="1" /><path clip-path="url(#clip190)" d="M3475.19 225.389 Q3474.47 224.972 3473.62 224.787 Q3472.78 224.579 3471.77 224.579 Q3468.15 224.579 3466.21 226.94 Q3464.29 229.278 3464.29 233.676 L3464.29 247.333 L3460.01 247.333 L3460.01 221.407 L3464.29 221.407 L3464.29 225.435 Q3465.63 223.074 3467.78 221.94 Q3469.94 220.782 3473.02 220.782 Q3473.46 220.782 3473.99 220.852 Q3474.52 220.898 3475.17 221.014 L3475.19 225.389 Z" fill="#000000" fill-rule="nonzero" fill-opacity="1" /><path clip-path="url(#clip190)" d="M3476.6 221.407 L3481.12 221.407 L3489.22 243.167 L3497.32 221.407 L3501.84 221.407 L3492.11 247.333 L3486.33 247.333 L3476.6 221.407 Z" fill="#000000" fill-rule="nonzero" fill-opacity="1" /><path clip-path="url(#clip190)" d="M3529.89 233.306 L3529.89 235.389 L3510.31 235.389 Q3510.59 239.787 3512.95 242.102 Q3515.33 244.393 3519.57 244.393 Q3522.02 244.393 3524.31 243.792 Q3526.63 243.19 3528.9 241.986 L3528.9 246.014 Q3526.6 246.986 3524.2 247.495 Q3521.79 248.005 3519.31 248.005 Q3513.11 248.005 3509.47 244.393 Q3505.86 240.782 3505.86 234.625 Q3505.86 228.259 3509.29 224.532 Q3512.74 220.782 3518.57 220.782 Q3523.8 220.782 3526.83 224.162 Q3529.89 227.519 3529.89 233.306 M3525.63 232.056 Q3525.58 228.56 3523.66 226.477 Q3521.77 224.394 3518.62 224.394 Q3515.05 224.394 3512.9 226.407 Q3510.77 228.421 3510.45 232.079 L3525.63 232.056 Z" fill="#000000" fill-rule="nonzero" fill-opacity="1" /><path clip-path="url(#clip190)" d="M3551.9 225.389 Q3551.19 224.972 3550.33 224.787 Q3549.5 224.579 3548.48 224.579 Q3544.87 224.579 3542.92 226.94 Q3541 229.278 3541 233.676 L3541 247.333 L3536.72 247.333 L3536.72 221.407 L3541 221.407 L3541 225.435 Q3542.34 223.074 3544.5 221.94 Q3546.65 220.782 3549.73 220.782 Q3550.17 220.782 3550.7 220.852 Q3551.23 220.898 3551.88 221.014 L3551.9 225.389 Z" fill="#000000" fill-rule="nonzero" fill-opacity="1" /><path clip-path="url(#clip190)" d="M3572.85 243.398 L3580.49 243.398 L3580.49 217.032 L3572.18 218.699 L3572.18 214.44 L3580.45 212.773 L3585.12 212.773 L3585.12 243.398 L3592.76 243.398 L3592.76 247.333 L3572.85 247.333 L3572.85 243.398 Z" fill="#000000" fill-rule="nonzero" fill-opacity="1" /><path clip-path="url(#clip190)" d="M3616.86 212.773 L3621.53 212.773 L3621.53 227.38 L3637.04 212.773 L3643.06 212.773 L3625.91 228.884 L3644.29 247.333 L3638.13 247.333 L3621.53 230.69 L3621.53 247.333 L3616.86 247.333 L3616.86 212.773 Z" fill="#000000" fill-rule="nonzero" fill-opacity="1" /><path clip-path="url(#clip190)" d="M3647.76 221.407 L3652.02 221.407 L3652.02 247.333 L3647.76 247.333 L3647.76 221.407 M3647.76 211.315 L3652.02 211.315 L3652.02 216.708 L3647.76 216.708 L3647.76 211.315 Z" fill="#000000" fill-rule="nonzero" fill-opacity="1" /><path clip-path="url(#clip190)" d="M3665.79 230.829 L3665.79 243.491 L3673.29 243.491 Q3677.07 243.491 3678.87 241.94 Q3680.7 240.366 3680.7 237.148 Q3680.7 233.907 3678.87 232.38 Q3677.07 230.829 3673.29 230.829 L3665.79 230.829 M3665.79 216.616 L3665.79 227.032 L3672.71 227.032 Q3676.14 227.032 3677.81 225.759 Q3679.5 224.463 3679.5 221.824 Q3679.5 219.208 3677.81 217.912 Q3676.14 216.616 3672.71 216.616 L3665.79 216.616 M3661.12 212.773 L3673.06 212.773 Q3678.41 212.773 3681.3 214.995 Q3684.2 217.218 3684.2 221.315 Q3684.2 224.486 3682.71 226.361 Q3681.23 228.236 3678.36 228.699 Q3681.81 229.44 3683.71 231.801 Q3685.63 234.139 3685.63 237.657 Q3685.63 242.287 3682.48 244.81 Q3679.33 247.333 3673.52 247.333 L3661.12 247.333 L3661.12 212.773 Z" fill="#000000" fill-rule="nonzero" fill-opacity="1" /><polyline clip-path="url(#clip190)" style="stroke:#0072b2; stroke-linecap:round; stroke-linejoin:round; stroke-width:8; stroke-opacity:1; fill:none" stroke-dasharray="32, 20" points="3050.08,281.893 3271.86,281.893 "/>
<circle clip-path="url(#clip190)" cx="3160.97" cy="281.893" r="19.7486" fill="#0072b2" fill-rule="evenodd" fill-opacity="1" stroke="#000000" stroke-opacity="1" stroke-width="8.04571"/>
<path clip-path="url(#clip190)" d="M3330.54 283.525 L3330.54 299.173 L3326.28 299.173 L3326.28 283.664 Q3326.28 279.984 3324.85 278.155 Q3323.41 276.326 3320.54 276.326 Q3317.09 276.326 3315.1 278.525 Q3313.11 280.724 3313.11 284.521 L3313.11 299.173 L3308.83 299.173 L3308.83 263.155 L3313.11 263.155 L3313.11 277.275 Q3314.64 274.937 3316.7 273.78 Q3318.78 272.622 3321.49 272.622 Q3325.96 272.622 3328.25 275.4 Q3330.54 278.155 3330.54 283.525 Z" fill="#000000" fill-rule="nonzero" fill-opacity="1" /><path clip-path="url(#clip190)" d="M3343.25 265.886 L3343.25 273.247 L3352.02 273.247 L3352.02 276.558 L3343.25 276.558 L3343.25 290.632 Q3343.25 293.803 3344.1 294.706 Q3344.98 295.608 3347.65 295.608 L3352.02 295.608 L3352.02 299.173 L3347.65 299.173 Q3342.72 299.173 3340.84 297.345 Q3338.97 295.493 3338.97 290.632 L3338.97 276.558 L3335.84 276.558 L3335.84 273.247 L3338.97 273.247 L3338.97 265.886 L3343.25 265.886 Z" fill="#000000" fill-rule="nonzero" fill-opacity="1" /><path clip-path="url(#clip190)" d="M3361.84 265.886 L3361.84 273.247 L3370.61 273.247 L3370.61 276.558 L3361.84 276.558 L3361.84 290.632 Q3361.84 293.803 3362.69 294.706 Q3363.57 295.608 3366.23 295.608 L3370.61 295.608 L3370.61 299.173 L3366.23 299.173 Q3361.3 299.173 3359.43 297.345 Q3357.55 295.493 3357.55 290.632 L3357.55 276.558 L3354.43 276.558 L3354.43 273.247 L3357.55 273.247 L3357.55 265.886 L3361.84 265.886 Z" fill="#000000" fill-rule="nonzero" fill-opacity="1" /><path clip-path="url(#clip190)" d="M3380.33 295.284 L3380.33 309.034 L3376.05 309.034 L3376.05 273.247 L3380.33 273.247 L3380.33 277.183 Q3381.67 274.868 3383.71 273.757 Q3385.77 272.622 3388.62 272.622 Q3393.34 272.622 3396.28 276.372 Q3399.24 280.122 3399.24 286.233 Q3399.24 292.345 3396.28 296.095 Q3393.34 299.845 3388.62 299.845 Q3385.77 299.845 3383.71 298.733 Q3381.67 297.599 3380.33 295.284 M3394.82 286.233 Q3394.82 281.534 3392.88 278.872 Q3390.96 276.187 3387.58 276.187 Q3384.2 276.187 3382.25 278.872 Q3380.33 281.534 3380.33 286.233 Q3380.33 290.933 3382.25 293.618 Q3384.2 296.28 3387.58 296.28 Q3390.96 296.28 3392.88 293.618 Q3394.82 290.933 3394.82 286.233 Z" fill="#000000" fill-rule="nonzero" fill-opacity="1" /><path clip-path="url(#clip190)" d="M3422.83 274.011 L3422.83 278.039 Q3421.03 277.113 3419.08 276.65 Q3417.14 276.187 3415.05 276.187 Q3411.88 276.187 3410.28 277.159 Q3408.71 278.132 3408.71 280.076 Q3408.71 281.558 3409.84 282.414 Q3410.98 283.247 3414.41 284.011 L3415.86 284.335 Q3420.4 285.308 3422.3 287.09 Q3424.22 288.849 3424.22 292.02 Q3424.22 295.632 3421.35 297.738 Q3418.5 299.845 3413.5 299.845 Q3411.42 299.845 3409.15 299.428 Q3406.91 299.034 3404.41 298.224 L3404.41 293.826 Q3406.77 295.053 3409.06 295.678 Q3411.35 296.28 3413.59 296.28 Q3416.6 296.28 3418.22 295.261 Q3419.84 294.22 3419.84 292.345 Q3419.84 290.608 3418.66 289.683 Q3417.51 288.757 3413.55 287.9 L3412.07 287.553 Q3408.11 286.72 3406.35 285.007 Q3404.59 283.271 3404.59 280.261 Q3404.59 276.604 3407.18 274.613 Q3409.78 272.622 3414.54 272.622 Q3416.9 272.622 3418.99 272.97 Q3421.07 273.317 3422.83 274.011 Z" fill="#000000" fill-rule="nonzero" fill-opacity="1" /><path clip-path="url(#clip190)" d="M3453.18 285.146 L3453.18 287.229 L3433.59 287.229 Q3433.87 291.627 3436.23 293.942 Q3438.62 296.233 3442.85 296.233 Q3445.31 296.233 3447.6 295.632 Q3449.91 295.03 3452.18 293.826 L3452.18 297.854 Q3449.89 298.826 3447.48 299.335 Q3445.08 299.845 3442.6 299.845 Q3436.4 299.845 3432.76 296.233 Q3429.15 292.622 3429.15 286.465 Q3429.15 280.099 3432.58 276.372 Q3436.03 272.622 3441.86 272.622 Q3447.09 272.622 3450.12 276.002 Q3453.18 279.359 3453.18 285.146 M3448.92 283.896 Q3448.87 280.4 3446.95 278.317 Q3445.05 276.234 3441.9 276.234 Q3438.34 276.234 3436.19 278.247 Q3434.06 280.261 3433.73 283.919 L3448.92 283.896 Z" fill="#000000" fill-rule="nonzero" fill-opacity="1" /><path clip-path="url(#clip190)" d="M3475.19 277.229 Q3474.47 276.812 3473.62 276.627 Q3472.78 276.419 3471.77 276.419 Q3468.15 276.419 3466.21 278.78 Q3464.29 281.118 3464.29 285.516 L3464.29 299.173 L3460.01 299.173 L3460.01 273.247 L3464.29 273.247 L3464.29 277.275 Q3465.63 274.914 3467.78 273.78 Q3469.94 272.622 3473.02 272.622 Q3473.46 272.622 3473.99 272.692 Q3474.52 272.738 3475.17 272.854 L3475.19 277.229 Z" fill="#000000" fill-rule="nonzero" fill-opacity="1" /><path clip-path="url(#clip190)" d="M3476.6 273.247 L3481.12 273.247 L3489.22 295.007 L3497.32 273.247 L3501.84 273.247 L3492.11 299.173 L3486.33 299.173 L3476.6 273.247 Z" fill="#000000" fill-rule="nonzero" fill-opacity="1" /><path clip-path="url(#clip190)" d="M3529.89 285.146 L3529.89 287.229 L3510.31 287.229 Q3510.59 291.627 3512.95 293.942 Q3515.33 296.233 3519.57 296.233 Q3522.02 296.233 3524.31 295.632 Q3526.63 295.03 3528.9 293.826 L3528.9 297.854 Q3526.6 298.826 3524.2 299.335 Q3521.79 299.845 3519.31 299.845 Q3513.11 299.845 3509.47 296.233 Q3505.86 292.622 3505.86 286.465 Q3505.86 280.099 3509.29 276.372 Q3512.74 272.622 3518.57 272.622 Q3523.8 272.622 3526.83 276.002 Q3529.89 279.359 3529.89 285.146 M3525.63 283.896 Q3525.58 280.4 3523.66 278.317 Q3521.77 276.234 3518.62 276.234 Q3515.05 276.234 3512.9 278.247 Q3510.77 280.261 3510.45 283.919 L3525.63 283.896 Z" fill="#000000" fill-rule="nonzero" fill-opacity="1" /><path clip-path="url(#clip190)" d="M3551.9 277.229 Q3551.19 276.812 3550.33 276.627 Q3549.5 276.419 3548.48 276.419 Q3544.87 276.419 3542.92 278.78 Q3541 281.118 3541 285.516 L3541 299.173 L3536.72 299.173 L3536.72 273.247 L3541 273.247 L3541 277.275 Q3542.34 274.914 3544.5 273.78 Q3546.65 272.622 3549.73 272.622 Q3550.17 272.622 3550.7 272.692 Q3551.23 272.738 3551.88 272.854 L3551.9 277.229 Z" fill="#000000" fill-rule="nonzero" fill-opacity="1" /><path clip-path="url(#clip190)" d="M3582.62 280.03 Q3579.47 280.03 3577.62 282.183 Q3575.79 284.335 3575.79 288.085 Q3575.79 291.812 3577.62 293.988 Q3579.47 296.141 3582.62 296.141 Q3585.77 296.141 3587.6 293.988 Q3589.45 291.812 3589.45 288.085 Q3589.45 284.335 3587.6 282.183 Q3585.77 280.03 3582.62 280.03 M3591.9 265.377 L3591.9 269.636 Q3590.14 268.803 3588.34 268.363 Q3586.56 267.923 3584.8 267.923 Q3580.17 267.923 3577.71 271.048 Q3575.28 274.173 3574.94 280.493 Q3576.3 278.479 3578.36 277.414 Q3580.42 276.326 3582.9 276.326 Q3588.11 276.326 3591.12 279.497 Q3594.15 282.646 3594.15 288.085 Q3594.15 293.409 3591 296.627 Q3587.85 299.845 3582.62 299.845 Q3576.63 299.845 3573.46 295.261 Q3570.28 290.655 3570.28 281.928 Q3570.28 273.734 3574.17 268.872 Q3578.06 263.988 3584.61 263.988 Q3586.37 263.988 3588.15 264.335 Q3589.96 264.683 3591.9 265.377 Z" fill="#000000" fill-rule="nonzero" fill-opacity="1" /><path clip-path="url(#clip190)" d="M3615.05 268.687 L3603.25 287.136 L3615.05 287.136 L3615.05 268.687 M3613.83 264.613 L3619.7 264.613 L3619.7 287.136 L3624.64 287.136 L3624.64 291.025 L3619.7 291.025 L3619.7 299.173 L3615.05 299.173 L3615.05 291.025 L3599.45 291.025 L3599.45 286.511 L3613.83 264.613 Z" fill="#000000" fill-rule="nonzero" fill-opacity="1" /><path clip-path="url(#clip190)" d="M3647.02 264.613 L3651.7 264.613 L3651.7 279.22 L3667.2 264.613 L3673.22 264.613 L3656.07 280.724 L3674.45 299.173 L3668.29 299.173 L3651.7 282.53 L3651.7 299.173 L3647.02 299.173 L3647.02 264.613 Z" fill="#000000" fill-rule="nonzero" fill-opacity="1" /><path clip-path="url(#clip190)" d="M3677.92 273.247 L3682.18 273.247 L3682.18 299.173 L3677.92 299.173 L3677.92 273.247 M3677.92 263.155 L3682.18 263.155 L3682.18 268.548 L3677.92 268.548 L3677.92 263.155 Z" fill="#000000" fill-rule="nonzero" fill-opacity="1" /><path clip-path="url(#clip190)" d="M3695.95 282.669 L3695.95 295.331 L3703.45 295.331 Q3707.23 295.331 3709.03 293.78 Q3710.86 292.206 3710.86 288.988 Q3710.86 285.747 3709.03 284.22 Q3707.23 282.669 3703.45 282.669 L3695.95 282.669 M3695.95 268.456 L3695.95 278.872 L3702.88 278.872 Q3706.3 278.872 3707.97 277.599 Q3709.66 276.303 3709.66 273.664 Q3709.66 271.048 3707.97 269.752 Q3706.3 268.456 3702.88 268.456 L3695.95 268.456 M3691.28 264.613 L3703.22 264.613 Q3708.57 264.613 3711.46 266.835 Q3714.36 269.058 3714.36 273.155 Q3714.36 276.326 3712.88 278.201 Q3711.39 280.076 3708.52 280.539 Q3711.97 281.28 3713.87 283.641 Q3715.79 285.979 3715.79 289.497 Q3715.79 294.127 3712.64 296.65 Q3709.5 299.173 3703.69 299.173 L3691.28 299.173 L3691.28 264.613 Z" fill="#000000" fill-rule="nonzero" fill-opacity="1" /><polyline clip-path="url(#clip190)" style="stroke:#0072b2; stroke-linecap:round; stroke-linejoin:round; stroke-width:8; stroke-opacity:1; fill:none" stroke-dasharray="4, 8" points="3050.08,333.733 3271.86,333.733 "/>
<circle clip-path="url(#clip190)" cx="3160.97" cy="333.733" r="19.7486" fill="#0072b2" fill-rule="evenodd" fill-opacity="1" stroke="#000000" stroke-opacity="1" stroke-width="8.04571"/>
<path clip-path="url(#clip190)" d="M3330.54 335.365 L3330.54 351.013 L3326.28 351.013 L3326.28 335.504 Q3326.28 331.824 3324.85 329.995 Q3323.41 328.166 3320.54 328.166 Q3317.09 328.166 3315.1 330.365 Q3313.11 332.564 3313.11 336.361 L3313.11 351.013 L3308.83 351.013 L3308.83 314.995 L3313.11 314.995 L3313.11 329.115 Q3314.64 326.777 3316.7 325.62 Q3318.78 324.462 3321.49 324.462 Q3325.96 324.462 3328.25 327.24 Q3330.54 329.995 3330.54 335.365 Z" fill="#000000" fill-rule="nonzero" fill-opacity="1" /><path clip-path="url(#clip190)" d="M3343.25 317.726 L3343.25 325.087 L3352.02 325.087 L3352.02 328.398 L3343.25 328.398 L3343.25 342.472 Q3343.25 345.643 3344.1 346.546 Q3344.98 347.448 3347.65 347.448 L3352.02 347.448 L3352.02 351.013 L3347.65 351.013 Q3342.72 351.013 3340.84 349.185 Q3338.97 347.333 3338.97 342.472 L3338.97 328.398 L3335.84 328.398 L3335.84 325.087 L3338.97 325.087 L3338.97 317.726 L3343.25 317.726 Z" fill="#000000" fill-rule="nonzero" fill-opacity="1" /><path clip-path="url(#clip190)" d="M3361.84 317.726 L3361.84 325.087 L3370.61 325.087 L3370.61 328.398 L3361.84 328.398 L3361.84 342.472 Q3361.84 345.643 3362.69 346.546 Q3363.57 347.448 3366.23 347.448 L3370.61 347.448 L3370.61 351.013 L3366.23 351.013 Q3361.3 351.013 3359.43 349.185 Q3357.55 347.333 3357.55 342.472 L3357.55 328.398 L3354.43 328.398 L3354.43 325.087 L3357.55 325.087 L3357.55 317.726 L3361.84 317.726 Z" fill="#000000" fill-rule="nonzero" fill-opacity="1" /><path clip-path="url(#clip190)" d="M3380.33 347.124 L3380.33 360.874 L3376.05 360.874 L3376.05 325.087 L3380.33 325.087 L3380.33 329.023 Q3381.67 326.708 3383.71 325.597 Q3385.77 324.462 3388.62 324.462 Q3393.34 324.462 3396.28 328.212 Q3399.24 331.962 3399.24 338.073 Q3399.24 344.185 3396.28 347.935 Q3393.34 351.685 3388.62 351.685 Q3385.77 351.685 3383.71 350.573 Q3381.67 349.439 3380.33 347.124 M3394.82 338.073 Q3394.82 333.374 3392.88 330.712 Q3390.96 328.027 3387.58 328.027 Q3384.2 328.027 3382.25 330.712 Q3380.33 333.374 3380.33 338.073 Q3380.33 342.773 3382.25 345.458 Q3384.2 348.12 3387.58 348.12 Q3390.96 348.12 3392.88 345.458 Q3394.82 342.773 3394.82 338.073 Z" fill="#000000" fill-rule="nonzero" fill-opacity="1" /><path clip-path="url(#clip190)" d="M3422.83 325.851 L3422.83 329.879 Q3421.03 328.953 3419.08 328.49 Q3417.14 328.027 3415.05 328.027 Q3411.88 328.027 3410.28 328.999 Q3408.71 329.972 3408.71 331.916 Q3408.71 333.398 3409.84 334.254 Q3410.98 335.087 3414.41 335.851 L3415.86 336.175 Q3420.4 337.148 3422.3 338.93 Q3424.22 340.689 3424.22 343.86 Q3424.22 347.472 3421.35 349.578 Q3418.5 351.685 3413.5 351.685 Q3411.42 351.685 3409.15 351.268 Q3406.91 350.874 3404.41 350.064 L3404.41 345.666 Q3406.77 346.893 3409.06 347.518 Q3411.35 348.12 3413.59 348.12 Q3416.6 348.12 3418.22 347.101 Q3419.84 346.06 3419.84 344.185 Q3419.84 342.448 3418.66 341.523 Q3417.51 340.597 3413.55 339.74 L3412.07 339.393 Q3408.11 338.56 3406.35 336.847 Q3404.59 335.111 3404.59 332.101 Q3404.59 328.444 3407.18 326.453 Q3409.78 324.462 3414.54 324.462 Q3416.9 324.462 3418.99 324.81 Q3421.07 325.157 3422.83 325.851 Z" fill="#000000" fill-rule="nonzero" fill-opacity="1" /><path clip-path="url(#clip190)" d="M3453.18 336.986 L3453.18 339.069 L3433.59 339.069 Q3433.87 343.467 3436.23 345.782 Q3438.62 348.073 3442.85 348.073 Q3445.31 348.073 3447.6 347.472 Q3449.91 346.87 3452.18 345.666 L3452.18 349.694 Q3449.89 350.666 3447.48 351.175 Q3445.08 351.685 3442.6 351.685 Q3436.4 351.685 3432.76 348.073 Q3429.15 344.462 3429.15 338.305 Q3429.15 331.939 3432.58 328.212 Q3436.03 324.462 3441.86 324.462 Q3447.09 324.462 3450.12 327.842 Q3453.18 331.199 3453.18 336.986 M3448.92 335.736 Q3448.87 332.24 3446.95 330.157 Q3445.05 328.074 3441.9 328.074 Q3438.34 328.074 3436.19 330.087 Q3434.06 332.101 3433.73 335.759 L3448.92 335.736 Z" fill="#000000" fill-rule="nonzero" fill-opacity="1" /><path clip-path="url(#clip190)" d="M3475.19 329.069 Q3474.47 328.652 3473.62 328.467 Q3472.78 328.259 3471.77 328.259 Q3468.15 328.259 3466.21 330.62 Q3464.29 332.958 3464.29 337.356 L3464.29 351.013 L3460.01 351.013 L3460.01 325.087 L3464.29 325.087 L3464.29 329.115 Q3465.63 326.754 3467.78 325.62 Q3469.94 324.462 3473.02 324.462 Q3473.46 324.462 3473.99 324.532 Q3474.52 324.578 3475.17 324.694 L3475.19 329.069 Z" fill="#000000" fill-rule="nonzero" fill-opacity="1" /><path clip-path="url(#clip190)" d="M3476.6 325.087 L3481.12 325.087 L3489.22 346.847 L3497.32 325.087 L3501.84 325.087 L3492.11 351.013 L3486.33 351.013 L3476.6 325.087 Z" fill="#000000" fill-rule="nonzero" fill-opacity="1" /><path clip-path="url(#clip190)" d="M3529.89 336.986 L3529.89 339.069 L3510.31 339.069 Q3510.59 343.467 3512.95 345.782 Q3515.33 348.073 3519.57 348.073 Q3522.02 348.073 3524.31 347.472 Q3526.63 346.87 3528.9 345.666 L3528.9 349.694 Q3526.6 350.666 3524.2 351.175 Q3521.79 351.685 3519.31 351.685 Q3513.11 351.685 3509.47 348.073 Q3505.86 344.462 3505.86 338.305 Q3505.86 331.939 3509.29 328.212 Q3512.74 324.462 3518.57 324.462 Q3523.8 324.462 3526.83 327.842 Q3529.89 331.199 3529.89 336.986 M3525.63 335.736 Q3525.58 332.24 3523.66 330.157 Q3521.77 328.074 3518.62 328.074 Q3515.05 328.074 3512.9 330.087 Q3510.77 332.101 3510.45 335.759 L3525.63 335.736 Z" fill="#000000" fill-rule="nonzero" fill-opacity="1" /><path clip-path="url(#clip190)" d="M3551.9 329.069 Q3551.19 328.652 3550.33 328.467 Q3549.5 328.259 3548.48 328.259 Q3544.87 328.259 3542.92 330.62 Q3541 332.958 3541 337.356 L3541 351.013 L3536.72 351.013 L3536.72 325.087 L3541 325.087 L3541 329.115 Q3542.34 326.754 3544.5 325.62 Q3546.65 324.462 3549.73 324.462 Q3550.17 324.462 3550.7 324.532 Q3551.23 324.578 3551.88 324.694 L3551.9 329.069 Z" fill="#000000" fill-rule="nonzero" fill-opacity="1" /><path clip-path="url(#clip190)" d="M3572.85 347.078 L3580.49 347.078 L3580.49 320.712 L3572.18 322.379 L3572.18 318.12 L3580.45 316.453 L3585.12 316.453 L3585.12 347.078 L3592.76 347.078 L3592.76 351.013 L3572.85 351.013 L3572.85 347.078 Z" fill="#000000" fill-rule="nonzero" fill-opacity="1" /><path clip-path="url(#clip190)" d="M3616.86 316.453 L3623.83 316.453 L3632.64 339.972 L3641.51 316.453 L3648.48 316.453 L3648.48 351.013 L3643.92 351.013 L3643.92 320.666 L3635.01 344.37 L3630.31 344.37 L3621.39 320.666 L3621.39 351.013 L3616.86 351.013 L3616.86 316.453 Z" fill="#000000" fill-rule="nonzero" fill-opacity="1" /><path clip-path="url(#clip190)" d="M3657.57 325.087 L3661.83 325.087 L3661.83 351.013 L3657.57 351.013 L3657.57 325.087 M3657.57 314.995 L3661.83 314.995 L3661.83 320.388 L3657.57 320.388 L3657.57 314.995 Z" fill="#000000" fill-rule="nonzero" fill-opacity="1" /><path clip-path="url(#clip190)" d="M3675.61 334.509 L3675.61 347.171 L3683.11 347.171 Q3686.88 347.171 3688.69 345.62 Q3690.51 344.046 3690.51 340.828 Q3690.51 337.587 3688.69 336.06 Q3686.88 334.509 3683.11 334.509 L3675.61 334.509 M3675.61 320.296 L3675.61 330.712 L3682.53 330.712 Q3685.95 330.712 3687.62 329.439 Q3689.31 328.143 3689.31 325.504 Q3689.31 322.888 3687.62 321.592 Q3685.95 320.296 3682.53 320.296 L3675.61 320.296 M3670.93 316.453 L3682.88 316.453 Q3688.22 316.453 3691.12 318.675 Q3694.01 320.898 3694.01 324.995 Q3694.01 328.166 3692.53 330.041 Q3691.05 331.916 3688.18 332.379 Q3691.63 333.12 3693.52 335.481 Q3695.45 337.819 3695.45 341.337 Q3695.45 345.967 3692.3 348.49 Q3689.15 351.013 3683.34 351.013 L3670.93 351.013 L3670.93 316.453 Z" fill="#000000" fill-rule="nonzero" fill-opacity="1" /><polyline clip-path="url(#clip190)" style="stroke:#d55e00; stroke-linecap:round; stroke-linejoin:round; stroke-width:8; stroke-opacity:1; fill:none" points="3050.08,385.573 3271.86,385.573 "/>
<circle clip-path="url(#clip190)" cx="3160.97" cy="385.573" r="19.7486" fill="#d55e00" fill-rule="evenodd" fill-opacity="1" stroke="#000000" stroke-opacity="1" stroke-width="8.04571"/>
<path clip-path="url(#clip190)" d="M3330.54 387.205 L3330.54 402.853 L3326.28 402.853 L3326.28 387.344 Q3326.28 383.664 3324.85 381.835 Q3323.41 380.006 3320.54 380.006 Q3317.09 380.006 3315.1 382.205 Q3313.11 384.404 3313.11 388.201 L3313.11 402.853 L3308.83 402.853 L3308.83 376.927 L3313.11 376.927 L3313.11 380.955 Q3314.64 378.617 3316.7 377.46 Q3318.78 376.302 3321.49 376.302 Q3325.96 376.302 3328.25 379.08 Q3330.54 381.835 3330.54 387.205 Z" fill="#000000" fill-rule="nonzero" fill-opacity="1" /><path clip-path="url(#clip190)" d="M3356.1 389.589 Q3356.1 384.96 3354.17 382.414 Q3352.28 379.867 3348.83 379.867 Q3345.4 379.867 3343.48 382.414 Q3341.58 384.96 3341.58 389.589 Q3341.58 394.196 3343.48 396.742 Q3345.4 399.288 3348.83 399.288 Q3352.28 399.288 3354.17 396.742 Q3356.1 394.196 3356.1 389.589 M3360.35 399.636 Q3360.35 406.256 3357.41 409.474 Q3354.47 412.714 3348.41 412.714 Q3346.16 412.714 3344.17 412.367 Q3342.18 412.043 3340.31 411.349 L3340.31 407.205 Q3342.18 408.224 3344.01 408.71 Q3345.84 409.196 3347.74 409.196 Q3351.93 409.196 3354.01 406.997 Q3356.1 404.821 3356.1 400.4 L3356.1 398.293 Q3354.78 400.585 3352.72 401.719 Q3350.66 402.853 3347.78 402.853 Q3343.02 402.853 3340.1 399.219 Q3337.18 395.585 3337.18 389.589 Q3337.18 383.571 3340.1 379.937 Q3343.02 376.302 3347.78 376.302 Q3350.66 376.302 3352.72 377.437 Q3354.78 378.571 3356.1 380.863 L3356.1 376.927 L3360.35 376.927 L3360.35 399.636 Z" fill="#000000" fill-rule="nonzero" fill-opacity="1" /><path clip-path="url(#clip190)" d="M3369.13 376.927 L3373.39 376.927 L3373.39 402.853 L3369.13 402.853 L3369.13 376.927 M3369.13 366.835 L3373.39 366.835 L3373.39 372.228 L3369.13 372.228 L3369.13 366.835 Z" fill="#000000" fill-rule="nonzero" fill-opacity="1" /><path clip-path="url(#clip190)" d="M3403.85 387.205 L3403.85 402.853 L3399.59 402.853 L3399.59 387.344 Q3399.59 383.664 3398.16 381.835 Q3396.72 380.006 3393.85 380.006 Q3390.4 380.006 3388.41 382.205 Q3386.42 384.404 3386.42 388.201 L3386.42 402.853 L3382.14 402.853 L3382.14 376.927 L3386.42 376.927 L3386.42 380.955 Q3387.95 378.617 3390.01 377.46 Q3392.09 376.302 3394.8 376.302 Q3399.27 376.302 3401.56 379.08 Q3403.85 381.835 3403.85 387.205 Z" fill="#000000" fill-rule="nonzero" fill-opacity="1" /><path clip-path="url(#clip190)" d="M3433.9 376.927 L3424.52 389.543 L3434.38 402.853 L3429.36 402.853 L3421.81 392.668 L3414.27 402.853 L3409.24 402.853 L3419.31 389.288 L3410.1 376.927 L3415.12 376.927 L3422 386.163 L3428.87 376.927 L3433.9 376.927 Z" fill="#000000" fill-rule="nonzero" fill-opacity="1" /><path clip-path="url(#clip190)" d="M3456.88 398.918 L3464.52 398.918 L3464.52 372.552 L3456.21 374.219 L3456.21 369.96 L3464.47 368.293 L3469.15 368.293 L3469.15 398.918 L3476.79 398.918 L3476.79 402.853 L3456.88 402.853 L3456.88 398.918 Z" fill="#000000" fill-rule="nonzero" fill-opacity="1" /><path clip-path="url(#clip190)" d="M3500.89 368.293 L3505.56 368.293 L3505.56 382.9 L3521.07 368.293 L3527.09 368.293 L3509.94 384.404 L3528.32 402.853 L3522.16 402.853 L3505.56 386.21 L3505.56 402.853 L3500.89 402.853 L3500.89 368.293 Z" fill="#000000" fill-rule="nonzero" fill-opacity="1" /><path clip-path="url(#clip190)" d="M3531.79 376.927 L3536.05 376.927 L3536.05 402.853 L3531.79 402.853 L3531.79 376.927 M3531.79 366.835 L3536.05 366.835 L3536.05 372.228 L3531.79 372.228 L3531.79 366.835 Z" fill="#000000" fill-rule="nonzero" fill-opacity="1" /><path clip-path="url(#clip190)" d="M3549.82 386.349 L3549.82 399.011 L3557.32 399.011 Q3561.09 399.011 3562.9 397.46 Q3564.73 395.886 3564.73 392.668 Q3564.73 389.427 3562.9 387.9 Q3561.09 386.349 3557.32 386.349 L3549.82 386.349 M3549.82 372.136 L3549.82 382.552 L3556.74 382.552 Q3560.17 382.552 3561.83 381.279 Q3563.52 379.983 3563.52 377.344 Q3563.52 374.728 3561.83 373.432 Q3560.17 372.136 3556.74 372.136 L3549.82 372.136 M3545.15 368.293 L3557.09 368.293 Q3562.44 368.293 3565.33 370.515 Q3568.22 372.738 3568.22 376.835 Q3568.22 380.006 3566.74 381.881 Q3565.26 383.756 3562.39 384.219 Q3565.84 384.96 3567.74 387.321 Q3569.66 389.659 3569.66 393.177 Q3569.66 397.807 3566.51 400.33 Q3563.36 402.853 3557.55 402.853 L3545.15 402.853 L3545.15 368.293 Z" fill="#000000" fill-rule="nonzero" fill-opacity="1" /><polyline clip-path="url(#clip190)" style="stroke:#d55e00; stroke-linecap:round; stroke-linejoin:round; stroke-width:8; stroke-opacity:1; fill:none" stroke-dasharray="32, 20" points="3050.08,437.413 3271.86,437.413 "/>
<circle clip-path="url(#clip190)" cx="3160.97" cy="437.413" r="19.7486" fill="#d55e00" fill-rule="evenodd" fill-opacity="1" stroke="#000000" stroke-opacity="1" stroke-width="8.04571"/>
<path clip-path="url(#clip190)" d="M3330.54 439.045 L3330.54 454.693 L3326.28 454.693 L3326.28 439.184 Q3326.28 435.504 3324.85 433.675 Q3323.41 431.846 3320.54 431.846 Q3317.09 431.846 3315.1 434.045 Q3313.11 436.244 3313.11 440.041 L3313.11 454.693 L3308.83 454.693 L3308.83 428.767 L3313.11 428.767 L3313.11 432.795 Q3314.64 430.457 3316.7 429.3 Q3318.78 428.142 3321.49 428.142 Q3325.96 428.142 3328.25 430.92 Q3330.54 433.675 3330.54 439.045 Z" fill="#000000" fill-rule="nonzero" fill-opacity="1" /><path clip-path="url(#clip190)" d="M3356.1 441.429 Q3356.1 436.8 3354.17 434.254 Q3352.28 431.707 3348.83 431.707 Q3345.4 431.707 3343.48 434.254 Q3341.58 436.8 3341.58 441.429 Q3341.58 446.036 3343.48 448.582 Q3345.4 451.128 3348.83 451.128 Q3352.28 451.128 3354.17 448.582 Q3356.1 446.036 3356.1 441.429 M3360.35 451.476 Q3360.35 458.096 3357.41 461.314 Q3354.47 464.554 3348.41 464.554 Q3346.16 464.554 3344.17 464.207 Q3342.18 463.883 3340.31 463.189 L3340.31 459.045 Q3342.18 460.064 3344.01 460.55 Q3345.84 461.036 3347.74 461.036 Q3351.93 461.036 3354.01 458.837 Q3356.1 456.661 3356.1 452.24 L3356.1 450.133 Q3354.78 452.425 3352.72 453.559 Q3350.66 454.693 3347.78 454.693 Q3343.02 454.693 3340.1 451.059 Q3337.18 447.425 3337.18 441.429 Q3337.18 435.411 3340.1 431.777 Q3343.02 428.142 3347.78 428.142 Q3350.66 428.142 3352.72 429.277 Q3354.78 430.411 3356.1 432.703 L3356.1 428.767 L3360.35 428.767 L3360.35 451.476 Z" fill="#000000" fill-rule="nonzero" fill-opacity="1" /><path clip-path="url(#clip190)" d="M3369.13 428.767 L3373.39 428.767 L3373.39 454.693 L3369.13 454.693 L3369.13 428.767 M3369.13 418.675 L3373.39 418.675 L3373.39 424.068 L3369.13 424.068 L3369.13 418.675 Z" fill="#000000" fill-rule="nonzero" fill-opacity="1" /><path clip-path="url(#clip190)" d="M3403.85 439.045 L3403.85 454.693 L3399.59 454.693 L3399.59 439.184 Q3399.59 435.504 3398.16 433.675 Q3396.72 431.846 3393.85 431.846 Q3390.4 431.846 3388.41 434.045 Q3386.42 436.244 3386.42 440.041 L3386.42 454.693 L3382.14 454.693 L3382.14 428.767 L3386.42 428.767 L3386.42 432.795 Q3387.95 430.457 3390.01 429.3 Q3392.09 428.142 3394.8 428.142 Q3399.27 428.142 3401.56 430.92 Q3403.85 433.675 3403.85 439.045 Z" fill="#000000" fill-rule="nonzero" fill-opacity="1" /><path clip-path="url(#clip190)" d="M3433.9 428.767 L3424.52 441.383 L3434.38 454.693 L3429.36 454.693 L3421.81 444.508 L3414.27 454.693 L3409.24 454.693 L3419.31 441.128 L3410.1 428.767 L3415.12 428.767 L3422 438.003 L3428.87 428.767 L3433.9 428.767 Z" fill="#000000" fill-rule="nonzero" fill-opacity="1" /><path clip-path="url(#clip190)" d="M3466.65 435.55 Q3463.5 435.55 3461.65 437.703 Q3459.82 439.855 3459.82 443.605 Q3459.82 447.332 3461.65 449.508 Q3463.5 451.661 3466.65 451.661 Q3469.8 451.661 3471.63 449.508 Q3473.48 447.332 3473.48 443.605 Q3473.48 439.855 3471.63 437.703 Q3469.8 435.55 3466.65 435.55 M3475.93 420.897 L3475.93 425.156 Q3474.17 424.323 3472.37 423.883 Q3470.59 423.443 3468.83 423.443 Q3464.2 423.443 3461.74 426.568 Q3459.31 429.693 3458.96 436.013 Q3460.33 433.999 3462.39 432.934 Q3464.45 431.846 3466.93 431.846 Q3472.14 431.846 3475.15 435.017 Q3478.18 438.166 3478.18 443.605 Q3478.18 448.929 3475.03 452.147 Q3471.88 455.365 3466.65 455.365 Q3460.65 455.365 3457.48 450.781 Q3454.31 446.175 3454.31 437.448 Q3454.31 429.254 3458.2 424.392 Q3462.09 419.508 3468.64 419.508 Q3470.4 419.508 3472.18 419.855 Q3473.99 420.203 3475.93 420.897 Z" fill="#000000" fill-rule="nonzero" fill-opacity="1" /><path clip-path="url(#clip190)" d="M3499.08 424.207 L3487.27 442.656 L3499.08 442.656 L3499.08 424.207 M3497.85 420.133 L3503.73 420.133 L3503.73 442.656 L3508.66 442.656 L3508.66 446.545 L3503.73 446.545 L3503.73 454.693 L3499.08 454.693 L3499.08 446.545 L3483.48 446.545 L3483.48 442.031 L3497.85 420.133 Z" fill="#000000" fill-rule="nonzero" fill-opacity="1" /><path clip-path="url(#clip190)" d="M3531.05 420.133 L3535.72 420.133 L3535.72 434.74 L3551.23 420.133 L3557.25 420.133 L3540.1 436.244 L3558.48 454.693 L3552.32 454.693 L3535.72 438.05 L3535.72 454.693 L3531.05 454.693 L3531.05 420.133 Z" fill="#000000" fill-rule="nonzero" fill-opacity="1" /><path clip-path="url(#clip190)" d="M3561.95 428.767 L3566.21 428.767 L3566.21 454.693 L3561.95 454.693 L3561.95 428.767 M3561.95 418.675 L3566.21 418.675 L3566.21 424.068 L3561.95 424.068 L3561.95 418.675 Z" fill="#000000" fill-rule="nonzero" fill-opacity="1" /><path clip-path="url(#clip190)" d="M3579.98 438.189 L3579.98 450.851 L3587.48 450.851 Q3591.26 450.851 3593.06 449.3 Q3594.89 447.726 3594.89 444.508 Q3594.89 441.267 3593.06 439.74 Q3591.26 438.189 3587.48 438.189 L3579.98 438.189 M3579.98 423.976 L3579.98 434.392 L3586.9 434.392 Q3590.33 434.392 3592 433.119 Q3593.69 431.823 3593.69 429.184 Q3593.69 426.568 3592 425.272 Q3590.33 423.976 3586.9 423.976 L3579.98 423.976 M3575.31 420.133 L3587.25 420.133 Q3592.6 420.133 3595.49 422.355 Q3598.39 424.578 3598.39 428.675 Q3598.39 431.846 3596.9 433.721 Q3595.42 435.596 3592.55 436.059 Q3596 436.8 3597.9 439.161 Q3599.82 441.499 3599.82 445.017 Q3599.82 449.647 3596.67 452.17 Q3593.52 454.693 3587.71 454.693 L3575.31 454.693 L3575.31 420.133 Z" fill="#000000" fill-rule="nonzero" fill-opacity="1" /><polyline clip-path="url(#clip190)" style="stroke:#d55e00; stroke-linecap:round; stroke-linejoin:round; stroke-width:8; stroke-opacity:1; fill:none" stroke-dasharray="4, 8" points="3050.08,489.253 3271.86,489.253 "/>
<circle clip-path="url(#clip190)" cx="3160.97" cy="489.253" r="19.7486" fill="#d55e00" fill-rule="evenodd" fill-opacity="1" stroke="#000000" stroke-opacity="1" stroke-width="8.04571"/>
<path clip-path="url(#clip190)" d="M3330.54 490.885 L3330.54 506.533 L3326.28 506.533 L3326.28 491.024 Q3326.28 487.344 3324.85 485.515 Q3323.41 483.686 3320.54 483.686 Q3317.09 483.686 3315.1 485.885 Q3313.11 488.084 3313.11 491.881 L3313.11 506.533 L3308.83 506.533 L3308.83 480.607 L3313.11 480.607 L3313.11 484.635 Q3314.64 482.297 3316.7 481.14 Q3318.78 479.982 3321.49 479.982 Q3325.96 479.982 3328.25 482.76 Q3330.54 485.515 3330.54 490.885 Z" fill="#000000" fill-rule="nonzero" fill-opacity="1" /><path clip-path="url(#clip190)" d="M3356.1 493.269 Q3356.1 488.64 3354.17 486.094 Q3352.28 483.547 3348.83 483.547 Q3345.4 483.547 3343.48 486.094 Q3341.58 488.64 3341.58 493.269 Q3341.58 497.876 3343.48 500.422 Q3345.4 502.968 3348.83 502.968 Q3352.28 502.968 3354.17 500.422 Q3356.1 497.876 3356.1 493.269 M3360.35 503.316 Q3360.35 509.936 3357.41 513.154 Q3354.47 516.394 3348.41 516.394 Q3346.16 516.394 3344.17 516.047 Q3342.18 515.723 3340.31 515.029 L3340.31 510.885 Q3342.18 511.904 3344.01 512.39 Q3345.84 512.876 3347.74 512.876 Q3351.93 512.876 3354.01 510.677 Q3356.1 508.501 3356.1 504.08 L3356.1 501.973 Q3354.78 504.265 3352.72 505.399 Q3350.66 506.533 3347.78 506.533 Q3343.02 506.533 3340.1 502.899 Q3337.18 499.265 3337.18 493.269 Q3337.18 487.251 3340.1 483.617 Q3343.02 479.982 3347.78 479.982 Q3350.66 479.982 3352.72 481.117 Q3354.78 482.251 3356.1 484.543 L3356.1 480.607 L3360.35 480.607 L3360.35 503.316 Z" fill="#000000" fill-rule="nonzero" fill-opacity="1" /><path clip-path="url(#clip190)" d="M3369.13 480.607 L3373.39 480.607 L3373.39 506.533 L3369.13 506.533 L3369.13 480.607 M3369.13 470.515 L3373.39 470.515 L3373.39 475.908 L3369.13 475.908 L3369.13 470.515 Z" fill="#000000" fill-rule="nonzero" fill-opacity="1" /><path clip-path="url(#clip190)" d="M3403.85 490.885 L3403.85 506.533 L3399.59 506.533 L3399.59 491.024 Q3399.59 487.344 3398.16 485.515 Q3396.72 483.686 3393.85 483.686 Q3390.4 483.686 3388.41 485.885 Q3386.42 488.084 3386.42 491.881 L3386.42 506.533 L3382.14 506.533 L3382.14 480.607 L3386.42 480.607 L3386.42 484.635 Q3387.95 482.297 3390.01 481.14 Q3392.09 479.982 3394.8 479.982 Q3399.27 479.982 3401.56 482.76 Q3403.85 485.515 3403.85 490.885 Z" fill="#000000" fill-rule="nonzero" fill-opacity="1" /><path clip-path="url(#clip190)" d="M3433.9 480.607 L3424.52 493.223 L3434.38 506.533 L3429.36 506.533 L3421.81 496.348 L3414.27 506.533 L3409.24 506.533 L3419.31 492.968 L3410.1 480.607 L3415.12 480.607 L3422 489.843 L3428.87 480.607 L3433.9 480.607 Z" fill="#000000" fill-rule="nonzero" fill-opacity="1" /><path clip-path="url(#clip190)" d="M3456.88 502.598 L3464.52 502.598 L3464.52 476.232 L3456.21 477.899 L3456.21 473.64 L3464.47 471.973 L3469.15 471.973 L3469.15 502.598 L3476.79 502.598 L3476.79 506.533 L3456.88 506.533 L3456.88 502.598 Z" fill="#000000" fill-rule="nonzero" fill-opacity="1" /><path clip-path="url(#clip190)" d="M3500.89 471.973 L3507.85 471.973 L3516.67 495.492 L3525.54 471.973 L3532.51 471.973 L3532.51 506.533 L3527.95 506.533 L3527.95 476.186 L3519.03 499.89 L3514.34 499.89 L3505.42 476.186 L3505.42 506.533 L3500.89 506.533 L3500.89 471.973 Z" fill="#000000" fill-rule="nonzero" fill-opacity="1" /><path clip-path="url(#clip190)" d="M3541.6 480.607 L3545.86 480.607 L3545.86 506.533 L3541.6 506.533 L3541.6 480.607 M3541.6 470.515 L3545.86 470.515 L3545.86 475.908 L3541.6 475.908 L3541.6 470.515 Z" fill="#000000" fill-rule="nonzero" fill-opacity="1" /><path clip-path="url(#clip190)" d="M3559.64 490.029 L3559.64 502.691 L3567.14 502.691 Q3570.91 502.691 3572.71 501.14 Q3574.54 499.566 3574.54 496.348 Q3574.54 493.107 3572.71 491.58 Q3570.91 490.029 3567.14 490.029 L3559.64 490.029 M3559.64 475.816 L3559.64 486.232 L3566.56 486.232 Q3569.98 486.232 3571.65 484.959 Q3573.34 483.663 3573.34 481.024 Q3573.34 478.408 3571.65 477.112 Q3569.98 475.816 3566.56 475.816 L3559.64 475.816 M3554.96 471.973 L3566.9 471.973 Q3572.25 471.973 3575.14 474.195 Q3578.04 476.418 3578.04 480.515 Q3578.04 483.686 3576.56 485.561 Q3575.08 487.436 3572.21 487.899 Q3575.65 488.64 3577.55 491.001 Q3579.47 493.339 3579.47 496.857 Q3579.47 501.487 3576.33 504.01 Q3573.18 506.533 3567.37 506.533 L3554.96 506.533 L3554.96 471.973 Z" fill="#000000" fill-rule="nonzero" fill-opacity="1" /></svg>
